<svg xmlns="http://www.w3.org/2000/svg" version="1.1" xmlns:xlink="http://www.w3.org/1999/xlink" xmlns:svgjs="http://svgjs.dev/svgjs" viewBox="250 37 310 325"><path d="M22.421524047851562,205.38116455078125C33.83856391906738,205.2107600402832,64.44842658996582,216.5829522705078,82.5112075805664,204.4842987060547C100.57398857116699,192.38564514160157,106.92376930236816,118.35875015258789,117.4887924194336,141.70404052734375C128.05381553649903,165.0493309020996,124.31390098571778,350.5291368103027,138.11659240722656,327.354248046875C151.91928382873536,304.1793592834473,173.60538909912108,23.479817810058595,190.13453674316406,19.730941772460938C206.66368438720704,15.982065734863282,213.35425888061525,280.86995834350586,225.1121063232422,307.6233215332031C236.86995376586913,334.3766847229004,242.81615005493165,176.04484283447266,252.0179443359375,160.53811645507812C261.21973861694335,145.0313900756836,262.63677185058594,223.62332061767577,273.5426025390625,226.00897216796875C284.44843322753906,228.39462371826173,294.08072845458986,182.63677764892577,309.41705322265625,173.09417724609375C324.75337799072264,163.55157684326173,345.73992218017577,175.27354888916017,354.2601013183594,175.78475952148438" fill="none" stroke-width="25" stroke="url(&quot;#SvgjsLinearGradient1002&quot;)" stroke-linecap="round" transform="matrix(0.9999999999999999,0.35265396141692995,0,1,211.6591949462891,-40.723589616808965)" stroke-dasharray="0 0"></path><defs><linearGradient id="SvgjsLinearGradient1002"><stop stop-color="hsl(0, 0%, 0%)" offset="0"></stop><stop stop-color="hsl(179, 100%, 47%)" offset="1"></stop></linearGradient></defs></svg>