<?xml version="1.0" encoding="utf-8" standalone="no"?>
<!DOCTYPE svg PUBLIC "-//W3C//DTD SVG 1.1//EN"
  "http://www.w3.org/Graphics/SVG/1.1/DTD/svg11.dtd">
<svg xmlns:xlink="http://www.w3.org/1999/xlink" width="616.578125pt" height="447.954375pt" viewBox="0 0 616.578125 447.954375" xmlns="http://www.w3.org/2000/svg" version="1.1">
 <metadata>
  <rdf:RDF xmlns:dc="http://purl.org/dc/elements/1.1/" xmlns:cc="http://creativecommons.org/ns#" xmlns:rdf="http://www.w3.org/1999/02/22-rdf-syntax-ns#">
   <cc:Work>
    <dc:type rdf:resource="http://purl.org/dc/dcmitype/StillImage"/>
    <dc:date>2024-08-23T02:12:49.709535</dc:date>
    <dc:format>image/svg+xml</dc:format>
    <dc:creator>
     <cc:Agent>
      <dc:title>Matplotlib v3.7.1, https://matplotlib.org/</dc:title>
     </cc:Agent>
    </dc:creator>
   </cc:Work>
  </rdf:RDF>
 </metadata>
 <defs>
  <style type="text/css">*{stroke-linejoin: round; stroke-linecap: butt}</style>
 </defs>
 <g id="figure_1">
  <g id="patch_1">
   <path d="M 0 447.954375 
L 616.578125 447.954375 
L 616.578125 0 
L 0 0 
z
" style="fill: #ffffff"/>
  </g>
  <g id="axes_1">
   <g id="patch_2">
    <path d="M 51.378125 410.398125 
L 609.378125 410.398125 
L 609.378125 22.318125 
L 51.378125 22.318125 
z
" style="fill: #ffffff"/>
   </g>
   <g id="matplotlib.axis_1">
    <g id="xtick_1">
     <g id="line2d_1">
      <path d="M 75.045197 410.398125 
L 75.045197 22.318125 
" clip-path="url(#p22d198ef6d)" style="fill: none; stroke: #b0b0b0; stroke-width: 0.8; stroke-linecap: square"/>
     </g>
     <g id="line2d_2">
      <defs>
       <path id="m5bf7b92bc3" d="M 0 0 
L 0 3.5 
" style="stroke: #000000; stroke-width: 0.8"/>
      </defs>
      <g>
       <use xlink:href="#m5bf7b92bc3" x="75.045197" y="410.398125" style="stroke: #000000; stroke-width: 0.8"/>
      </g>
     </g>
     <g id="text_1">
      <!-- 0 -->
      <g transform="translate(71.863947 424.996562) scale(0.1 -0.1)">
       <defs>
        <path id="DejaVuSans-30" d="M 2034 4250 
Q 1547 4250 1301 3770 
Q 1056 3291 1056 2328 
Q 1056 1369 1301 889 
Q 1547 409 2034 409 
Q 2525 409 2770 889 
Q 3016 1369 3016 2328 
Q 3016 3291 2770 3770 
Q 2525 4250 2034 4250 
z
M 2034 4750 
Q 2819 4750 3233 4129 
Q 3647 3509 3647 2328 
Q 3647 1150 3233 529 
Q 2819 -91 2034 -91 
Q 1250 -91 836 529 
Q 422 1150 422 2328 
Q 422 3509 836 4129 
Q 1250 4750 2034 4750 
z
" transform="scale(0.015625)"/>
       </defs>
       <use xlink:href="#DejaVuSans-30"/>
      </g>
     </g>
    </g>
    <g id="xtick_2">
     <g id="line2d_3">
      <path d="M 159.873412 410.398125 
L 159.873412 22.318125 
" clip-path="url(#p22d198ef6d)" style="fill: none; stroke: #b0b0b0; stroke-width: 0.8; stroke-linecap: square"/>
     </g>
     <g id="line2d_4">
      <g>
       <use xlink:href="#m5bf7b92bc3" x="159.873412" y="410.398125" style="stroke: #000000; stroke-width: 0.8"/>
      </g>
     </g>
     <g id="text_2">
      <!-- 5 -->
      <g transform="translate(156.692162 424.996562) scale(0.1 -0.1)">
       <defs>
        <path id="DejaVuSans-35" d="M 691 4666 
L 3169 4666 
L 3169 4134 
L 1269 4134 
L 1269 2991 
Q 1406 3038 1543 3061 
Q 1681 3084 1819 3084 
Q 2600 3084 3056 2656 
Q 3513 2228 3513 1497 
Q 3513 744 3044 326 
Q 2575 -91 1722 -91 
Q 1428 -91 1123 -41 
Q 819 9 494 109 
L 494 744 
Q 775 591 1075 516 
Q 1375 441 1709 441 
Q 2250 441 2565 725 
Q 2881 1009 2881 1497 
Q 2881 1984 2565 2268 
Q 2250 2553 1709 2553 
Q 1456 2553 1204 2497 
Q 953 2441 691 2322 
L 691 4666 
z
" transform="scale(0.015625)"/>
       </defs>
       <use xlink:href="#DejaVuSans-35"/>
      </g>
     </g>
    </g>
    <g id="xtick_3">
     <g id="line2d_5">
      <path d="M 244.701628 410.398125 
L 244.701628 22.318125 
" clip-path="url(#p22d198ef6d)" style="fill: none; stroke: #b0b0b0; stroke-width: 0.8; stroke-linecap: square"/>
     </g>
     <g id="line2d_6">
      <g>
       <use xlink:href="#m5bf7b92bc3" x="244.701628" y="410.398125" style="stroke: #000000; stroke-width: 0.8"/>
      </g>
     </g>
     <g id="text_3">
      <!-- 10 -->
      <g transform="translate(238.339128 424.996562) scale(0.1 -0.1)">
       <defs>
        <path id="DejaVuSans-31" d="M 794 531 
L 1825 531 
L 1825 4091 
L 703 3866 
L 703 4441 
L 1819 4666 
L 2450 4666 
L 2450 531 
L 3481 531 
L 3481 0 
L 794 0 
L 794 531 
z
" transform="scale(0.015625)"/>
       </defs>
       <use xlink:href="#DejaVuSans-31"/>
       <use xlink:href="#DejaVuSans-30" x="63.623047"/>
      </g>
     </g>
    </g>
    <g id="xtick_4">
     <g id="line2d_7">
      <path d="M 329.529843 410.398125 
L 329.529843 22.318125 
" clip-path="url(#p22d198ef6d)" style="fill: none; stroke: #b0b0b0; stroke-width: 0.8; stroke-linecap: square"/>
     </g>
     <g id="line2d_8">
      <g>
       <use xlink:href="#m5bf7b92bc3" x="329.529843" y="410.398125" style="stroke: #000000; stroke-width: 0.8"/>
      </g>
     </g>
     <g id="text_4">
      <!-- 15 -->
      <g transform="translate(323.167343 424.996562) scale(0.1 -0.1)">
       <use xlink:href="#DejaVuSans-31"/>
       <use xlink:href="#DejaVuSans-35" x="63.623047"/>
      </g>
     </g>
    </g>
    <g id="xtick_5">
     <g id="line2d_9">
      <path d="M 414.358058 410.398125 
L 414.358058 22.318125 
" clip-path="url(#p22d198ef6d)" style="fill: none; stroke: #b0b0b0; stroke-width: 0.8; stroke-linecap: square"/>
     </g>
     <g id="line2d_10">
      <g>
       <use xlink:href="#m5bf7b92bc3" x="414.358058" y="410.398125" style="stroke: #000000; stroke-width: 0.8"/>
      </g>
     </g>
     <g id="text_5">
      <!-- 20 -->
      <g transform="translate(407.995558 424.996562) scale(0.1 -0.1)">
       <defs>
        <path id="DejaVuSans-32" d="M 1228 531 
L 3431 531 
L 3431 0 
L 469 0 
L 469 531 
Q 828 903 1448 1529 
Q 2069 2156 2228 2338 
Q 2531 2678 2651 2914 
Q 2772 3150 2772 3378 
Q 2772 3750 2511 3984 
Q 2250 4219 1831 4219 
Q 1534 4219 1204 4116 
Q 875 4013 500 3803 
L 500 4441 
Q 881 4594 1212 4672 
Q 1544 4750 1819 4750 
Q 2544 4750 2975 4387 
Q 3406 4025 3406 3419 
Q 3406 3131 3298 2873 
Q 3191 2616 2906 2266 
Q 2828 2175 2409 1742 
Q 1991 1309 1228 531 
z
" transform="scale(0.015625)"/>
       </defs>
       <use xlink:href="#DejaVuSans-32"/>
       <use xlink:href="#DejaVuSans-30" x="63.623047"/>
      </g>
     </g>
    </g>
    <g id="xtick_6">
     <g id="line2d_11">
      <path d="M 499.186273 410.398125 
L 499.186273 22.318125 
" clip-path="url(#p22d198ef6d)" style="fill: none; stroke: #b0b0b0; stroke-width: 0.8; stroke-linecap: square"/>
     </g>
     <g id="line2d_12">
      <g>
       <use xlink:href="#m5bf7b92bc3" x="499.186273" y="410.398125" style="stroke: #000000; stroke-width: 0.8"/>
      </g>
     </g>
     <g id="text_6">
      <!-- 25 -->
      <g transform="translate(492.823773 424.996562) scale(0.1 -0.1)">
       <use xlink:href="#DejaVuSans-32"/>
       <use xlink:href="#DejaVuSans-35" x="63.623047"/>
      </g>
     </g>
    </g>
    <g id="xtick_7">
     <g id="line2d_13">
      <path d="M 584.014489 410.398125 
L 584.014489 22.318125 
" clip-path="url(#p22d198ef6d)" style="fill: none; stroke: #b0b0b0; stroke-width: 0.8; stroke-linecap: square"/>
     </g>
     <g id="line2d_14">
      <g>
       <use xlink:href="#m5bf7b92bc3" x="584.014489" y="410.398125" style="stroke: #000000; stroke-width: 0.8"/>
      </g>
     </g>
     <g id="text_7">
      <!-- 30 -->
      <g transform="translate(577.651989 424.996562) scale(0.1 -0.1)">
       <defs>
        <path id="DejaVuSans-33" d="M 2597 2516 
Q 3050 2419 3304 2112 
Q 3559 1806 3559 1356 
Q 3559 666 3084 287 
Q 2609 -91 1734 -91 
Q 1441 -91 1130 -33 
Q 819 25 488 141 
L 488 750 
Q 750 597 1062 519 
Q 1375 441 1716 441 
Q 2309 441 2620 675 
Q 2931 909 2931 1356 
Q 2931 1769 2642 2001 
Q 2353 2234 1838 2234 
L 1294 2234 
L 1294 2753 
L 1863 2753 
Q 2328 2753 2575 2939 
Q 2822 3125 2822 3475 
Q 2822 3834 2567 4026 
Q 2313 4219 1838 4219 
Q 1578 4219 1281 4162 
Q 984 4106 628 3988 
L 628 4550 
Q 988 4650 1302 4700 
Q 1616 4750 1894 4750 
Q 2613 4750 3031 4423 
Q 3450 4097 3450 3541 
Q 3450 3153 3228 2886 
Q 3006 2619 2597 2516 
z
" transform="scale(0.015625)"/>
       </defs>
       <use xlink:href="#DejaVuSans-33"/>
       <use xlink:href="#DejaVuSans-30" x="63.623047"/>
      </g>
     </g>
    </g>
    <g id="text_8">
     <!-- epsilon -->
     <g transform="translate(312.516406 438.674687) scale(0.1 -0.1)">
      <defs>
       <path id="DejaVuSans-65" d="M 3597 1894 
L 3597 1613 
L 953 1613 
Q 991 1019 1311 708 
Q 1631 397 2203 397 
Q 2534 397 2845 478 
Q 3156 559 3463 722 
L 3463 178 
Q 3153 47 2828 -22 
Q 2503 -91 2169 -91 
Q 1331 -91 842 396 
Q 353 884 353 1716 
Q 353 2575 817 3079 
Q 1281 3584 2069 3584 
Q 2775 3584 3186 3129 
Q 3597 2675 3597 1894 
z
M 3022 2063 
Q 3016 2534 2758 2815 
Q 2500 3097 2075 3097 
Q 1594 3097 1305 2825 
Q 1016 2553 972 2059 
L 3022 2063 
z
" transform="scale(0.015625)"/>
       <path id="DejaVuSans-70" d="M 1159 525 
L 1159 -1331 
L 581 -1331 
L 581 3500 
L 1159 3500 
L 1159 2969 
Q 1341 3281 1617 3432 
Q 1894 3584 2278 3584 
Q 2916 3584 3314 3078 
Q 3713 2572 3713 1747 
Q 3713 922 3314 415 
Q 2916 -91 2278 -91 
Q 1894 -91 1617 61 
Q 1341 213 1159 525 
z
M 3116 1747 
Q 3116 2381 2855 2742 
Q 2594 3103 2138 3103 
Q 1681 3103 1420 2742 
Q 1159 2381 1159 1747 
Q 1159 1113 1420 752 
Q 1681 391 2138 391 
Q 2594 391 2855 752 
Q 3116 1113 3116 1747 
z
" transform="scale(0.015625)"/>
       <path id="DejaVuSans-73" d="M 2834 3397 
L 2834 2853 
Q 2591 2978 2328 3040 
Q 2066 3103 1784 3103 
Q 1356 3103 1142 2972 
Q 928 2841 928 2578 
Q 928 2378 1081 2264 
Q 1234 2150 1697 2047 
L 1894 2003 
Q 2506 1872 2764 1633 
Q 3022 1394 3022 966 
Q 3022 478 2636 193 
Q 2250 -91 1575 -91 
Q 1294 -91 989 -36 
Q 684 19 347 128 
L 347 722 
Q 666 556 975 473 
Q 1284 391 1588 391 
Q 1994 391 2212 530 
Q 2431 669 2431 922 
Q 2431 1156 2273 1281 
Q 2116 1406 1581 1522 
L 1381 1569 
Q 847 1681 609 1914 
Q 372 2147 372 2553 
Q 372 3047 722 3315 
Q 1072 3584 1716 3584 
Q 2034 3584 2315 3537 
Q 2597 3491 2834 3397 
z
" transform="scale(0.015625)"/>
       <path id="DejaVuSans-69" d="M 603 3500 
L 1178 3500 
L 1178 0 
L 603 0 
L 603 3500 
z
M 603 4863 
L 1178 4863 
L 1178 4134 
L 603 4134 
L 603 4863 
z
" transform="scale(0.015625)"/>
       <path id="DejaVuSans-6c" d="M 603 4863 
L 1178 4863 
L 1178 0 
L 603 0 
L 603 4863 
z
" transform="scale(0.015625)"/>
       <path id="DejaVuSans-6f" d="M 1959 3097 
Q 1497 3097 1228 2736 
Q 959 2375 959 1747 
Q 959 1119 1226 758 
Q 1494 397 1959 397 
Q 2419 397 2687 759 
Q 2956 1122 2956 1747 
Q 2956 2369 2687 2733 
Q 2419 3097 1959 3097 
z
M 1959 3584 
Q 2709 3584 3137 3096 
Q 3566 2609 3566 1747 
Q 3566 888 3137 398 
Q 2709 -91 1959 -91 
Q 1206 -91 779 398 
Q 353 888 353 1747 
Q 353 2609 779 3096 
Q 1206 3584 1959 3584 
z
" transform="scale(0.015625)"/>
       <path id="DejaVuSans-6e" d="M 3513 2113 
L 3513 0 
L 2938 0 
L 2938 2094 
Q 2938 2591 2744 2837 
Q 2550 3084 2163 3084 
Q 1697 3084 1428 2787 
Q 1159 2491 1159 1978 
L 1159 0 
L 581 0 
L 581 3500 
L 1159 3500 
L 1159 2956 
Q 1366 3272 1645 3428 
Q 1925 3584 2291 3584 
Q 2894 3584 3203 3211 
Q 3513 2838 3513 2113 
z
" transform="scale(0.015625)"/>
      </defs>
      <use xlink:href="#DejaVuSans-65"/>
      <use xlink:href="#DejaVuSans-70" x="61.523438"/>
      <use xlink:href="#DejaVuSans-73" x="125"/>
      <use xlink:href="#DejaVuSans-69" x="177.099609"/>
      <use xlink:href="#DejaVuSans-6c" x="204.882812"/>
      <use xlink:href="#DejaVuSans-6f" x="232.666016"/>
      <use xlink:href="#DejaVuSans-6e" x="293.847656"/>
     </g>
    </g>
   </g>
   <g id="matplotlib.axis_2">
    <g id="ytick_1">
     <g id="line2d_15">
      <path d="M 51.378125 361.438518 
L 609.378125 361.438518 
" clip-path="url(#p22d198ef6d)" style="fill: none; stroke: #b0b0b0; stroke-width: 0.8; stroke-linecap: square"/>
     </g>
     <g id="line2d_16">
      <defs>
       <path id="m5f0da8bcdb" d="M 0 0 
L -3.5 0 
" style="stroke: #000000; stroke-width: 0.8"/>
      </defs>
      <g>
       <use xlink:href="#m5f0da8bcdb" x="51.378125" y="361.438518" style="stroke: #000000; stroke-width: 0.8"/>
      </g>
     </g>
     <g id="text_9">
      <!-- $\mathdefault{10^{-6}}$ -->
      <g transform="translate(20.878125 365.237737) scale(0.1 -0.1)">
       <defs>
        <path id="DejaVuSans-2212" d="M 678 2272 
L 4684 2272 
L 4684 1741 
L 678 1741 
L 678 2272 
z
" transform="scale(0.015625)"/>
        <path id="DejaVuSans-36" d="M 2113 2584 
Q 1688 2584 1439 2293 
Q 1191 2003 1191 1497 
Q 1191 994 1439 701 
Q 1688 409 2113 409 
Q 2538 409 2786 701 
Q 3034 994 3034 1497 
Q 3034 2003 2786 2293 
Q 2538 2584 2113 2584 
z
M 3366 4563 
L 3366 3988 
Q 3128 4100 2886 4159 
Q 2644 4219 2406 4219 
Q 1781 4219 1451 3797 
Q 1122 3375 1075 2522 
Q 1259 2794 1537 2939 
Q 1816 3084 2150 3084 
Q 2853 3084 3261 2657 
Q 3669 2231 3669 1497 
Q 3669 778 3244 343 
Q 2819 -91 2113 -91 
Q 1303 -91 875 529 
Q 447 1150 447 2328 
Q 447 3434 972 4092 
Q 1497 4750 2381 4750 
Q 2619 4750 2861 4703 
Q 3103 4656 3366 4563 
z
" transform="scale(0.015625)"/>
       </defs>
       <use xlink:href="#DejaVuSans-31" transform="translate(0 0.765625)"/>
       <use xlink:href="#DejaVuSans-30" transform="translate(63.623047 0.765625)"/>
       <use xlink:href="#DejaVuSans-2212" transform="translate(128.203125 39.046875) scale(0.7)"/>
       <use xlink:href="#DejaVuSans-36" transform="translate(186.855469 39.046875) scale(0.7)"/>
      </g>
     </g>
    </g>
    <g id="ytick_2">
     <g id="line2d_17">
      <path d="M 51.378125 309.171151 
L 609.378125 309.171151 
" clip-path="url(#p22d198ef6d)" style="fill: none; stroke: #b0b0b0; stroke-width: 0.8; stroke-linecap: square"/>
     </g>
     <g id="line2d_18">
      <g>
       <use xlink:href="#m5f0da8bcdb" x="51.378125" y="309.171151" style="stroke: #000000; stroke-width: 0.8"/>
      </g>
     </g>
     <g id="text_10">
      <!-- $\mathdefault{10^{-4}}$ -->
      <g transform="translate(20.878125 312.97037) scale(0.1 -0.1)">
       <defs>
        <path id="DejaVuSans-34" d="M 2419 4116 
L 825 1625 
L 2419 1625 
L 2419 4116 
z
M 2253 4666 
L 3047 4666 
L 3047 1625 
L 3713 1625 
L 3713 1100 
L 3047 1100 
L 3047 0 
L 2419 0 
L 2419 1100 
L 313 1100 
L 313 1709 
L 2253 4666 
z
" transform="scale(0.015625)"/>
       </defs>
       <use xlink:href="#DejaVuSans-31" transform="translate(0 0.684375)"/>
       <use xlink:href="#DejaVuSans-30" transform="translate(63.623047 0.684375)"/>
       <use xlink:href="#DejaVuSans-2212" transform="translate(128.203125 38.965625) scale(0.7)"/>
       <use xlink:href="#DejaVuSans-34" transform="translate(186.855469 38.965625) scale(0.7)"/>
      </g>
     </g>
    </g>
    <g id="ytick_3">
     <g id="line2d_19">
      <path d="M 51.378125 256.903783 
L 609.378125 256.903783 
" clip-path="url(#p22d198ef6d)" style="fill: none; stroke: #b0b0b0; stroke-width: 0.8; stroke-linecap: square"/>
     </g>
     <g id="line2d_20">
      <g>
       <use xlink:href="#m5f0da8bcdb" x="51.378125" y="256.903783" style="stroke: #000000; stroke-width: 0.8"/>
      </g>
     </g>
     <g id="text_11">
      <!-- $\mathdefault{10^{-2}}$ -->
      <g transform="translate(20.878125 260.703002) scale(0.1 -0.1)">
       <use xlink:href="#DejaVuSans-31" transform="translate(0 0.765625)"/>
       <use xlink:href="#DejaVuSans-30" transform="translate(63.623047 0.765625)"/>
       <use xlink:href="#DejaVuSans-2212" transform="translate(128.203125 39.046875) scale(0.7)"/>
       <use xlink:href="#DejaVuSans-32" transform="translate(186.855469 39.046875) scale(0.7)"/>
      </g>
     </g>
    </g>
    <g id="ytick_4">
     <g id="line2d_21">
      <path d="M 51.378125 204.636416 
L 609.378125 204.636416 
" clip-path="url(#p22d198ef6d)" style="fill: none; stroke: #b0b0b0; stroke-width: 0.8; stroke-linecap: square"/>
     </g>
     <g id="line2d_22">
      <g>
       <use xlink:href="#m5f0da8bcdb" x="51.378125" y="204.636416" style="stroke: #000000; stroke-width: 0.8"/>
      </g>
     </g>
     <g id="text_12">
      <!-- $\mathdefault{10^{0}}$ -->
      <g transform="translate(26.778125 208.435635) scale(0.1 -0.1)">
       <use xlink:href="#DejaVuSans-31" transform="translate(0 0.765625)"/>
       <use xlink:href="#DejaVuSans-30" transform="translate(63.623047 0.765625)"/>
       <use xlink:href="#DejaVuSans-30" transform="translate(128.203125 39.046875) scale(0.7)"/>
      </g>
     </g>
    </g>
    <g id="ytick_5">
     <g id="line2d_23">
      <path d="M 51.378125 152.369049 
L 609.378125 152.369049 
" clip-path="url(#p22d198ef6d)" style="fill: none; stroke: #b0b0b0; stroke-width: 0.8; stroke-linecap: square"/>
     </g>
     <g id="line2d_24">
      <g>
       <use xlink:href="#m5f0da8bcdb" x="51.378125" y="152.369049" style="stroke: #000000; stroke-width: 0.8"/>
      </g>
     </g>
     <g id="text_13">
      <!-- $\mathdefault{10^{2}}$ -->
      <g transform="translate(26.778125 156.168268) scale(0.1 -0.1)">
       <use xlink:href="#DejaVuSans-31" transform="translate(0 0.765625)"/>
       <use xlink:href="#DejaVuSans-30" transform="translate(63.623047 0.765625)"/>
       <use xlink:href="#DejaVuSans-32" transform="translate(128.203125 39.046875) scale(0.7)"/>
      </g>
     </g>
    </g>
    <g id="ytick_6">
     <g id="line2d_25">
      <path d="M 51.378125 100.101682 
L 609.378125 100.101682 
" clip-path="url(#p22d198ef6d)" style="fill: none; stroke: #b0b0b0; stroke-width: 0.8; stroke-linecap: square"/>
     </g>
     <g id="line2d_26">
      <g>
       <use xlink:href="#m5f0da8bcdb" x="51.378125" y="100.101682" style="stroke: #000000; stroke-width: 0.8"/>
      </g>
     </g>
     <g id="text_14">
      <!-- $\mathdefault{10^{4}}$ -->
      <g transform="translate(26.778125 103.9009) scale(0.1 -0.1)">
       <use xlink:href="#DejaVuSans-31" transform="translate(0 0.684375)"/>
       <use xlink:href="#DejaVuSans-30" transform="translate(63.623047 0.684375)"/>
       <use xlink:href="#DejaVuSans-34" transform="translate(128.203125 38.965625) scale(0.7)"/>
      </g>
     </g>
    </g>
    <g id="ytick_7">
     <g id="line2d_27">
      <path d="M 51.378125 47.834314 
L 609.378125 47.834314 
" clip-path="url(#p22d198ef6d)" style="fill: none; stroke: #b0b0b0; stroke-width: 0.8; stroke-linecap: square"/>
     </g>
     <g id="line2d_28">
      <g>
       <use xlink:href="#m5f0da8bcdb" x="51.378125" y="47.834314" style="stroke: #000000; stroke-width: 0.8"/>
      </g>
     </g>
     <g id="text_15">
      <!-- $\mathdefault{10^{6}}$ -->
      <g transform="translate(26.778125 51.633533) scale(0.1 -0.1)">
       <use xlink:href="#DejaVuSans-31" transform="translate(0 0.765625)"/>
       <use xlink:href="#DejaVuSans-30" transform="translate(63.623047 0.765625)"/>
       <use xlink:href="#DejaVuSans-36" transform="translate(128.203125 39.046875) scale(0.7)"/>
      </g>
     </g>
    </g>
    <g id="text_16">
     <!-- variance -->
     <g transform="translate(14.798437 237.884687) rotate(-90) scale(0.1 -0.1)">
      <defs>
       <path id="DejaVuSans-76" d="M 191 3500 
L 800 3500 
L 1894 563 
L 2988 3500 
L 3597 3500 
L 2284 0 
L 1503 0 
L 191 3500 
z
" transform="scale(0.015625)"/>
       <path id="DejaVuSans-61" d="M 2194 1759 
Q 1497 1759 1228 1600 
Q 959 1441 959 1056 
Q 959 750 1161 570 
Q 1363 391 1709 391 
Q 2188 391 2477 730 
Q 2766 1069 2766 1631 
L 2766 1759 
L 2194 1759 
z
M 3341 1997 
L 3341 0 
L 2766 0 
L 2766 531 
Q 2569 213 2275 61 
Q 1981 -91 1556 -91 
Q 1019 -91 701 211 
Q 384 513 384 1019 
Q 384 1609 779 1909 
Q 1175 2209 1959 2209 
L 2766 2209 
L 2766 2266 
Q 2766 2663 2505 2880 
Q 2244 3097 1772 3097 
Q 1472 3097 1187 3025 
Q 903 2953 641 2809 
L 641 3341 
Q 956 3463 1253 3523 
Q 1550 3584 1831 3584 
Q 2591 3584 2966 3190 
Q 3341 2797 3341 1997 
z
" transform="scale(0.015625)"/>
       <path id="DejaVuSans-72" d="M 2631 2963 
Q 2534 3019 2420 3045 
Q 2306 3072 2169 3072 
Q 1681 3072 1420 2755 
Q 1159 2438 1159 1844 
L 1159 0 
L 581 0 
L 581 3500 
L 1159 3500 
L 1159 2956 
Q 1341 3275 1631 3429 
Q 1922 3584 2338 3584 
Q 2397 3584 2469 3576 
Q 2541 3569 2628 3553 
L 2631 2963 
z
" transform="scale(0.015625)"/>
       <path id="DejaVuSans-63" d="M 3122 3366 
L 3122 2828 
Q 2878 2963 2633 3030 
Q 2388 3097 2138 3097 
Q 1578 3097 1268 2742 
Q 959 2388 959 1747 
Q 959 1106 1268 751 
Q 1578 397 2138 397 
Q 2388 397 2633 464 
Q 2878 531 3122 666 
L 3122 134 
Q 2881 22 2623 -34 
Q 2366 -91 2075 -91 
Q 1284 -91 818 406 
Q 353 903 353 1747 
Q 353 2603 823 3093 
Q 1294 3584 2113 3584 
Q 2378 3584 2631 3529 
Q 2884 3475 3122 3366 
z
" transform="scale(0.015625)"/>
      </defs>
      <use xlink:href="#DejaVuSans-76"/>
      <use xlink:href="#DejaVuSans-61" x="59.179688"/>
      <use xlink:href="#DejaVuSans-72" x="120.458984"/>
      <use xlink:href="#DejaVuSans-69" x="161.572266"/>
      <use xlink:href="#DejaVuSans-61" x="189.355469"/>
      <use xlink:href="#DejaVuSans-6e" x="250.634766"/>
      <use xlink:href="#DejaVuSans-63" x="314.013672"/>
      <use xlink:href="#DejaVuSans-65" x="368.994141"/>
     </g>
    </g>
   </g>
   <g id="line2d_29">
    <path d="M 76.741761 39.967194 
L 81.865728 71.549664 
L 86.989695 84.268952 
L 92.113662 92.371837 
L 97.237629 98.330933 
L 102.361596 103.046508 
L 107.485563 106.949015 
L 112.60953 110.278043 
L 117.733497 113.180756 
L 122.857464 115.75406 
L 127.981431 118.065168 
L 133.105398 120.162613 
L 138.229365 122.082588 
L 143.353332 123.852803 
L 148.477299 125.494949 
L 153.601265 127.026318 
L 158.725232 128.460922 
L 163.849199 129.810273 
L 168.973166 131.083942 
L 174.097133 132.289977 
L 179.2211 133.435203 
L 184.345067 134.532264 
L 189.469034 135.604144 
L 194.593001 136.6552 
L 199.716968 137.689128 
L 204.840935 138.71033 
L 209.964902 139.724381 
L 215.088869 140.739028 
L 220.212836 141.766579 
L 225.336803 142.831214 
L 230.46077 144.004955 
L 235.584737 145.574896 
L 240.708704 147.663873 
L 245.83267 150.107077 
L 250.956637 152.803134 
L 256.080604 155.685875 
L 261.204571 158.7078 
L 266.328538 161.833696 
L 271.452505 165.037199 
L 276.576472 168.298541 
L 281.700439 171.60292 
L 286.824406 174.939278 
L 291.948373 178.299369 
L 297.07234 181.677058 
L 302.196307 185.067785 
L 307.320274 188.468168 
L 312.444241 191.875699 
L 317.568208 195.288519 
L 322.692175 198.705252 
L 327.816142 202.124879 
L 332.940108 205.546647 
L 338.064075 208.969998 
L 343.188042 212.39452 
L 348.312009 215.819907 
L 353.435976 219.245934 
L 358.559943 222.672436 
L 363.68391 226.099286 
L 368.807877 229.526396 
L 373.931844 232.953696 
L 379.055811 236.381139 
L 384.179778 239.808686 
L 389.303745 243.236311 
L 394.427712 246.663992 
L 399.551679 250.091717 
L 404.675646 253.519474 
L 409.799613 256.947254 
L 414.92358 260.375043 
L 420.047546 263.802862 
L 425.171513 267.230688 
L 430.29548 270.658517 
L 435.419447 274.086361 
L 440.543414 277.514188 
L 445.667381 280.941998 
L 450.791348 284.369903 
L 455.915315 287.797725 
L 461.039282 291.225687 
L 466.163249 294.653551 
L 471.287216 298.081512 
L 476.411183 301.509002 
L 481.53515 304.937561 
L 486.659117 308.365446 
L 491.783084 311.793467 
L 496.907051 315.2214 
L 502.031018 318.646198 
L 507.154985 322.079285 
L 512.278951 325.507424 
L 517.402918 328.937534 
L 522.526885 332.365108 
L 527.650852 335.797413 
L 532.774819 339.226639 
L 537.898786 342.661645 
L 543.022753 346.095258 
L 548.14672 349.533397 
L 553.270687 352.974314 
L 558.394654 356.417133 
L 563.518621 359.828359 
L 568.642588 363.325826 
L 573.766555 366.80249 
L 578.890522 370.15622 
L 584.014489 373.773293 
" clip-path="url(#p22d198ef6d)" style="fill: none; stroke: #1f77b4; stroke-width: 1.5; stroke-linecap: square"/>
   </g>
   <g id="line2d_30">
    <path d="M 76.741761 39.967292 
L 81.865728 71.549753 
L 86.989695 84.269033 
L 92.113662 92.371912 
L 97.237629 98.331003 
L 102.361596 103.046572 
L 107.485563 106.949074 
L 112.60953 110.278098 
L 117.733497 113.180806 
L 122.857464 115.754105 
L 127.981431 118.065209 
L 133.105398 120.16265 
L 138.229365 122.082621 
L 143.353332 123.852832 
L 148.477299 125.494974 
L 153.601265 127.026338 
L 158.725232 128.460939 
L 163.849199 129.810286 
L 168.973166 131.083951 
L 174.097133 132.289982 
L 179.2211 133.435204 
L 184.345067 134.525462 
L 189.469034 135.565795 
L 194.593001 136.560581 
L 199.716968 137.513645 
L 204.840935 138.42835 
L 209.964902 139.307669 
L 215.088869 140.154241 
L 220.212836 140.970423 
L 225.336803 141.758324 
L 230.46077 142.519841 
L 235.584737 143.256688 
L 240.708704 143.970417 
L 245.83267 144.662437 
L 250.956637 145.334033 
L 256.080604 145.986379 
L 261.204571 146.62055 
L 266.328538 147.237534 
L 271.452505 147.838242 
L 276.576472 148.423513 
L 281.700439 148.994122 
L 286.824406 149.550789 
L 291.948373 150.094181 
L 297.07234 150.624919 
L 302.196307 151.143582 
L 307.320274 151.650708 
L 312.444241 152.146803 
L 317.568208 152.632337 
L 322.692175 153.107754 
L 327.816142 153.573469 
L 332.940108 154.029871 
L 338.064075 154.477328 
L 343.188042 154.916185 
L 348.312009 155.34677 
L 353.435976 155.769389 
L 358.559943 156.184334 
L 363.68391 156.591881 
L 368.807877 156.992291 
L 373.931844 157.38581 
L 379.055811 157.772675 
L 384.179778 158.153107 
L 389.303745 158.52732 
L 394.427712 158.895514 
L 399.551679 159.257882 
L 404.675646 159.614607 
L 409.799613 159.965863 
L 414.92358 160.311818 
L 420.047546 160.652631 
L 425.171513 160.988453 
L 430.29548 161.31943 
L 435.419447 161.645701 
L 440.543414 161.9674 
L 445.667381 162.284655 
L 450.791348 162.597588 
L 455.915315 162.906316 
L 461.039282 163.210953 
L 466.163249 163.511606 
L 471.287216 163.808381 
L 476.411183 164.101377 
L 481.53515 164.390689 
L 486.659117 164.676412 
L 491.783084 164.958635 
L 496.907051 165.237442 
L 502.031018 165.512918 
L 507.154985 165.785142 
L 512.278951 166.054191 
L 517.402918 166.32014 
L 522.526885 166.58306 
L 527.650852 166.84302 
L 532.774819 167.100089 
L 537.898786 167.354329 
L 543.022753 167.605805 
L 548.14672 167.854577 
L 553.270687 168.100703 
L 558.394654 168.34424 
L 563.518621 168.585243 
L 568.642588 168.823766 
L 573.766555 169.059859 
L 578.890522 169.293573 
L 584.014489 169.524957 
" clip-path="url(#p22d198ef6d)" style="fill: none; stroke-dasharray: 5.55,2.4; stroke-dashoffset: 0; stroke: #ff7f0e; stroke-width: 1.5"/>
   </g>
   <g id="line2d_31">
    <path d="M 76.741761 41.250112 
L 81.865728 73.75728 
L 86.989695 87.317305 
L 92.113662 96.231221 
L 97.237629 103.011102 
L 102.361596 108.584097 
L 107.485563 113.397724 
L 112.60953 117.701359 
L 117.733497 121.646741 
L 122.857464 125.331709 
L 127.981431 128.821934 
L 133.105398 132.162777 
L 138.229365 135.386252 
L 143.353332 138.515329 
L 148.477299 141.566716 
L 153.601265 144.552719 
L 158.725232 147.482513 
L 163.849199 150.363034 
L 168.973166 153.199612 
L 174.097133 155.996422 
L 179.2211 158.756808 
L 184.345067 161.483525 
L 189.469034 164.178902 
L 194.593001 166.844967 
L 199.716968 169.483532 
L 204.840935 172.096256 
L 209.964902 174.684682 
L 215.088869 177.250267 
L 220.212836 179.794402 
L 225.336803 182.318417 
L 230.46077 184.823593 
L 235.584737 187.311158 
L 240.708704 189.782294 
L 245.83267 192.238134 
L 250.956637 194.679761 
L 256.080604 197.108204 
L 261.204571 199.524444 
L 266.328538 201.929407 
L 271.452505 204.323968 
L 276.576472 206.708948 
L 281.700439 209.085116 
L 286.824406 211.453194 
L 291.948373 213.813852 
L 297.07234 216.167712 
L 302.196307 218.515353 
L 307.320274 220.85731 
L 312.444241 223.194076 
L 317.568208 225.526106 
L 322.692175 227.853819 
L 327.816142 230.1776 
L 332.940108 232.497801 
L 338.064075 234.814744 
L 343.188042 237.128727 
L 348.312009 239.440018 
L 353.435976 241.748864 
L 358.559943 244.055491 
L 363.68391 246.360103 
L 368.807877 248.662887 
L 373.931844 250.964013 
L 379.055811 253.263636 
L 384.179778 255.561896 
L 389.303745 257.85892 
L 394.427712 260.154826 
L 399.551679 262.449717 
L 404.675646 264.743691 
L 409.799613 267.036832 
L 414.92358 269.329221 
L 420.047546 271.620927 
L 425.171513 273.912017 
L 430.29548 276.202548 
L 435.419447 278.492573 
L 440.543414 280.78214 
L 445.667381 283.071294 
L 450.791348 285.360072 
L 455.915315 287.648512 
L 461.039282 289.936645 
L 466.163249 292.2245 
L 471.287216 294.512105 
L 476.411183 296.799482 
L 481.53515 299.086654 
L 486.659117 301.37364 
L 491.783084 303.660458 
L 496.907051 305.947124 
L 502.031018 308.233653 
L 507.154985 310.520057 
L 512.278951 312.806348 
L 517.402918 315.092538 
L 522.526885 317.378636 
L 527.650852 319.664651 
L 532.774819 321.950591 
L 537.898786 324.236462 
L 543.022753 326.522272 
L 548.14672 328.808026 
L 553.270687 331.093731 
L 558.394654 333.379389 
L 563.518621 335.665006 
L 568.642588 337.950587 
L 573.766555 340.236133 
L 578.890522 342.521649 
L 584.014489 344.807138 
" clip-path="url(#p22d198ef6d)" style="fill: none; stroke-dasharray: 9.6,2.4,1.5,2.4; stroke-dashoffset: 0; stroke: #2ca02c; stroke-width: 1.5"/>
   </g>
   <g id="line2d_32">
    <path d="M 76.741761 39.958125 
L 81.865728 71.401928 
L 86.989695 83.816628 
L 92.113662 91.451153 
L 97.237629 96.784096 
L 102.361596 100.728313 
L 107.485563 103.735167 
L 112.60953 106.073547 
L 117.733497 107.926927 
L 122.857464 109.433392 
L 127.981431 110.704071 
L 133.105398 111.832501 
L 138.229365 112.899825 
L 143.353332 113.977682 
L 148.477299 115.129427 
L 153.601265 116.409867 
L 158.725232 117.863801 
L 163.849199 119.52399 
L 168.973166 121.409444 
L 174.097133 123.524963 
L 179.2211 125.862424 
L 184.345067 128.403644 
L 189.469034 131.124101 
L 194.593001 133.996604 
L 199.716968 136.99426 
L 204.840935 140.09244 
L 209.964902 143.269805 
L 215.088869 146.508596 
L 220.212836 149.79448 
L 225.336803 153.11614 
L 230.46077 156.464794 
L 235.584737 159.833711 
L 240.708704 163.217778 
L 245.83267 166.613141 
L 250.956637 170.016907 
L 256.080604 173.426914 
L 261.204571 176.841552 
L 266.328538 180.259621 
L 271.452505 183.680233 
L 276.576472 187.102726 
L 281.700439 190.526613 
L 286.824406 193.951529 
L 291.948373 197.377208 
L 297.07234 200.803451 
L 302.196307 204.230111 
L 307.320274 207.657079 
L 312.444241 211.084276 
L 317.568208 214.51164 
L 322.692175 217.93913 
L 327.816142 221.366712 
L 332.940108 224.794361 
L 338.064075 228.222062 
L 343.188042 231.649799 
L 348.312009 235.077564 
L 353.435976 238.505349 
L 358.559943 241.93315 
L 363.68391 245.360961 
L 368.807877 248.788781 
L 373.931844 252.216607 
L 379.055811 255.644437 
L 384.179778 259.072271 
L 389.303745 262.500107 
L 394.427712 265.927945 
L 399.551679 269.355784 
L 404.675646 272.783625 
L 409.799613 276.211466 
L 414.92358 279.639307 
L 420.047546 283.067149 
L 425.171513 286.494991 
L 430.29548 289.922834 
L 435.419447 293.350676 
L 440.543414 296.778519 
L 445.667381 300.206362 
L 450.791348 303.634205 
L 455.915315 307.062048 
L 461.039282 310.489891 
L 466.163249 313.917734 
L 471.287216 317.345577 
L 476.411183 320.77342 
L 481.53515 324.201263 
L 486.659117 327.629106 
L 491.783084 331.056949 
L 496.907051 334.484792 
L 502.031018 337.912635 
L 507.154985 341.340479 
L 512.278951 344.768322 
L 517.402918 348.196165 
L 522.526885 351.624008 
L 527.650852 355.051851 
L 532.774819 358.479694 
L 537.898786 361.907537 
L 543.022753 365.33538 
L 548.14672 368.763223 
L 553.270687 372.191066 
L 558.394654 375.61891 
L 563.518621 379.046753 
L 568.642588 382.474596 
L 573.766555 385.902439 
L 578.890522 389.330282 
L 584.014489 392.758125 
" clip-path="url(#p22d198ef6d)" style="fill: none; stroke-dasharray: 1.5,2.475; stroke-dashoffset: 0; stroke: #d62728; stroke-width: 1.5"/>
   </g>
   <g id="patch_3">
    <path d="M 51.378125 410.398125 
L 51.378125 22.318125 
" style="fill: none; stroke: #000000; stroke-width: 0.8; stroke-linejoin: miter; stroke-linecap: square"/>
   </g>
   <g id="patch_4">
    <path d="M 609.378125 410.398125 
L 609.378125 22.318125 
" style="fill: none; stroke: #000000; stroke-width: 0.8; stroke-linejoin: miter; stroke-linecap: square"/>
   </g>
   <g id="patch_5">
    <path d="M 51.378125 410.398125 
L 609.378125 410.398125 
" style="fill: none; stroke: #000000; stroke-width: 0.8; stroke-linejoin: miter; stroke-linecap: square"/>
   </g>
   <g id="patch_6">
    <path d="M 51.378125 22.318125 
L 609.378125 22.318125 
" style="fill: none; stroke: #000000; stroke-width: 0.8; stroke-linejoin: miter; stroke-linecap: square"/>
   </g>
   <g id="text_17">
    <!-- Variance-optimized GDL in the low privacy regime. Delta = 100 -->
    <g transform="translate(139.73375 16.318125) scale(0.12 -0.12)">
     <defs>
      <path id="DejaVuSans-56" d="M 1831 0 
L 50 4666 
L 709 4666 
L 2188 738 
L 3669 4666 
L 4325 4666 
L 2547 0 
L 1831 0 
z
" transform="scale(0.015625)"/>
      <path id="DejaVuSans-2d" d="M 313 2009 
L 1997 2009 
L 1997 1497 
L 313 1497 
L 313 2009 
z
" transform="scale(0.015625)"/>
      <path id="DejaVuSans-74" d="M 1172 4494 
L 1172 3500 
L 2356 3500 
L 2356 3053 
L 1172 3053 
L 1172 1153 
Q 1172 725 1289 603 
Q 1406 481 1766 481 
L 2356 481 
L 2356 0 
L 1766 0 
Q 1100 0 847 248 
Q 594 497 594 1153 
L 594 3053 
L 172 3053 
L 172 3500 
L 594 3500 
L 594 4494 
L 1172 4494 
z
" transform="scale(0.015625)"/>
      <path id="DejaVuSans-6d" d="M 3328 2828 
Q 3544 3216 3844 3400 
Q 4144 3584 4550 3584 
Q 5097 3584 5394 3201 
Q 5691 2819 5691 2113 
L 5691 0 
L 5113 0 
L 5113 2094 
Q 5113 2597 4934 2840 
Q 4756 3084 4391 3084 
Q 3944 3084 3684 2787 
Q 3425 2491 3425 1978 
L 3425 0 
L 2847 0 
L 2847 2094 
Q 2847 2600 2669 2842 
Q 2491 3084 2119 3084 
Q 1678 3084 1418 2786 
Q 1159 2488 1159 1978 
L 1159 0 
L 581 0 
L 581 3500 
L 1159 3500 
L 1159 2956 
Q 1356 3278 1631 3431 
Q 1906 3584 2284 3584 
Q 2666 3584 2933 3390 
Q 3200 3197 3328 2828 
z
" transform="scale(0.015625)"/>
      <path id="DejaVuSans-7a" d="M 353 3500 
L 3084 3500 
L 3084 2975 
L 922 459 
L 3084 459 
L 3084 0 
L 275 0 
L 275 525 
L 2438 3041 
L 353 3041 
L 353 3500 
z
" transform="scale(0.015625)"/>
      <path id="DejaVuSans-64" d="M 2906 2969 
L 2906 4863 
L 3481 4863 
L 3481 0 
L 2906 0 
L 2906 525 
Q 2725 213 2448 61 
Q 2172 -91 1784 -91 
Q 1150 -91 751 415 
Q 353 922 353 1747 
Q 353 2572 751 3078 
Q 1150 3584 1784 3584 
Q 2172 3584 2448 3432 
Q 2725 3281 2906 2969 
z
M 947 1747 
Q 947 1113 1208 752 
Q 1469 391 1925 391 
Q 2381 391 2643 752 
Q 2906 1113 2906 1747 
Q 2906 2381 2643 2742 
Q 2381 3103 1925 3103 
Q 1469 3103 1208 2742 
Q 947 2381 947 1747 
z
" transform="scale(0.015625)"/>
      <path id="DejaVuSans-20" transform="scale(0.015625)"/>
      <path id="DejaVuSans-47" d="M 3809 666 
L 3809 1919 
L 2778 1919 
L 2778 2438 
L 4434 2438 
L 4434 434 
Q 4069 175 3628 42 
Q 3188 -91 2688 -91 
Q 1594 -91 976 548 
Q 359 1188 359 2328 
Q 359 3472 976 4111 
Q 1594 4750 2688 4750 
Q 3144 4750 3555 4637 
Q 3966 4525 4313 4306 
L 4313 3634 
Q 3963 3931 3569 4081 
Q 3175 4231 2741 4231 
Q 1884 4231 1454 3753 
Q 1025 3275 1025 2328 
Q 1025 1384 1454 906 
Q 1884 428 2741 428 
Q 3075 428 3337 486 
Q 3600 544 3809 666 
z
" transform="scale(0.015625)"/>
      <path id="DejaVuSans-44" d="M 1259 4147 
L 1259 519 
L 2022 519 
Q 2988 519 3436 956 
Q 3884 1394 3884 2338 
Q 3884 3275 3436 3711 
Q 2988 4147 2022 4147 
L 1259 4147 
z
M 628 4666 
L 1925 4666 
Q 3281 4666 3915 4102 
Q 4550 3538 4550 2338 
Q 4550 1131 3912 565 
Q 3275 0 1925 0 
L 628 0 
L 628 4666 
z
" transform="scale(0.015625)"/>
      <path id="DejaVuSans-4c" d="M 628 4666 
L 1259 4666 
L 1259 531 
L 3531 531 
L 3531 0 
L 628 0 
L 628 4666 
z
" transform="scale(0.015625)"/>
      <path id="DejaVuSans-68" d="M 3513 2113 
L 3513 0 
L 2938 0 
L 2938 2094 
Q 2938 2591 2744 2837 
Q 2550 3084 2163 3084 
Q 1697 3084 1428 2787 
Q 1159 2491 1159 1978 
L 1159 0 
L 581 0 
L 581 4863 
L 1159 4863 
L 1159 2956 
Q 1366 3272 1645 3428 
Q 1925 3584 2291 3584 
Q 2894 3584 3203 3211 
Q 3513 2838 3513 2113 
z
" transform="scale(0.015625)"/>
      <path id="DejaVuSans-77" d="M 269 3500 
L 844 3500 
L 1563 769 
L 2278 3500 
L 2956 3500 
L 3675 769 
L 4391 3500 
L 4966 3500 
L 4050 0 
L 3372 0 
L 2619 2869 
L 1863 0 
L 1184 0 
L 269 3500 
z
" transform="scale(0.015625)"/>
      <path id="DejaVuSans-79" d="M 2059 -325 
Q 1816 -950 1584 -1140 
Q 1353 -1331 966 -1331 
L 506 -1331 
L 506 -850 
L 844 -850 
Q 1081 -850 1212 -737 
Q 1344 -625 1503 -206 
L 1606 56 
L 191 3500 
L 800 3500 
L 1894 763 
L 2988 3500 
L 3597 3500 
L 2059 -325 
z
" transform="scale(0.015625)"/>
      <path id="DejaVuSans-67" d="M 2906 1791 
Q 2906 2416 2648 2759 
Q 2391 3103 1925 3103 
Q 1463 3103 1205 2759 
Q 947 2416 947 1791 
Q 947 1169 1205 825 
Q 1463 481 1925 481 
Q 2391 481 2648 825 
Q 2906 1169 2906 1791 
z
M 3481 434 
Q 3481 -459 3084 -895 
Q 2688 -1331 1869 -1331 
Q 1566 -1331 1297 -1286 
Q 1028 -1241 775 -1147 
L 775 -588 
Q 1028 -725 1275 -790 
Q 1522 -856 1778 -856 
Q 2344 -856 2625 -561 
Q 2906 -266 2906 331 
L 2906 616 
Q 2728 306 2450 153 
Q 2172 0 1784 0 
Q 1141 0 747 490 
Q 353 981 353 1791 
Q 353 2603 747 3093 
Q 1141 3584 1784 3584 
Q 2172 3584 2450 3431 
Q 2728 3278 2906 2969 
L 2906 3500 
L 3481 3500 
L 3481 434 
z
" transform="scale(0.015625)"/>
      <path id="DejaVuSans-2e" d="M 684 794 
L 1344 794 
L 1344 0 
L 684 0 
L 684 794 
z
" transform="scale(0.015625)"/>
      <path id="DejaVuSans-3d" d="M 678 2906 
L 4684 2906 
L 4684 2381 
L 678 2381 
L 678 2906 
z
M 678 1631 
L 4684 1631 
L 4684 1100 
L 678 1100 
L 678 1631 
z
" transform="scale(0.015625)"/>
     </defs>
     <use xlink:href="#DejaVuSans-56"/>
     <use xlink:href="#DejaVuSans-61" x="60.658203"/>
     <use xlink:href="#DejaVuSans-72" x="121.9375"/>
     <use xlink:href="#DejaVuSans-69" x="163.050781"/>
     <use xlink:href="#DejaVuSans-61" x="190.833984"/>
     <use xlink:href="#DejaVuSans-6e" x="252.113281"/>
     <use xlink:href="#DejaVuSans-63" x="315.492188"/>
     <use xlink:href="#DejaVuSans-65" x="370.472656"/>
     <use xlink:href="#DejaVuSans-2d" x="431.996094"/>
     <use xlink:href="#DejaVuSans-6f" x="469.955078"/>
     <use xlink:href="#DejaVuSans-70" x="531.136719"/>
     <use xlink:href="#DejaVuSans-74" x="594.613281"/>
     <use xlink:href="#DejaVuSans-69" x="633.822266"/>
     <use xlink:href="#DejaVuSans-6d" x="661.605469"/>
     <use xlink:href="#DejaVuSans-69" x="759.017578"/>
     <use xlink:href="#DejaVuSans-7a" x="786.800781"/>
     <use xlink:href="#DejaVuSans-65" x="839.291016"/>
     <use xlink:href="#DejaVuSans-64" x="900.814453"/>
     <use xlink:href="#DejaVuSans-20" x="964.291016"/>
     <use xlink:href="#DejaVuSans-47" x="996.078125"/>
     <use xlink:href="#DejaVuSans-44" x="1073.568359"/>
     <use xlink:href="#DejaVuSans-4c" x="1150.570312"/>
     <use xlink:href="#DejaVuSans-20" x="1206.283203"/>
     <use xlink:href="#DejaVuSans-69" x="1238.070312"/>
     <use xlink:href="#DejaVuSans-6e" x="1265.853516"/>
     <use xlink:href="#DejaVuSans-20" x="1329.232422"/>
     <use xlink:href="#DejaVuSans-74" x="1361.019531"/>
     <use xlink:href="#DejaVuSans-68" x="1400.228516"/>
     <use xlink:href="#DejaVuSans-65" x="1463.607422"/>
     <use xlink:href="#DejaVuSans-20" x="1525.130859"/>
     <use xlink:href="#DejaVuSans-6c" x="1556.917969"/>
     <use xlink:href="#DejaVuSans-6f" x="1584.701172"/>
     <use xlink:href="#DejaVuSans-77" x="1645.882812"/>
     <use xlink:href="#DejaVuSans-20" x="1727.669922"/>
     <use xlink:href="#DejaVuSans-70" x="1759.457031"/>
     <use xlink:href="#DejaVuSans-72" x="1822.933594"/>
     <use xlink:href="#DejaVuSans-69" x="1864.046875"/>
     <use xlink:href="#DejaVuSans-76" x="1891.830078"/>
     <use xlink:href="#DejaVuSans-61" x="1951.009766"/>
     <use xlink:href="#DejaVuSans-63" x="2012.289062"/>
     <use xlink:href="#DejaVuSans-79" x="2067.269531"/>
     <use xlink:href="#DejaVuSans-20" x="2126.449219"/>
     <use xlink:href="#DejaVuSans-72" x="2158.236328"/>
     <use xlink:href="#DejaVuSans-65" x="2197.099609"/>
     <use xlink:href="#DejaVuSans-67" x="2258.623047"/>
     <use xlink:href="#DejaVuSans-69" x="2322.099609"/>
     <use xlink:href="#DejaVuSans-6d" x="2349.882812"/>
     <use xlink:href="#DejaVuSans-65" x="2447.294922"/>
     <use xlink:href="#DejaVuSans-2e" x="2508.818359"/>
     <use xlink:href="#DejaVuSans-20" x="2540.605469"/>
     <use xlink:href="#DejaVuSans-44" x="2572.392578"/>
     <use xlink:href="#DejaVuSans-65" x="2649.394531"/>
     <use xlink:href="#DejaVuSans-6c" x="2710.917969"/>
     <use xlink:href="#DejaVuSans-74" x="2738.701172"/>
     <use xlink:href="#DejaVuSans-61" x="2777.910156"/>
     <use xlink:href="#DejaVuSans-20" x="2839.189453"/>
     <use xlink:href="#DejaVuSans-3d" x="2870.976562"/>
     <use xlink:href="#DejaVuSans-20" x="2954.765625"/>
     <use xlink:href="#DejaVuSans-31" x="2986.552734"/>
     <use xlink:href="#DejaVuSans-30" x="3050.175781"/>
     <use xlink:href="#DejaVuSans-30" x="3113.798828"/>
    </g>
   </g>
   <g id="legend_1">
    <g id="patch_7">
     <path d="M 344.179688 89.030625 
L 602.378125 89.030625 
Q 604.378125 89.030625 604.378125 87.030625 
L 604.378125 29.318125 
Q 604.378125 27.318125 602.378125 27.318125 
L 344.179688 27.318125 
Q 342.179688 27.318125 342.179688 29.318125 
L 342.179688 87.030625 
Q 342.179688 89.030625 344.179688 89.030625 
z
" style="fill: #ffffff; opacity: 0.8; stroke: #cccccc; stroke-linejoin: miter"/>
    </g>
    <g id="line2d_33">
     <path d="M 346.179688 35.416562 
L 356.179688 35.416562 
L 366.179688 35.416562 
" style="fill: none; stroke: #1f77b4; stroke-width: 1.5; stroke-linecap: square"/>
    </g>
    <g id="text_18">
     <!-- GDL opt variance -->
     <g transform="translate(374.179688 38.916562) scale(0.1 -0.1)">
      <use xlink:href="#DejaVuSans-47"/>
      <use xlink:href="#DejaVuSans-44" x="77.490234"/>
      <use xlink:href="#DejaVuSans-4c" x="154.492188"/>
      <use xlink:href="#DejaVuSans-20" x="210.205078"/>
      <use xlink:href="#DejaVuSans-6f" x="241.992188"/>
      <use xlink:href="#DejaVuSans-70" x="303.173828"/>
      <use xlink:href="#DejaVuSans-74" x="366.650391"/>
      <use xlink:href="#DejaVuSans-20" x="405.859375"/>
      <use xlink:href="#DejaVuSans-76" x="437.646484"/>
      <use xlink:href="#DejaVuSans-61" x="496.826172"/>
      <use xlink:href="#DejaVuSans-72" x="558.105469"/>
      <use xlink:href="#DejaVuSans-69" x="599.21875"/>
      <use xlink:href="#DejaVuSans-61" x="627.001953"/>
      <use xlink:href="#DejaVuSans-6e" x="688.28125"/>
      <use xlink:href="#DejaVuSans-63" x="751.660156"/>
      <use xlink:href="#DejaVuSans-65" x="806.640625"/>
     </g>
    </g>
    <g id="line2d_34">
     <path d="M 346.179688 50.094687 
L 356.179688 50.094687 
L 366.179688 50.094687 
" style="fill: none; stroke-dasharray: 5.55,2.4; stroke-dashoffset: 0; stroke: #ff7f0e; stroke-width: 1.5"/>
    </g>
    <g id="text_19">
     <!-- DLap -->
     <g transform="translate(374.179688 53.594687) scale(0.1 -0.1)">
      <use xlink:href="#DejaVuSans-44"/>
      <use xlink:href="#DejaVuSans-4c" x="77.001953"/>
      <use xlink:href="#DejaVuSans-61" x="132.714844"/>
      <use xlink:href="#DejaVuSans-70" x="193.994141"/>
     </g>
    </g>
    <g id="line2d_35">
     <path d="M 346.179688 64.772812 
L 356.179688 64.772812 
L 366.179688 64.772812 
" style="fill: none; stroke-dasharray: 9.6,2.4,1.5,2.4; stroke-dashoffset: 0; stroke: #2ca02c; stroke-width: 1.5"/>
    </g>
    <g id="text_20">
     <!-- continuous staircase (Geng et al 2012 eq 51) -->
     <g transform="translate(374.179688 68.272812) scale(0.1 -0.1)">
      <defs>
       <path id="DejaVuSans-75" d="M 544 1381 
L 544 3500 
L 1119 3500 
L 1119 1403 
Q 1119 906 1312 657 
Q 1506 409 1894 409 
Q 2359 409 2629 706 
Q 2900 1003 2900 1516 
L 2900 3500 
L 3475 3500 
L 3475 0 
L 2900 0 
L 2900 538 
Q 2691 219 2414 64 
Q 2138 -91 1772 -91 
Q 1169 -91 856 284 
Q 544 659 544 1381 
z
M 1991 3584 
L 1991 3584 
z
" transform="scale(0.015625)"/>
       <path id="DejaVuSans-28" d="M 1984 4856 
Q 1566 4138 1362 3434 
Q 1159 2731 1159 2009 
Q 1159 1288 1364 580 
Q 1569 -128 1984 -844 
L 1484 -844 
Q 1016 -109 783 600 
Q 550 1309 550 2009 
Q 550 2706 781 3412 
Q 1013 4119 1484 4856 
L 1984 4856 
z
" transform="scale(0.015625)"/>
       <path id="DejaVuSans-71" d="M 947 1747 
Q 947 1113 1208 752 
Q 1469 391 1925 391 
Q 2381 391 2643 752 
Q 2906 1113 2906 1747 
Q 2906 2381 2643 2742 
Q 2381 3103 1925 3103 
Q 1469 3103 1208 2742 
Q 947 2381 947 1747 
z
M 2906 525 
Q 2725 213 2448 61 
Q 2172 -91 1784 -91 
Q 1150 -91 751 415 
Q 353 922 353 1747 
Q 353 2572 751 3078 
Q 1150 3584 1784 3584 
Q 2172 3584 2448 3432 
Q 2725 3281 2906 2969 
L 2906 3500 
L 3481 3500 
L 3481 -1331 
L 2906 -1331 
L 2906 525 
z
" transform="scale(0.015625)"/>
       <path id="DejaVuSans-29" d="M 513 4856 
L 1013 4856 
Q 1481 4119 1714 3412 
Q 1947 2706 1947 2009 
Q 1947 1309 1714 600 
Q 1481 -109 1013 -844 
L 513 -844 
Q 928 -128 1133 580 
Q 1338 1288 1338 2009 
Q 1338 2731 1133 3434 
Q 928 4138 513 4856 
z
" transform="scale(0.015625)"/>
      </defs>
      <use xlink:href="#DejaVuSans-63"/>
      <use xlink:href="#DejaVuSans-6f" x="54.980469"/>
      <use xlink:href="#DejaVuSans-6e" x="116.162109"/>
      <use xlink:href="#DejaVuSans-74" x="179.541016"/>
      <use xlink:href="#DejaVuSans-69" x="218.75"/>
      <use xlink:href="#DejaVuSans-6e" x="246.533203"/>
      <use xlink:href="#DejaVuSans-75" x="309.912109"/>
      <use xlink:href="#DejaVuSans-6f" x="373.291016"/>
      <use xlink:href="#DejaVuSans-75" x="434.472656"/>
      <use xlink:href="#DejaVuSans-73" x="497.851562"/>
      <use xlink:href="#DejaVuSans-20" x="549.951172"/>
      <use xlink:href="#DejaVuSans-73" x="581.738281"/>
      <use xlink:href="#DejaVuSans-74" x="633.837891"/>
      <use xlink:href="#DejaVuSans-61" x="673.046875"/>
      <use xlink:href="#DejaVuSans-69" x="734.326172"/>
      <use xlink:href="#DejaVuSans-72" x="762.109375"/>
      <use xlink:href="#DejaVuSans-63" x="800.972656"/>
      <use xlink:href="#DejaVuSans-61" x="855.953125"/>
      <use xlink:href="#DejaVuSans-73" x="917.232422"/>
      <use xlink:href="#DejaVuSans-65" x="969.332031"/>
      <use xlink:href="#DejaVuSans-20" x="1030.855469"/>
      <use xlink:href="#DejaVuSans-28" x="1062.642578"/>
      <use xlink:href="#DejaVuSans-47" x="1101.65625"/>
      <use xlink:href="#DejaVuSans-65" x="1179.146484"/>
      <use xlink:href="#DejaVuSans-6e" x="1240.669922"/>
      <use xlink:href="#DejaVuSans-67" x="1304.048828"/>
      <use xlink:href="#DejaVuSans-20" x="1367.525391"/>
      <use xlink:href="#DejaVuSans-65" x="1399.3125"/>
      <use xlink:href="#DejaVuSans-74" x="1460.835938"/>
      <use xlink:href="#DejaVuSans-20" x="1500.044922"/>
      <use xlink:href="#DejaVuSans-61" x="1531.832031"/>
      <use xlink:href="#DejaVuSans-6c" x="1593.111328"/>
      <use xlink:href="#DejaVuSans-20" x="1620.894531"/>
      <use xlink:href="#DejaVuSans-32" x="1652.681641"/>
      <use xlink:href="#DejaVuSans-30" x="1716.304688"/>
      <use xlink:href="#DejaVuSans-31" x="1779.927734"/>
      <use xlink:href="#DejaVuSans-32" x="1843.550781"/>
      <use xlink:href="#DejaVuSans-20" x="1907.173828"/>
      <use xlink:href="#DejaVuSans-65" x="1938.960938"/>
      <use xlink:href="#DejaVuSans-71" x="2000.484375"/>
      <use xlink:href="#DejaVuSans-20" x="2063.960938"/>
      <use xlink:href="#DejaVuSans-35" x="2095.748047"/>
      <use xlink:href="#DejaVuSans-31" x="2159.371094"/>
      <use xlink:href="#DejaVuSans-29" x="2222.994141"/>
     </g>
    </g>
    <g id="line2d_36">
     <path d="M 346.179688 79.450937 
L 356.179688 79.450937 
L 366.179688 79.450937 
" style="fill: none; stroke-dasharray: 1.5,2.475; stroke-dashoffset: 0; stroke: #d62728; stroke-width: 1.5"/>
    </g>
    <g id="text_21">
     <!-- discrete staircase r = 1 (numeric approx) -->
     <g transform="translate(374.179688 82.950937) scale(0.1 -0.1)">
      <defs>
       <path id="DejaVuSans-78" d="M 3513 3500 
L 2247 1797 
L 3578 0 
L 2900 0 
L 1881 1375 
L 863 0 
L 184 0 
L 1544 1831 
L 300 3500 
L 978 3500 
L 1906 2253 
L 2834 3500 
L 3513 3500 
z
" transform="scale(0.015625)"/>
      </defs>
      <use xlink:href="#DejaVuSans-64"/>
      <use xlink:href="#DejaVuSans-69" x="63.476562"/>
      <use xlink:href="#DejaVuSans-73" x="91.259766"/>
      <use xlink:href="#DejaVuSans-63" x="143.359375"/>
      <use xlink:href="#DejaVuSans-72" x="198.339844"/>
      <use xlink:href="#DejaVuSans-65" x="237.203125"/>
      <use xlink:href="#DejaVuSans-74" x="298.726562"/>
      <use xlink:href="#DejaVuSans-65" x="337.935547"/>
      <use xlink:href="#DejaVuSans-20" x="399.458984"/>
      <use xlink:href="#DejaVuSans-73" x="431.246094"/>
      <use xlink:href="#DejaVuSans-74" x="483.345703"/>
      <use xlink:href="#DejaVuSans-61" x="522.554688"/>
      <use xlink:href="#DejaVuSans-69" x="583.833984"/>
      <use xlink:href="#DejaVuSans-72" x="611.617188"/>
      <use xlink:href="#DejaVuSans-63" x="650.480469"/>
      <use xlink:href="#DejaVuSans-61" x="705.460938"/>
      <use xlink:href="#DejaVuSans-73" x="766.740234"/>
      <use xlink:href="#DejaVuSans-65" x="818.839844"/>
      <use xlink:href="#DejaVuSans-20" x="880.363281"/>
      <use xlink:href="#DejaVuSans-72" x="912.150391"/>
      <use xlink:href="#DejaVuSans-20" x="953.263672"/>
      <use xlink:href="#DejaVuSans-3d" x="985.050781"/>
      <use xlink:href="#DejaVuSans-20" x="1068.839844"/>
      <use xlink:href="#DejaVuSans-31" x="1100.626953"/>
      <use xlink:href="#DejaVuSans-20" x="1164.25"/>
      <use xlink:href="#DejaVuSans-28" x="1196.037109"/>
      <use xlink:href="#DejaVuSans-6e" x="1235.050781"/>
      <use xlink:href="#DejaVuSans-75" x="1298.429688"/>
      <use xlink:href="#DejaVuSans-6d" x="1361.808594"/>
      <use xlink:href="#DejaVuSans-65" x="1459.220703"/>
      <use xlink:href="#DejaVuSans-72" x="1520.744141"/>
      <use xlink:href="#DejaVuSans-69" x="1561.857422"/>
      <use xlink:href="#DejaVuSans-63" x="1589.640625"/>
      <use xlink:href="#DejaVuSans-20" x="1644.621094"/>
      <use xlink:href="#DejaVuSans-61" x="1676.408203"/>
      <use xlink:href="#DejaVuSans-70" x="1737.6875"/>
      <use xlink:href="#DejaVuSans-70" x="1801.164062"/>
      <use xlink:href="#DejaVuSans-72" x="1864.640625"/>
      <use xlink:href="#DejaVuSans-6f" x="1903.503906"/>
      <use xlink:href="#DejaVuSans-78" x="1961.560547"/>
      <use xlink:href="#DejaVuSans-29" x="2020.740234"/>
     </g>
    </g>
   </g>
  </g>
 </g>
 <defs>
  <clipPath id="p22d198ef6d">
   <rect x="51.378125" y="22.318125" width="558" height="388.08"/>
  </clipPath>
 </defs>
</svg>
