<?xml version="1.0" encoding="utf-8" standalone="no"?>
<!DOCTYPE svg PUBLIC "-//W3C//DTD SVG 1.1//EN"
  "http://www.w3.org/Graphics/SVG/1.1/DTD/svg11.dtd">
<svg xmlns:xlink="http://www.w3.org/1999/xlink" width="616.578125pt" height="447.954375pt" viewBox="0 0 616.578125 447.954375" xmlns="http://www.w3.org/2000/svg" version="1.1">
 <metadata>
  <rdf:RDF xmlns:dc="http://purl.org/dc/elements/1.1/" xmlns:cc="http://creativecommons.org/ns#" xmlns:rdf="http://www.w3.org/1999/02/22-rdf-syntax-ns#">
   <cc:Work>
    <dc:type rdf:resource="http://purl.org/dc/dcmitype/StillImage"/>
    <dc:date>2024-08-22T19:08:36.111038</dc:date>
    <dc:format>image/svg+xml</dc:format>
    <dc:creator>
     <cc:Agent>
      <dc:title>Matplotlib v3.7.1, https://matplotlib.org/</dc:title>
     </cc:Agent>
    </dc:creator>
   </cc:Work>
  </rdf:RDF>
 </metadata>
 <defs>
  <style type="text/css">*{stroke-linejoin: round; stroke-linecap: butt}</style>
 </defs>
 <g id="figure_1">
  <g id="patch_1">
   <path d="M 0 447.954375 
L 616.578125 447.954375 
L 616.578125 0 
L 0 0 
z
" style="fill: #ffffff"/>
  </g>
  <g id="axes_1">
   <g id="patch_2">
    <path d="M 51.378125 410.398125 
L 609.378125 410.398125 
L 609.378125 22.318125 
L 51.378125 22.318125 
z
" style="fill: #ffffff"/>
   </g>
   <g id="matplotlib.axis_1">
    <g id="xtick_1">
     <g id="line2d_1">
      <path d="M 131.092411 410.398125 
L 131.092411 22.318125 
" clip-path="url(#pfd96008041)" style="fill: none; stroke: #b0b0b0; stroke-width: 0.8; stroke-linecap: square"/>
     </g>
     <g id="line2d_2">
      <defs>
       <path id="m57e7117f7c" d="M 0 0 
L 0 3.5 
" style="stroke: #000000; stroke-width: 0.8"/>
      </defs>
      <g>
       <use xlink:href="#m57e7117f7c" x="131.092411" y="410.398125" style="stroke: #000000; stroke-width: 0.8"/>
      </g>
     </g>
     <g id="text_1">
      <!-- 5 -->
      <g transform="translate(127.911161 424.996562) scale(0.1 -0.1)">
       <defs>
        <path id="DejaVuSans-35" d="M 691 4666 
L 3169 4666 
L 3169 4134 
L 1269 4134 
L 1269 2991 
Q 1406 3038 1543 3061 
Q 1681 3084 1819 3084 
Q 2600 3084 3056 2656 
Q 3513 2228 3513 1497 
Q 3513 744 3044 326 
Q 2575 -91 1722 -91 
Q 1428 -91 1123 -41 
Q 819 9 494 109 
L 494 744 
Q 775 591 1075 516 
Q 1375 441 1709 441 
Q 2250 441 2565 725 
Q 2881 1009 2881 1497 
Q 2881 1984 2565 2268 
Q 2250 2553 1709 2553 
Q 1456 2553 1204 2497 
Q 953 2441 691 2322 
L 691 4666 
z
" transform="scale(0.015625)"/>
       </defs>
       <use xlink:href="#DejaVuSans-35"/>
      </g>
     </g>
    </g>
    <g id="xtick_2">
     <g id="line2d_3">
      <path d="M 221.676826 410.398125 
L 221.676826 22.318125 
" clip-path="url(#pfd96008041)" style="fill: none; stroke: #b0b0b0; stroke-width: 0.8; stroke-linecap: square"/>
     </g>
     <g id="line2d_4">
      <g>
       <use xlink:href="#m57e7117f7c" x="221.676826" y="410.398125" style="stroke: #000000; stroke-width: 0.8"/>
      </g>
     </g>
     <g id="text_2">
      <!-- 10 -->
      <g transform="translate(215.314326 424.996562) scale(0.1 -0.1)">
       <defs>
        <path id="DejaVuSans-31" d="M 794 531 
L 1825 531 
L 1825 4091 
L 703 3866 
L 703 4441 
L 1819 4666 
L 2450 4666 
L 2450 531 
L 3481 531 
L 3481 0 
L 794 0 
L 794 531 
z
" transform="scale(0.015625)"/>
        <path id="DejaVuSans-30" d="M 2034 4250 
Q 1547 4250 1301 3770 
Q 1056 3291 1056 2328 
Q 1056 1369 1301 889 
Q 1547 409 2034 409 
Q 2525 409 2770 889 
Q 3016 1369 3016 2328 
Q 3016 3291 2770 3770 
Q 2525 4250 2034 4250 
z
M 2034 4750 
Q 2819 4750 3233 4129 
Q 3647 3509 3647 2328 
Q 3647 1150 3233 529 
Q 2819 -91 2034 -91 
Q 1250 -91 836 529 
Q 422 1150 422 2328 
Q 422 3509 836 4129 
Q 1250 4750 2034 4750 
z
" transform="scale(0.015625)"/>
       </defs>
       <use xlink:href="#DejaVuSans-31"/>
       <use xlink:href="#DejaVuSans-30" x="63.623047"/>
      </g>
     </g>
    </g>
    <g id="xtick_3">
     <g id="line2d_5">
      <path d="M 312.261242 410.398125 
L 312.261242 22.318125 
" clip-path="url(#pfd96008041)" style="fill: none; stroke: #b0b0b0; stroke-width: 0.8; stroke-linecap: square"/>
     </g>
     <g id="line2d_6">
      <g>
       <use xlink:href="#m57e7117f7c" x="312.261242" y="410.398125" style="stroke: #000000; stroke-width: 0.8"/>
      </g>
     </g>
     <g id="text_3">
      <!-- 15 -->
      <g transform="translate(305.898742 424.996562) scale(0.1 -0.1)">
       <use xlink:href="#DejaVuSans-31"/>
       <use xlink:href="#DejaVuSans-35" x="63.623047"/>
      </g>
     </g>
    </g>
    <g id="xtick_4">
     <g id="line2d_7">
      <path d="M 402.845657 410.398125 
L 402.845657 22.318125 
" clip-path="url(#pfd96008041)" style="fill: none; stroke: #b0b0b0; stroke-width: 0.8; stroke-linecap: square"/>
     </g>
     <g id="line2d_8">
      <g>
       <use xlink:href="#m57e7117f7c" x="402.845657" y="410.398125" style="stroke: #000000; stroke-width: 0.8"/>
      </g>
     </g>
     <g id="text_4">
      <!-- 20 -->
      <g transform="translate(396.483157 424.996562) scale(0.1 -0.1)">
       <defs>
        <path id="DejaVuSans-32" d="M 1228 531 
L 3431 531 
L 3431 0 
L 469 0 
L 469 531 
Q 828 903 1448 1529 
Q 2069 2156 2228 2338 
Q 2531 2678 2651 2914 
Q 2772 3150 2772 3378 
Q 2772 3750 2511 3984 
Q 2250 4219 1831 4219 
Q 1534 4219 1204 4116 
Q 875 4013 500 3803 
L 500 4441 
Q 881 4594 1212 4672 
Q 1544 4750 1819 4750 
Q 2544 4750 2975 4387 
Q 3406 4025 3406 3419 
Q 3406 3131 3298 2873 
Q 3191 2616 2906 2266 
Q 2828 2175 2409 1742 
Q 1991 1309 1228 531 
z
" transform="scale(0.015625)"/>
       </defs>
       <use xlink:href="#DejaVuSans-32"/>
       <use xlink:href="#DejaVuSans-30" x="63.623047"/>
      </g>
     </g>
    </g>
    <g id="xtick_5">
     <g id="line2d_9">
      <path d="M 493.430073 410.398125 
L 493.430073 22.318125 
" clip-path="url(#pfd96008041)" style="fill: none; stroke: #b0b0b0; stroke-width: 0.8; stroke-linecap: square"/>
     </g>
     <g id="line2d_10">
      <g>
       <use xlink:href="#m57e7117f7c" x="493.430073" y="410.398125" style="stroke: #000000; stroke-width: 0.8"/>
      </g>
     </g>
     <g id="text_5">
      <!-- 25 -->
      <g transform="translate(487.067573 424.996562) scale(0.1 -0.1)">
       <use xlink:href="#DejaVuSans-32"/>
       <use xlink:href="#DejaVuSans-35" x="63.623047"/>
      </g>
     </g>
    </g>
    <g id="xtick_6">
     <g id="line2d_11">
      <path d="M 584.014489 410.398125 
L 584.014489 22.318125 
" clip-path="url(#pfd96008041)" style="fill: none; stroke: #b0b0b0; stroke-width: 0.8; stroke-linecap: square"/>
     </g>
     <g id="line2d_12">
      <g>
       <use xlink:href="#m57e7117f7c" x="584.014489" y="410.398125" style="stroke: #000000; stroke-width: 0.8"/>
      </g>
     </g>
     <g id="text_6">
      <!-- 30 -->
      <g transform="translate(577.651989 424.996562) scale(0.1 -0.1)">
       <defs>
        <path id="DejaVuSans-33" d="M 2597 2516 
Q 3050 2419 3304 2112 
Q 3559 1806 3559 1356 
Q 3559 666 3084 287 
Q 2609 -91 1734 -91 
Q 1441 -91 1130 -33 
Q 819 25 488 141 
L 488 750 
Q 750 597 1062 519 
Q 1375 441 1716 441 
Q 2309 441 2620 675 
Q 2931 909 2931 1356 
Q 2931 1769 2642 2001 
Q 2353 2234 1838 2234 
L 1294 2234 
L 1294 2753 
L 1863 2753 
Q 2328 2753 2575 2939 
Q 2822 3125 2822 3475 
Q 2822 3834 2567 4026 
Q 2313 4219 1838 4219 
Q 1578 4219 1281 4162 
Q 984 4106 628 3988 
L 628 4550 
Q 988 4650 1302 4700 
Q 1616 4750 1894 4750 
Q 2613 4750 3031 4423 
Q 3450 4097 3450 3541 
Q 3450 3153 3228 2886 
Q 3006 2619 2597 2516 
z
" transform="scale(0.015625)"/>
       </defs>
       <use xlink:href="#DejaVuSans-33"/>
       <use xlink:href="#DejaVuSans-30" x="63.623047"/>
      </g>
     </g>
    </g>
    <g id="text_7">
     <!-- epsilon -->
     <g transform="translate(312.516406 438.674687) scale(0.1 -0.1)">
      <defs>
       <path id="DejaVuSans-65" d="M 3597 1894 
L 3597 1613 
L 953 1613 
Q 991 1019 1311 708 
Q 1631 397 2203 397 
Q 2534 397 2845 478 
Q 3156 559 3463 722 
L 3463 178 
Q 3153 47 2828 -22 
Q 2503 -91 2169 -91 
Q 1331 -91 842 396 
Q 353 884 353 1716 
Q 353 2575 817 3079 
Q 1281 3584 2069 3584 
Q 2775 3584 3186 3129 
Q 3597 2675 3597 1894 
z
M 3022 2063 
Q 3016 2534 2758 2815 
Q 2500 3097 2075 3097 
Q 1594 3097 1305 2825 
Q 1016 2553 972 2059 
L 3022 2063 
z
" transform="scale(0.015625)"/>
       <path id="DejaVuSans-70" d="M 1159 525 
L 1159 -1331 
L 581 -1331 
L 581 3500 
L 1159 3500 
L 1159 2969 
Q 1341 3281 1617 3432 
Q 1894 3584 2278 3584 
Q 2916 3584 3314 3078 
Q 3713 2572 3713 1747 
Q 3713 922 3314 415 
Q 2916 -91 2278 -91 
Q 1894 -91 1617 61 
Q 1341 213 1159 525 
z
M 3116 1747 
Q 3116 2381 2855 2742 
Q 2594 3103 2138 3103 
Q 1681 3103 1420 2742 
Q 1159 2381 1159 1747 
Q 1159 1113 1420 752 
Q 1681 391 2138 391 
Q 2594 391 2855 752 
Q 3116 1113 3116 1747 
z
" transform="scale(0.015625)"/>
       <path id="DejaVuSans-73" d="M 2834 3397 
L 2834 2853 
Q 2591 2978 2328 3040 
Q 2066 3103 1784 3103 
Q 1356 3103 1142 2972 
Q 928 2841 928 2578 
Q 928 2378 1081 2264 
Q 1234 2150 1697 2047 
L 1894 2003 
Q 2506 1872 2764 1633 
Q 3022 1394 3022 966 
Q 3022 478 2636 193 
Q 2250 -91 1575 -91 
Q 1294 -91 989 -36 
Q 684 19 347 128 
L 347 722 
Q 666 556 975 473 
Q 1284 391 1588 391 
Q 1994 391 2212 530 
Q 2431 669 2431 922 
Q 2431 1156 2273 1281 
Q 2116 1406 1581 1522 
L 1381 1569 
Q 847 1681 609 1914 
Q 372 2147 372 2553 
Q 372 3047 722 3315 
Q 1072 3584 1716 3584 
Q 2034 3584 2315 3537 
Q 2597 3491 2834 3397 
z
" transform="scale(0.015625)"/>
       <path id="DejaVuSans-69" d="M 603 3500 
L 1178 3500 
L 1178 0 
L 603 0 
L 603 3500 
z
M 603 4863 
L 1178 4863 
L 1178 4134 
L 603 4134 
L 603 4863 
z
" transform="scale(0.015625)"/>
       <path id="DejaVuSans-6c" d="M 603 4863 
L 1178 4863 
L 1178 0 
L 603 0 
L 603 4863 
z
" transform="scale(0.015625)"/>
       <path id="DejaVuSans-6f" d="M 1959 3097 
Q 1497 3097 1228 2736 
Q 959 2375 959 1747 
Q 959 1119 1226 758 
Q 1494 397 1959 397 
Q 2419 397 2687 759 
Q 2956 1122 2956 1747 
Q 2956 2369 2687 2733 
Q 2419 3097 1959 3097 
z
M 1959 3584 
Q 2709 3584 3137 3096 
Q 3566 2609 3566 1747 
Q 3566 888 3137 398 
Q 2709 -91 1959 -91 
Q 1206 -91 779 398 
Q 353 888 353 1747 
Q 353 2609 779 3096 
Q 1206 3584 1959 3584 
z
" transform="scale(0.015625)"/>
       <path id="DejaVuSans-6e" d="M 3513 2113 
L 3513 0 
L 2938 0 
L 2938 2094 
Q 2938 2591 2744 2837 
Q 2550 3084 2163 3084 
Q 1697 3084 1428 2787 
Q 1159 2491 1159 1978 
L 1159 0 
L 581 0 
L 581 3500 
L 1159 3500 
L 1159 2956 
Q 1366 3272 1645 3428 
Q 1925 3584 2291 3584 
Q 2894 3584 3203 3211 
Q 3513 2838 3513 2113 
z
" transform="scale(0.015625)"/>
      </defs>
      <use xlink:href="#DejaVuSans-65"/>
      <use xlink:href="#DejaVuSans-70" x="61.523438"/>
      <use xlink:href="#DejaVuSans-73" x="125"/>
      <use xlink:href="#DejaVuSans-69" x="177.099609"/>
      <use xlink:href="#DejaVuSans-6c" x="204.882812"/>
      <use xlink:href="#DejaVuSans-6f" x="232.666016"/>
      <use xlink:href="#DejaVuSans-6e" x="293.847656"/>
     </g>
    </g>
   </g>
   <g id="matplotlib.axis_2">
    <g id="ytick_1">
     <g id="line2d_13">
      <path d="M 51.378125 379.115277 
L 609.378125 379.115277 
" clip-path="url(#pfd96008041)" style="fill: none; stroke: #b0b0b0; stroke-width: 0.8; stroke-linecap: square"/>
     </g>
     <g id="line2d_14">
      <defs>
       <path id="mcd024472d4" d="M 0 0 
L -3.5 0 
" style="stroke: #000000; stroke-width: 0.8"/>
      </defs>
      <g>
       <use xlink:href="#mcd024472d4" x="51.378125" y="379.115277" style="stroke: #000000; stroke-width: 0.8"/>
      </g>
     </g>
     <g id="text_8">
      <!-- $\mathdefault{10^{-6}}$ -->
      <g transform="translate(20.878125 382.914495) scale(0.1 -0.1)">
       <defs>
        <path id="DejaVuSans-2212" d="M 678 2272 
L 4684 2272 
L 4684 1741 
L 678 1741 
L 678 2272 
z
" transform="scale(0.015625)"/>
        <path id="DejaVuSans-36" d="M 2113 2584 
Q 1688 2584 1439 2293 
Q 1191 2003 1191 1497 
Q 1191 994 1439 701 
Q 1688 409 2113 409 
Q 2538 409 2786 701 
Q 3034 994 3034 1497 
Q 3034 2003 2786 2293 
Q 2538 2584 2113 2584 
z
M 3366 4563 
L 3366 3988 
Q 3128 4100 2886 4159 
Q 2644 4219 2406 4219 
Q 1781 4219 1451 3797 
Q 1122 3375 1075 2522 
Q 1259 2794 1537 2939 
Q 1816 3084 2150 3084 
Q 2853 3084 3261 2657 
Q 3669 2231 3669 1497 
Q 3669 778 3244 343 
Q 2819 -91 2113 -91 
Q 1303 -91 875 529 
Q 447 1150 447 2328 
Q 447 3434 972 4092 
Q 1497 4750 2381 4750 
Q 2619 4750 2861 4703 
Q 3103 4656 3366 4563 
z
" transform="scale(0.015625)"/>
       </defs>
       <use xlink:href="#DejaVuSans-31" transform="translate(0 0.765625)"/>
       <use xlink:href="#DejaVuSans-30" transform="translate(63.623047 0.765625)"/>
       <use xlink:href="#DejaVuSans-2212" transform="translate(128.203125 39.046875) scale(0.7)"/>
       <use xlink:href="#DejaVuSans-36" transform="translate(186.855469 39.046875) scale(0.7)"/>
      </g>
     </g>
    </g>
    <g id="ytick_2">
     <g id="line2d_15">
      <path d="M 51.378125 321.305077 
L 609.378125 321.305077 
" clip-path="url(#pfd96008041)" style="fill: none; stroke: #b0b0b0; stroke-width: 0.8; stroke-linecap: square"/>
     </g>
     <g id="line2d_16">
      <g>
       <use xlink:href="#mcd024472d4" x="51.378125" y="321.305077" style="stroke: #000000; stroke-width: 0.8"/>
      </g>
     </g>
     <g id="text_9">
      <!-- $\mathdefault{10^{-4}}$ -->
      <g transform="translate(20.878125 325.104296) scale(0.1 -0.1)">
       <defs>
        <path id="DejaVuSans-34" d="M 2419 4116 
L 825 1625 
L 2419 1625 
L 2419 4116 
z
M 2253 4666 
L 3047 4666 
L 3047 1625 
L 3713 1625 
L 3713 1100 
L 3047 1100 
L 3047 0 
L 2419 0 
L 2419 1100 
L 313 1100 
L 313 1709 
L 2253 4666 
z
" transform="scale(0.015625)"/>
       </defs>
       <use xlink:href="#DejaVuSans-31" transform="translate(0 0.684375)"/>
       <use xlink:href="#DejaVuSans-30" transform="translate(63.623047 0.684375)"/>
       <use xlink:href="#DejaVuSans-2212" transform="translate(128.203125 38.965625) scale(0.7)"/>
       <use xlink:href="#DejaVuSans-34" transform="translate(186.855469 38.965625) scale(0.7)"/>
      </g>
     </g>
    </g>
    <g id="ytick_3">
     <g id="line2d_17">
      <path d="M 51.378125 263.494877 
L 609.378125 263.494877 
" clip-path="url(#pfd96008041)" style="fill: none; stroke: #b0b0b0; stroke-width: 0.8; stroke-linecap: square"/>
     </g>
     <g id="line2d_18">
      <g>
       <use xlink:href="#mcd024472d4" x="51.378125" y="263.494877" style="stroke: #000000; stroke-width: 0.8"/>
      </g>
     </g>
     <g id="text_10">
      <!-- $\mathdefault{10^{-2}}$ -->
      <g transform="translate(20.878125 267.294096) scale(0.1 -0.1)">
       <use xlink:href="#DejaVuSans-31" transform="translate(0 0.765625)"/>
       <use xlink:href="#DejaVuSans-30" transform="translate(63.623047 0.765625)"/>
       <use xlink:href="#DejaVuSans-2212" transform="translate(128.203125 39.046875) scale(0.7)"/>
       <use xlink:href="#DejaVuSans-32" transform="translate(186.855469 39.046875) scale(0.7)"/>
      </g>
     </g>
    </g>
    <g id="ytick_4">
     <g id="line2d_19">
      <path d="M 51.378125 205.684677 
L 609.378125 205.684677 
" clip-path="url(#pfd96008041)" style="fill: none; stroke: #b0b0b0; stroke-width: 0.8; stroke-linecap: square"/>
     </g>
     <g id="line2d_20">
      <g>
       <use xlink:href="#mcd024472d4" x="51.378125" y="205.684677" style="stroke: #000000; stroke-width: 0.8"/>
      </g>
     </g>
     <g id="text_11">
      <!-- $\mathdefault{10^{0}}$ -->
      <g transform="translate(26.778125 209.483896) scale(0.1 -0.1)">
       <use xlink:href="#DejaVuSans-31" transform="translate(0 0.765625)"/>
       <use xlink:href="#DejaVuSans-30" transform="translate(63.623047 0.765625)"/>
       <use xlink:href="#DejaVuSans-30" transform="translate(128.203125 39.046875) scale(0.7)"/>
      </g>
     </g>
    </g>
    <g id="ytick_5">
     <g id="line2d_21">
      <path d="M 51.378125 147.874478 
L 609.378125 147.874478 
" clip-path="url(#pfd96008041)" style="fill: none; stroke: #b0b0b0; stroke-width: 0.8; stroke-linecap: square"/>
     </g>
     <g id="line2d_22">
      <g>
       <use xlink:href="#mcd024472d4" x="51.378125" y="147.874478" style="stroke: #000000; stroke-width: 0.8"/>
      </g>
     </g>
     <g id="text_12">
      <!-- $\mathdefault{10^{2}}$ -->
      <g transform="translate(26.778125 151.673697) scale(0.1 -0.1)">
       <use xlink:href="#DejaVuSans-31" transform="translate(0 0.765625)"/>
       <use xlink:href="#DejaVuSans-30" transform="translate(63.623047 0.765625)"/>
       <use xlink:href="#DejaVuSans-32" transform="translate(128.203125 39.046875) scale(0.7)"/>
      </g>
     </g>
    </g>
    <g id="ytick_6">
     <g id="line2d_23">
      <path d="M 51.378125 90.064278 
L 609.378125 90.064278 
" clip-path="url(#pfd96008041)" style="fill: none; stroke: #b0b0b0; stroke-width: 0.8; stroke-linecap: square"/>
     </g>
     <g id="line2d_24">
      <g>
       <use xlink:href="#mcd024472d4" x="51.378125" y="90.064278" style="stroke: #000000; stroke-width: 0.8"/>
      </g>
     </g>
     <g id="text_13">
      <!-- $\mathdefault{10^{4}}$ -->
      <g transform="translate(26.778125 93.863497) scale(0.1 -0.1)">
       <use xlink:href="#DejaVuSans-31" transform="translate(0 0.684375)"/>
       <use xlink:href="#DejaVuSans-30" transform="translate(63.623047 0.684375)"/>
       <use xlink:href="#DejaVuSans-34" transform="translate(128.203125 38.965625) scale(0.7)"/>
      </g>
     </g>
    </g>
    <g id="ytick_7">
     <g id="line2d_25">
      <path d="M 51.378125 32.254078 
L 609.378125 32.254078 
" clip-path="url(#pfd96008041)" style="fill: none; stroke: #b0b0b0; stroke-width: 0.8; stroke-linecap: square"/>
     </g>
     <g id="line2d_26">
      <g>
       <use xlink:href="#mcd024472d4" x="51.378125" y="32.254078" style="stroke: #000000; stroke-width: 0.8"/>
      </g>
     </g>
     <g id="text_14">
      <!-- $\mathdefault{10^{6}}$ -->
      <g transform="translate(26.778125 36.053297) scale(0.1 -0.1)">
       <use xlink:href="#DejaVuSans-31" transform="translate(0 0.765625)"/>
       <use xlink:href="#DejaVuSans-30" transform="translate(63.623047 0.765625)"/>
       <use xlink:href="#DejaVuSans-36" transform="translate(128.203125 39.046875) scale(0.7)"/>
      </g>
     </g>
    </g>
    <g id="text_15">
     <!-- variance -->
     <g transform="translate(14.798437 237.884687) rotate(-90) scale(0.1 -0.1)">
      <defs>
       <path id="DejaVuSans-76" d="M 191 3500 
L 800 3500 
L 1894 563 
L 2988 3500 
L 3597 3500 
L 2284 0 
L 1503 0 
L 191 3500 
z
" transform="scale(0.015625)"/>
       <path id="DejaVuSans-61" d="M 2194 1759 
Q 1497 1759 1228 1600 
Q 959 1441 959 1056 
Q 959 750 1161 570 
Q 1363 391 1709 391 
Q 2188 391 2477 730 
Q 2766 1069 2766 1631 
L 2766 1759 
L 2194 1759 
z
M 3341 1997 
L 3341 0 
L 2766 0 
L 2766 531 
Q 2569 213 2275 61 
Q 1981 -91 1556 -91 
Q 1019 -91 701 211 
Q 384 513 384 1019 
Q 384 1609 779 1909 
Q 1175 2209 1959 2209 
L 2766 2209 
L 2766 2266 
Q 2766 2663 2505 2880 
Q 2244 3097 1772 3097 
Q 1472 3097 1187 3025 
Q 903 2953 641 2809 
L 641 3341 
Q 956 3463 1253 3523 
Q 1550 3584 1831 3584 
Q 2591 3584 2966 3190 
Q 3341 2797 3341 1997 
z
" transform="scale(0.015625)"/>
       <path id="DejaVuSans-72" d="M 2631 2963 
Q 2534 3019 2420 3045 
Q 2306 3072 2169 3072 
Q 1681 3072 1420 2755 
Q 1159 2438 1159 1844 
L 1159 0 
L 581 0 
L 581 3500 
L 1159 3500 
L 1159 2956 
Q 1341 3275 1631 3429 
Q 1922 3584 2338 3584 
Q 2397 3584 2469 3576 
Q 2541 3569 2628 3553 
L 2631 2963 
z
" transform="scale(0.015625)"/>
       <path id="DejaVuSans-63" d="M 3122 3366 
L 3122 2828 
Q 2878 2963 2633 3030 
Q 2388 3097 2138 3097 
Q 1578 3097 1268 2742 
Q 959 2388 959 1747 
Q 959 1106 1268 751 
Q 1578 397 2138 397 
Q 2388 397 2633 464 
Q 2878 531 3122 666 
L 3122 134 
Q 2881 22 2623 -34 
Q 2366 -91 2075 -91 
Q 1284 -91 818 406 
Q 353 903 353 1747 
Q 353 2603 823 3093 
Q 1294 3584 2113 3584 
Q 2378 3584 2631 3529 
Q 2884 3475 3122 3366 
z
" transform="scale(0.015625)"/>
      </defs>
      <use xlink:href="#DejaVuSans-76"/>
      <use xlink:href="#DejaVuSans-61" x="59.179688"/>
      <use xlink:href="#DejaVuSans-72" x="120.458984"/>
      <use xlink:href="#DejaVuSans-69" x="161.572266"/>
      <use xlink:href="#DejaVuSans-61" x="189.355469"/>
      <use xlink:href="#DejaVuSans-6e" x="250.634766"/>
      <use xlink:href="#DejaVuSans-63" x="314.013672"/>
      <use xlink:href="#DejaVuSans-65" x="368.994141"/>
     </g>
    </g>
   </g>
   <g id="line2d_27">
    <path d="M 76.741761 98.765934 
L 87.094266 105.075881 
L 97.446771 110.114401 
L 107.799275 114.308988 
L 118.15178 117.902258 
L 128.504285 121.04524 
L 138.856789 123.838366 
L 149.209294 126.351818 
L 159.561798 128.655595 
L 169.914303 130.861038 
L 180.266808 133.004558 
L 190.619312 135.127447 
L 200.971817 137.319374 
L 211.324322 140.131506 
L 221.676826 144.74897 
L 232.029331 150.475727 
L 242.381836 156.820925 
L 252.73434 163.521675 
L 263.086845 170.426343 
L 273.439349 177.447347 
L 283.791854 184.534455 
L 294.144359 191.659028 
L 304.496863 198.804803 
L 314.849368 205.962564 
L 325.201873 213.1271 
L 335.554377 220.295463 
L 345.906882 227.465986 
L 356.259387 234.637732 
L 366.611891 241.810167 
L 376.964396 248.982991 
L 387.316901 256.156036 
L 397.669405 263.329205 
L 408.02191 270.502453 
L 418.374414 277.67574 
L 428.726919 284.849066 
L 439.079424 292.022428 
L 449.431928 299.195778 
L 459.784433 306.369253 
L 470.136938 313.542714 
L 480.489442 320.716418 
L 490.841947 327.890327 
L 501.194452 335.064378 
L 511.546956 342.241136 
L 521.899461 349.417856 
L 532.251965 356.599868 
L 542.60447 363.788075 
L 552.956975 370.974557 
L 563.309479 378.141846 
L 573.661984 385.396597 
L 584.014489 392.758125 
" clip-path="url(#pfd96008041)" style="fill: none; stroke: #1f77b4; stroke-width: 1.5; stroke-linecap: square"/>
   </g>
   <g id="line2d_28">
    <path d="M 76.741761 98.765999 
L 87.094266 105.075935 
L 97.446771 110.114446 
L 107.799275 114.309025 
L 118.15178 117.902286 
L 128.504285 121.04526 
L 138.856789 123.838378 
L 149.209294 126.351821 
L 159.561798 128.636569 
L 169.914303 130.730822 
L 180.266808 132.663944 
L 190.619312 134.458995 
L 200.971817 136.134417 
L 211.324322 137.705187 
L 221.676826 139.183636 
L 232.029331 140.580038 
L 242.381836 141.903044 
L 252.73434 143.160004 
L 263.086845 144.357219 
L 273.439349 145.50013 
L 283.791854 146.593466 
L 294.144359 147.641367 
L 304.496863 148.647474 
L 314.849368 149.615009 
L 325.201873 150.546836 
L 335.554377 151.445509 
L 345.906882 152.313322 
L 356.259387 153.152336 
L 366.611891 153.964415 
L 376.964396 154.751247 
L 387.316901 155.514366 
L 397.669405 156.255171 
L 408.02191 156.974942 
L 418.374414 157.674852 
L 428.726919 158.355977 
L 439.079424 159.019311 
L 449.431928 159.665768 
L 459.784433 160.296198 
L 470.136938 160.911384 
L 480.489442 161.512056 
L 490.841947 162.098893 
L 501.194452 162.672526 
L 511.546956 163.233545 
L 521.899461 163.782502 
L 532.251965 164.319914 
L 542.60447 164.846263 
L 552.956975 165.362004 
L 563.309479 165.867565 
L 573.661984 166.363348 
L 584.014489 166.84973 
" clip-path="url(#pfd96008041)" style="fill: none; stroke-dasharray: 5.55,2.4; stroke-dashoffset: 0; stroke: #ff7f0e; stroke-width: 1.5"/>
   </g>
   <g id="line2d_29">
    <defs>
     <path id="m34c34f10bd" d="M -3 0 
L 3 0 
M 0 3 
L 0 -3 
" style="stroke: #2ca02c"/>
    </defs>
    <g clip-path="url(#pfd96008041)">
     <use xlink:href="#m34c34f10bd" x="76.741761" y="39.958125" style="fill: #2ca02c; stroke: #2ca02c"/>
     <use xlink:href="#m34c34f10bd" x="87.094266" y="47.131454" style="fill: #2ca02c; stroke: #2ca02c"/>
     <use xlink:href="#m34c34f10bd" x="97.446771" y="54.304783" style="fill: #2ca02c; stroke: #2ca02c"/>
     <use xlink:href="#m34c34f10bd" x="107.799275" y="61.478111" style="fill: #2ca02c; stroke: #2ca02c"/>
     <use xlink:href="#m34c34f10bd" x="118.15178" y="68.65144" style="fill: #2ca02c; stroke: #2ca02c"/>
     <use xlink:href="#m34c34f10bd" x="128.504285" y="75.824769" style="fill: #2ca02c; stroke: #2ca02c"/>
     <use xlink:href="#m34c34f10bd" x="138.856789" y="82.998098" style="fill: #2ca02c; stroke: #2ca02c"/>
     <use xlink:href="#m34c34f10bd" x="149.209294" y="90.171426" style="fill: #2ca02c; stroke: #2ca02c"/>
     <use xlink:href="#m34c34f10bd" x="159.561798" y="97.344755" style="fill: #2ca02c; stroke: #2ca02c"/>
     <use xlink:href="#m34c34f10bd" x="169.914303" y="104.518084" style="fill: #2ca02c; stroke: #2ca02c"/>
     <use xlink:href="#m34c34f10bd" x="180.266808" y="111.691413" style="fill: #2ca02c; stroke: #2ca02c"/>
     <use xlink:href="#m34c34f10bd" x="190.619312" y="118.864742" style="fill: #2ca02c; stroke: #2ca02c"/>
     <use xlink:href="#m34c34f10bd" x="200.971817" y="126.03807" style="fill: #2ca02c; stroke: #2ca02c"/>
     <use xlink:href="#m34c34f10bd" x="211.324322" y="133.211399" style="fill: #2ca02c; stroke: #2ca02c"/>
     <use xlink:href="#m34c34f10bd" x="221.676826" y="140.384728" style="fill: #2ca02c; stroke: #2ca02c"/>
     <use xlink:href="#m34c34f10bd" x="232.029331" y="147.558057" style="fill: #2ca02c; stroke: #2ca02c"/>
     <use xlink:href="#m34c34f10bd" x="242.381836" y="154.731385" style="fill: #2ca02c; stroke: #2ca02c"/>
     <use xlink:href="#m34c34f10bd" x="252.73434" y="161.904714" style="fill: #2ca02c; stroke: #2ca02c"/>
     <use xlink:href="#m34c34f10bd" x="263.086845" y="169.078043" style="fill: #2ca02c; stroke: #2ca02c"/>
     <use xlink:href="#m34c34f10bd" x="273.439349" y="176.251372" style="fill: #2ca02c; stroke: #2ca02c"/>
     <use xlink:href="#m34c34f10bd" x="283.791854" y="183.424701" style="fill: #2ca02c; stroke: #2ca02c"/>
     <use xlink:href="#m34c34f10bd" x="294.144359" y="190.598029" style="fill: #2ca02c; stroke: #2ca02c"/>
     <use xlink:href="#m34c34f10bd" x="304.496863" y="197.771358" style="fill: #2ca02c; stroke: #2ca02c"/>
     <use xlink:href="#m34c34f10bd" x="314.849368" y="204.944687" style="fill: #2ca02c; stroke: #2ca02c"/>
     <use xlink:href="#m34c34f10bd" x="325.201873" y="212.118016" style="fill: #2ca02c; stroke: #2ca02c"/>
     <use xlink:href="#m34c34f10bd" x="335.554377" y="219.291344" style="fill: #2ca02c; stroke: #2ca02c"/>
     <use xlink:href="#m34c34f10bd" x="345.906882" y="226.464673" style="fill: #2ca02c; stroke: #2ca02c"/>
     <use xlink:href="#m34c34f10bd" x="356.259387" y="233.638002" style="fill: #2ca02c; stroke: #2ca02c"/>
     <use xlink:href="#m34c34f10bd" x="366.611891" y="240.811331" style="fill: #2ca02c; stroke: #2ca02c"/>
     <use xlink:href="#m34c34f10bd" x="376.964396" y="247.98466" style="fill: #2ca02c; stroke: #2ca02c"/>
     <use xlink:href="#m34c34f10bd" x="387.316901" y="255.157988" style="fill: #2ca02c; stroke: #2ca02c"/>
     <use xlink:href="#m34c34f10bd" x="397.669405" y="262.331317" style="fill: #2ca02c; stroke: #2ca02c"/>
     <use xlink:href="#m34c34f10bd" x="408.02191" y="269.504646" style="fill: #2ca02c; stroke: #2ca02c"/>
     <use xlink:href="#m34c34f10bd" x="418.374414" y="276.677975" style="fill: #2ca02c; stroke: #2ca02c"/>
     <use xlink:href="#m34c34f10bd" x="428.726919" y="283.851303" style="fill: #2ca02c; stroke: #2ca02c"/>
     <use xlink:href="#m34c34f10bd" x="439.079424" y="291.024632" style="fill: #2ca02c; stroke: #2ca02c"/>
     <use xlink:href="#m34c34f10bd" x="449.431928" y="298.197961" style="fill: #2ca02c; stroke: #2ca02c"/>
     <use xlink:href="#m34c34f10bd" x="459.784433" y="305.37129" style="fill: #2ca02c; stroke: #2ca02c"/>
     <use xlink:href="#m34c34f10bd" x="470.136938" y="312.544619" style="fill: #2ca02c; stroke: #2ca02c"/>
     <use xlink:href="#m34c34f10bd" x="480.489442" y="319.717947" style="fill: #2ca02c; stroke: #2ca02c"/>
     <use xlink:href="#m34c34f10bd" x="490.841947" y="326.891276" style="fill: #2ca02c; stroke: #2ca02c"/>
     <use xlink:href="#m34c34f10bd" x="501.194452" y="334.064605" style="fill: #2ca02c; stroke: #2ca02c"/>
     <use xlink:href="#m34c34f10bd" x="511.546956" y="341.237934" style="fill: #2ca02c; stroke: #2ca02c"/>
     <use xlink:href="#m34c34f10bd" x="521.899461" y="348.411262" style="fill: #2ca02c; stroke: #2ca02c"/>
     <use xlink:href="#m34c34f10bd" x="532.251965" y="355.584591" style="fill: #2ca02c; stroke: #2ca02c"/>
     <use xlink:href="#m34c34f10bd" x="542.60447" y="362.75792" style="fill: #2ca02c; stroke: #2ca02c"/>
     <use xlink:href="#m34c34f10bd" x="552.956975" y="369.931249" style="fill: #2ca02c; stroke: #2ca02c"/>
     <use xlink:href="#m34c34f10bd" x="563.309479" y="377.104577" style="fill: #2ca02c; stroke: #2ca02c"/>
     <use xlink:href="#m34c34f10bd" x="573.661984" y="384.277906" style="fill: #2ca02c; stroke: #2ca02c"/>
     <use xlink:href="#m34c34f10bd" x="584.014489" y="391.451235" style="fill: #2ca02c; stroke: #2ca02c"/>
    </g>
   </g>
   <g id="patch_3">
    <path d="M 51.378125 410.398125 
L 51.378125 22.318125 
" style="fill: none; stroke: #000000; stroke-width: 0.8; stroke-linejoin: miter; stroke-linecap: square"/>
   </g>
   <g id="patch_4">
    <path d="M 609.378125 410.398125 
L 609.378125 22.318125 
" style="fill: none; stroke: #000000; stroke-width: 0.8; stroke-linejoin: miter; stroke-linecap: square"/>
   </g>
   <g id="patch_5">
    <path d="M 51.378125 410.398125 
L 609.378125 410.398125 
" style="fill: none; stroke: #000000; stroke-width: 0.8; stroke-linejoin: miter; stroke-linecap: square"/>
   </g>
   <g id="patch_6">
    <path d="M 51.378125 22.318125 
L 609.378125 22.318125 
" style="fill: none; stroke: #000000; stroke-width: 0.8; stroke-linejoin: miter; stroke-linecap: square"/>
   </g>
   <g id="text_16">
    <!-- Variance-optimized GDL in the low privacy regime. Delta = 100 -->
    <g transform="translate(139.73375 16.318125) scale(0.12 -0.12)">
     <defs>
      <path id="DejaVuSans-56" d="M 1831 0 
L 50 4666 
L 709 4666 
L 2188 738 
L 3669 4666 
L 4325 4666 
L 2547 0 
L 1831 0 
z
" transform="scale(0.015625)"/>
      <path id="DejaVuSans-2d" d="M 313 2009 
L 1997 2009 
L 1997 1497 
L 313 1497 
L 313 2009 
z
" transform="scale(0.015625)"/>
      <path id="DejaVuSans-74" d="M 1172 4494 
L 1172 3500 
L 2356 3500 
L 2356 3053 
L 1172 3053 
L 1172 1153 
Q 1172 725 1289 603 
Q 1406 481 1766 481 
L 2356 481 
L 2356 0 
L 1766 0 
Q 1100 0 847 248 
Q 594 497 594 1153 
L 594 3053 
L 172 3053 
L 172 3500 
L 594 3500 
L 594 4494 
L 1172 4494 
z
" transform="scale(0.015625)"/>
      <path id="DejaVuSans-6d" d="M 3328 2828 
Q 3544 3216 3844 3400 
Q 4144 3584 4550 3584 
Q 5097 3584 5394 3201 
Q 5691 2819 5691 2113 
L 5691 0 
L 5113 0 
L 5113 2094 
Q 5113 2597 4934 2840 
Q 4756 3084 4391 3084 
Q 3944 3084 3684 2787 
Q 3425 2491 3425 1978 
L 3425 0 
L 2847 0 
L 2847 2094 
Q 2847 2600 2669 2842 
Q 2491 3084 2119 3084 
Q 1678 3084 1418 2786 
Q 1159 2488 1159 1978 
L 1159 0 
L 581 0 
L 581 3500 
L 1159 3500 
L 1159 2956 
Q 1356 3278 1631 3431 
Q 1906 3584 2284 3584 
Q 2666 3584 2933 3390 
Q 3200 3197 3328 2828 
z
" transform="scale(0.015625)"/>
      <path id="DejaVuSans-7a" d="M 353 3500 
L 3084 3500 
L 3084 2975 
L 922 459 
L 3084 459 
L 3084 0 
L 275 0 
L 275 525 
L 2438 3041 
L 353 3041 
L 353 3500 
z
" transform="scale(0.015625)"/>
      <path id="DejaVuSans-64" d="M 2906 2969 
L 2906 4863 
L 3481 4863 
L 3481 0 
L 2906 0 
L 2906 525 
Q 2725 213 2448 61 
Q 2172 -91 1784 -91 
Q 1150 -91 751 415 
Q 353 922 353 1747 
Q 353 2572 751 3078 
Q 1150 3584 1784 3584 
Q 2172 3584 2448 3432 
Q 2725 3281 2906 2969 
z
M 947 1747 
Q 947 1113 1208 752 
Q 1469 391 1925 391 
Q 2381 391 2643 752 
Q 2906 1113 2906 1747 
Q 2906 2381 2643 2742 
Q 2381 3103 1925 3103 
Q 1469 3103 1208 2742 
Q 947 2381 947 1747 
z
" transform="scale(0.015625)"/>
      <path id="DejaVuSans-20" transform="scale(0.015625)"/>
      <path id="DejaVuSans-47" d="M 3809 666 
L 3809 1919 
L 2778 1919 
L 2778 2438 
L 4434 2438 
L 4434 434 
Q 4069 175 3628 42 
Q 3188 -91 2688 -91 
Q 1594 -91 976 548 
Q 359 1188 359 2328 
Q 359 3472 976 4111 
Q 1594 4750 2688 4750 
Q 3144 4750 3555 4637 
Q 3966 4525 4313 4306 
L 4313 3634 
Q 3963 3931 3569 4081 
Q 3175 4231 2741 4231 
Q 1884 4231 1454 3753 
Q 1025 3275 1025 2328 
Q 1025 1384 1454 906 
Q 1884 428 2741 428 
Q 3075 428 3337 486 
Q 3600 544 3809 666 
z
" transform="scale(0.015625)"/>
      <path id="DejaVuSans-44" d="M 1259 4147 
L 1259 519 
L 2022 519 
Q 2988 519 3436 956 
Q 3884 1394 3884 2338 
Q 3884 3275 3436 3711 
Q 2988 4147 2022 4147 
L 1259 4147 
z
M 628 4666 
L 1925 4666 
Q 3281 4666 3915 4102 
Q 4550 3538 4550 2338 
Q 4550 1131 3912 565 
Q 3275 0 1925 0 
L 628 0 
L 628 4666 
z
" transform="scale(0.015625)"/>
      <path id="DejaVuSans-4c" d="M 628 4666 
L 1259 4666 
L 1259 531 
L 3531 531 
L 3531 0 
L 628 0 
L 628 4666 
z
" transform="scale(0.015625)"/>
      <path id="DejaVuSans-68" d="M 3513 2113 
L 3513 0 
L 2938 0 
L 2938 2094 
Q 2938 2591 2744 2837 
Q 2550 3084 2163 3084 
Q 1697 3084 1428 2787 
Q 1159 2491 1159 1978 
L 1159 0 
L 581 0 
L 581 4863 
L 1159 4863 
L 1159 2956 
Q 1366 3272 1645 3428 
Q 1925 3584 2291 3584 
Q 2894 3584 3203 3211 
Q 3513 2838 3513 2113 
z
" transform="scale(0.015625)"/>
      <path id="DejaVuSans-77" d="M 269 3500 
L 844 3500 
L 1563 769 
L 2278 3500 
L 2956 3500 
L 3675 769 
L 4391 3500 
L 4966 3500 
L 4050 0 
L 3372 0 
L 2619 2869 
L 1863 0 
L 1184 0 
L 269 3500 
z
" transform="scale(0.015625)"/>
      <path id="DejaVuSans-79" d="M 2059 -325 
Q 1816 -950 1584 -1140 
Q 1353 -1331 966 -1331 
L 506 -1331 
L 506 -850 
L 844 -850 
Q 1081 -850 1212 -737 
Q 1344 -625 1503 -206 
L 1606 56 
L 191 3500 
L 800 3500 
L 1894 763 
L 2988 3500 
L 3597 3500 
L 2059 -325 
z
" transform="scale(0.015625)"/>
      <path id="DejaVuSans-67" d="M 2906 1791 
Q 2906 2416 2648 2759 
Q 2391 3103 1925 3103 
Q 1463 3103 1205 2759 
Q 947 2416 947 1791 
Q 947 1169 1205 825 
Q 1463 481 1925 481 
Q 2391 481 2648 825 
Q 2906 1169 2906 1791 
z
M 3481 434 
Q 3481 -459 3084 -895 
Q 2688 -1331 1869 -1331 
Q 1566 -1331 1297 -1286 
Q 1028 -1241 775 -1147 
L 775 -588 
Q 1028 -725 1275 -790 
Q 1522 -856 1778 -856 
Q 2344 -856 2625 -561 
Q 2906 -266 2906 331 
L 2906 616 
Q 2728 306 2450 153 
Q 2172 0 1784 0 
Q 1141 0 747 490 
Q 353 981 353 1791 
Q 353 2603 747 3093 
Q 1141 3584 1784 3584 
Q 2172 3584 2450 3431 
Q 2728 3278 2906 2969 
L 2906 3500 
L 3481 3500 
L 3481 434 
z
" transform="scale(0.015625)"/>
      <path id="DejaVuSans-2e" d="M 684 794 
L 1344 794 
L 1344 0 
L 684 0 
L 684 794 
z
" transform="scale(0.015625)"/>
      <path id="DejaVuSans-3d" d="M 678 2906 
L 4684 2906 
L 4684 2381 
L 678 2381 
L 678 2906 
z
M 678 1631 
L 4684 1631 
L 4684 1100 
L 678 1100 
L 678 1631 
z
" transform="scale(0.015625)"/>
     </defs>
     <use xlink:href="#DejaVuSans-56"/>
     <use xlink:href="#DejaVuSans-61" x="60.658203"/>
     <use xlink:href="#DejaVuSans-72" x="121.9375"/>
     <use xlink:href="#DejaVuSans-69" x="163.050781"/>
     <use xlink:href="#DejaVuSans-61" x="190.833984"/>
     <use xlink:href="#DejaVuSans-6e" x="252.113281"/>
     <use xlink:href="#DejaVuSans-63" x="315.492188"/>
     <use xlink:href="#DejaVuSans-65" x="370.472656"/>
     <use xlink:href="#DejaVuSans-2d" x="431.996094"/>
     <use xlink:href="#DejaVuSans-6f" x="469.955078"/>
     <use xlink:href="#DejaVuSans-70" x="531.136719"/>
     <use xlink:href="#DejaVuSans-74" x="594.613281"/>
     <use xlink:href="#DejaVuSans-69" x="633.822266"/>
     <use xlink:href="#DejaVuSans-6d" x="661.605469"/>
     <use xlink:href="#DejaVuSans-69" x="759.017578"/>
     <use xlink:href="#DejaVuSans-7a" x="786.800781"/>
     <use xlink:href="#DejaVuSans-65" x="839.291016"/>
     <use xlink:href="#DejaVuSans-64" x="900.814453"/>
     <use xlink:href="#DejaVuSans-20" x="964.291016"/>
     <use xlink:href="#DejaVuSans-47" x="996.078125"/>
     <use xlink:href="#DejaVuSans-44" x="1073.568359"/>
     <use xlink:href="#DejaVuSans-4c" x="1150.570312"/>
     <use xlink:href="#DejaVuSans-20" x="1206.283203"/>
     <use xlink:href="#DejaVuSans-69" x="1238.070312"/>
     <use xlink:href="#DejaVuSans-6e" x="1265.853516"/>
     <use xlink:href="#DejaVuSans-20" x="1329.232422"/>
     <use xlink:href="#DejaVuSans-74" x="1361.019531"/>
     <use xlink:href="#DejaVuSans-68" x="1400.228516"/>
     <use xlink:href="#DejaVuSans-65" x="1463.607422"/>
     <use xlink:href="#DejaVuSans-20" x="1525.130859"/>
     <use xlink:href="#DejaVuSans-6c" x="1556.917969"/>
     <use xlink:href="#DejaVuSans-6f" x="1584.701172"/>
     <use xlink:href="#DejaVuSans-77" x="1645.882812"/>
     <use xlink:href="#DejaVuSans-20" x="1727.669922"/>
     <use xlink:href="#DejaVuSans-70" x="1759.457031"/>
     <use xlink:href="#DejaVuSans-72" x="1822.933594"/>
     <use xlink:href="#DejaVuSans-69" x="1864.046875"/>
     <use xlink:href="#DejaVuSans-76" x="1891.830078"/>
     <use xlink:href="#DejaVuSans-61" x="1951.009766"/>
     <use xlink:href="#DejaVuSans-63" x="2012.289062"/>
     <use xlink:href="#DejaVuSans-79" x="2067.269531"/>
     <use xlink:href="#DejaVuSans-20" x="2126.449219"/>
     <use xlink:href="#DejaVuSans-72" x="2158.236328"/>
     <use xlink:href="#DejaVuSans-65" x="2197.099609"/>
     <use xlink:href="#DejaVuSans-67" x="2258.623047"/>
     <use xlink:href="#DejaVuSans-69" x="2322.099609"/>
     <use xlink:href="#DejaVuSans-6d" x="2349.882812"/>
     <use xlink:href="#DejaVuSans-65" x="2447.294922"/>
     <use xlink:href="#DejaVuSans-2e" x="2508.818359"/>
     <use xlink:href="#DejaVuSans-20" x="2540.605469"/>
     <use xlink:href="#DejaVuSans-44" x="2572.392578"/>
     <use xlink:href="#DejaVuSans-65" x="2649.394531"/>
     <use xlink:href="#DejaVuSans-6c" x="2710.917969"/>
     <use xlink:href="#DejaVuSans-74" x="2738.701172"/>
     <use xlink:href="#DejaVuSans-61" x="2777.910156"/>
     <use xlink:href="#DejaVuSans-20" x="2839.189453"/>
     <use xlink:href="#DejaVuSans-3d" x="2870.976562"/>
     <use xlink:href="#DejaVuSans-20" x="2954.765625"/>
     <use xlink:href="#DejaVuSans-31" x="2986.552734"/>
     <use xlink:href="#DejaVuSans-30" x="3050.175781"/>
     <use xlink:href="#DejaVuSans-30" x="3113.798828"/>
    </g>
   </g>
   <g id="legend_1">
    <g id="patch_7">
     <path d="M 459.482813 74.3525 
L 602.378125 74.3525 
Q 604.378125 74.3525 604.378125 72.3525 
L 604.378125 29.318125 
Q 604.378125 27.318125 602.378125 27.318125 
L 459.482813 27.318125 
Q 457.482813 27.318125 457.482813 29.318125 
L 457.482813 72.3525 
Q 457.482813 74.3525 459.482813 74.3525 
z
" style="fill: #ffffff; opacity: 0.8; stroke: #cccccc; stroke-linejoin: miter"/>
    </g>
    <g id="line2d_30">
     <path d="M 461.482813 35.416562 
L 471.482813 35.416562 
L 481.482813 35.416562 
" style="fill: none; stroke: #1f77b4; stroke-width: 1.5; stroke-linecap: square"/>
    </g>
    <g id="text_17">
     <!-- GDL opt variance -->
     <g transform="translate(489.482813 38.916562) scale(0.1 -0.1)">
      <use xlink:href="#DejaVuSans-47"/>
      <use xlink:href="#DejaVuSans-44" x="77.490234"/>
      <use xlink:href="#DejaVuSans-4c" x="154.492188"/>
      <use xlink:href="#DejaVuSans-20" x="210.205078"/>
      <use xlink:href="#DejaVuSans-6f" x="241.992188"/>
      <use xlink:href="#DejaVuSans-70" x="303.173828"/>
      <use xlink:href="#DejaVuSans-74" x="366.650391"/>
      <use xlink:href="#DejaVuSans-20" x="405.859375"/>
      <use xlink:href="#DejaVuSans-76" x="437.646484"/>
      <use xlink:href="#DejaVuSans-61" x="496.826172"/>
      <use xlink:href="#DejaVuSans-72" x="558.105469"/>
      <use xlink:href="#DejaVuSans-69" x="599.21875"/>
      <use xlink:href="#DejaVuSans-61" x="627.001953"/>
      <use xlink:href="#DejaVuSans-6e" x="688.28125"/>
      <use xlink:href="#DejaVuSans-63" x="751.660156"/>
      <use xlink:href="#DejaVuSans-65" x="806.640625"/>
     </g>
    </g>
    <g id="line2d_31">
     <path d="M 461.482813 50.094687 
L 471.482813 50.094687 
L 481.482813 50.094687 
" style="fill: none; stroke-dasharray: 5.55,2.4; stroke-dashoffset: 0; stroke: #ff7f0e; stroke-width: 1.5"/>
    </g>
    <g id="text_18">
     <!-- DLap -->
     <g transform="translate(489.482813 53.594687) scale(0.1 -0.1)">
      <use xlink:href="#DejaVuSans-44"/>
      <use xlink:href="#DejaVuSans-4c" x="77.001953"/>
      <use xlink:href="#DejaVuSans-61" x="132.714844"/>
      <use xlink:href="#DejaVuSans-70" x="193.994141"/>
     </g>
    </g>
    <g id="line2d_32">
     <g>
      <use xlink:href="#m34c34f10bd" x="471.482813" y="64.772812" style="fill: #2ca02c; stroke: #2ca02c"/>
     </g>
    </g>
    <g id="text_19">
     <!-- 4 * e^{-eps} Delta^3 -->
     <g transform="translate(489.482813 68.272812) scale(0.1 -0.1)">
      <defs>
       <path id="DejaVuSans-2a" d="M 3009 3897 
L 1888 3291 
L 3009 2681 
L 2828 2375 
L 1778 3009 
L 1778 1831 
L 1422 1831 
L 1422 3009 
L 372 2375 
L 191 2681 
L 1313 3291 
L 191 3897 
L 372 4206 
L 1422 3572 
L 1422 4750 
L 1778 4750 
L 1778 3572 
L 2828 4206 
L 3009 3897 
z
" transform="scale(0.015625)"/>
       <path id="DejaVuSans-5e" d="M 2988 4666 
L 4684 2925 
L 4056 2925 
L 2681 4159 
L 1306 2925 
L 678 2925 
L 2375 4666 
L 2988 4666 
z
" transform="scale(0.015625)"/>
       <path id="DejaVuSans-7b" d="M 3272 -594 
L 3272 -1044 
L 3078 -1044 
Q 2300 -1044 2036 -812 
Q 1772 -581 1772 109 
L 1772 856 
Q 1772 1328 1603 1509 
Q 1434 1691 991 1691 
L 800 1691 
L 800 2138 
L 991 2138 
Q 1438 2138 1605 2317 
Q 1772 2497 1772 2963 
L 1772 3713 
Q 1772 4403 2036 4633 
Q 2300 4863 3078 4863 
L 3272 4863 
L 3272 4416 
L 3059 4416 
Q 2619 4416 2484 4278 
Q 2350 4141 2350 3700 
L 2350 2925 
Q 2350 2434 2208 2212 
Q 2066 1991 1722 1913 
Q 2069 1828 2209 1606 
Q 2350 1384 2350 897 
L 2350 122 
Q 2350 -319 2484 -456 
Q 2619 -594 3059 -594 
L 3272 -594 
z
" transform="scale(0.015625)"/>
       <path id="DejaVuSans-7d" d="M 800 -594 
L 1019 -594 
Q 1456 -594 1589 -459 
Q 1722 -325 1722 122 
L 1722 897 
Q 1722 1384 1862 1606 
Q 2003 1828 2350 1913 
Q 2003 1991 1862 2212 
Q 1722 2434 1722 2925 
L 1722 3700 
Q 1722 4144 1589 4280 
Q 1456 4416 1019 4416 
L 800 4416 
L 800 4863 
L 997 4863 
Q 1775 4863 2036 4633 
Q 2297 4403 2297 3713 
L 2297 2963 
Q 2297 2497 2465 2317 
Q 2634 2138 3078 2138 
L 3272 2138 
L 3272 1691 
L 3078 1691 
Q 2634 1691 2465 1509 
Q 2297 1328 2297 856 
L 2297 109 
Q 2297 -581 2036 -812 
Q 1775 -1044 997 -1044 
L 800 -1044 
L 800 -594 
z
" transform="scale(0.015625)"/>
      </defs>
      <use xlink:href="#DejaVuSans-34"/>
      <use xlink:href="#DejaVuSans-20" x="63.623047"/>
      <use xlink:href="#DejaVuSans-2a" x="95.410156"/>
      <use xlink:href="#DejaVuSans-20" x="145.410156"/>
      <use xlink:href="#DejaVuSans-65" x="177.197266"/>
      <use xlink:href="#DejaVuSans-5e" x="238.720703"/>
      <use xlink:href="#DejaVuSans-7b" x="322.509766"/>
      <use xlink:href="#DejaVuSans-2d" x="386.132812"/>
      <use xlink:href="#DejaVuSans-65" x="422.216797"/>
      <use xlink:href="#DejaVuSans-70" x="483.740234"/>
      <use xlink:href="#DejaVuSans-73" x="547.216797"/>
      <use xlink:href="#DejaVuSans-7d" x="599.316406"/>
      <use xlink:href="#DejaVuSans-20" x="662.939453"/>
      <use xlink:href="#DejaVuSans-44" x="694.726562"/>
      <use xlink:href="#DejaVuSans-65" x="771.728516"/>
      <use xlink:href="#DejaVuSans-6c" x="833.251953"/>
      <use xlink:href="#DejaVuSans-74" x="861.035156"/>
      <use xlink:href="#DejaVuSans-61" x="900.244141"/>
      <use xlink:href="#DejaVuSans-5e" x="961.523438"/>
      <use xlink:href="#DejaVuSans-33" x="1045.3125"/>
     </g>
    </g>
   </g>
  </g>
 </g>
 <defs>
  <clipPath id="pfd96008041">
   <rect x="51.378125" y="22.318125" width="558" height="388.08"/>
  </clipPath>
 </defs>
</svg>
