<?xml version="1.0" encoding="utf-8" standalone="no"?>
<!DOCTYPE svg PUBLIC "-//W3C//DTD SVG 1.1//EN"
  "http://www.w3.org/Graphics/SVG/1.1/DTD/svg11.dtd">
<svg xmlns:xlink="http://www.w3.org/1999/xlink" width="608.98125pt" height="266.51625pt" viewBox="0 0 608.98125 266.51625" xmlns="http://www.w3.org/2000/svg" version="1.1">
 <metadata>
  <rdf:RDF xmlns:dc="http://purl.org/dc/elements/1.1/" xmlns:cc="http://creativecommons.org/ns#" xmlns:rdf="http://www.w3.org/1999/02/22-rdf-syntax-ns#">
   <cc:Work>
    <dc:type rdf:resource="http://purl.org/dc/dcmitype/StillImage"/>
    <dc:date>2025-08-07T00:39:35.330890</dc:date>
    <dc:format>image/svg+xml</dc:format>
    <dc:creator>
     <cc:Agent>
      <dc:title>Matplotlib v3.10.0, https://matplotlib.org/</dc:title>
     </cc:Agent>
    </dc:creator>
   </cc:Work>
  </rdf:RDF>
 </metadata>
 <defs>
  <style type="text/css">*{stroke-linejoin: round; stroke-linecap: butt}</style>
 </defs>
 <g id="figure_1">
  <g id="patch_1">
   <path d="M 0 266.51625 
L 608.98125 266.51625 
L 608.98125 0 
L 0 0 
z
" style="fill: #ffffff"/>
  </g>
  <g id="axes_1">
   <g id="patch_2">
    <path d="M 43.78125 228.96 
L 297.417614 228.96 
L 297.417614 7.2 
L 43.78125 7.2 
z
" style="fill: #ffffff"/>
   </g>
   <g id="matplotlib.axis_1">
    <g id="xtick_1">
     <g id="line2d_1">
      <path d="M 52.9811 228.96 
L 52.9811 7.2 
" clip-path="url(#p8c51b33426)" style="fill: none; stroke: #b0b0b0; stroke-width: 0.8; stroke-linecap: square"/>
     </g>
     <g id="line2d_2">
      <defs>
       <path id="m24ec9b4bcb" d="M 0 0 
L 0 3.5 
" style="stroke: #000000; stroke-width: 0.8"/>
      </defs>
      <g>
       <use xlink:href="#m24ec9b4bcb" x="52.9811" y="228.96" style="stroke: #000000; stroke-width: 0.8"/>
      </g>
     </g>
     <g id="text_1">
      <!-- 0.0 -->
      <g transform="translate(45.029537 243.558437) scale(0.1 -0.1)">
       <defs>
        <path id="DejaVuSans-30" d="M 2034 4250 
Q 1547 4250 1301 3770 
Q 1056 3291 1056 2328 
Q 1056 1369 1301 889 
Q 1547 409 2034 409 
Q 2525 409 2770 889 
Q 3016 1369 3016 2328 
Q 3016 3291 2770 3770 
Q 2525 4250 2034 4250 
z
M 2034 4750 
Q 2819 4750 3233 4129 
Q 3647 3509 3647 2328 
Q 3647 1150 3233 529 
Q 2819 -91 2034 -91 
Q 1250 -91 836 529 
Q 422 1150 422 2328 
Q 422 3509 836 4129 
Q 1250 4750 2034 4750 
z
" transform="scale(0.015625)"/>
        <path id="DejaVuSans-2e" d="M 684 794 
L 1344 794 
L 1344 0 
L 684 0 
L 684 794 
z
" transform="scale(0.015625)"/>
       </defs>
       <use xlink:href="#DejaVuSans-30"/>
       <use xlink:href="#DejaVuSans-2e" transform="translate(63.623047 0)"/>
       <use xlink:href="#DejaVuSans-30" transform="translate(95.410156 0)"/>
      </g>
     </g>
    </g>
    <g id="xtick_2">
     <g id="line2d_3">
      <path d="M 99.562617 228.96 
L 99.562617 7.2 
" clip-path="url(#p8c51b33426)" style="fill: none; stroke: #b0b0b0; stroke-width: 0.8; stroke-linecap: square"/>
     </g>
     <g id="line2d_4">
      <g>
       <use xlink:href="#m24ec9b4bcb" x="99.562617" y="228.96" style="stroke: #000000; stroke-width: 0.8"/>
      </g>
     </g>
     <g id="text_2">
      <!-- 0.2 -->
      <g transform="translate(91.611055 243.558437) scale(0.1 -0.1)">
       <defs>
        <path id="DejaVuSans-32" d="M 1228 531 
L 3431 531 
L 3431 0 
L 469 0 
L 469 531 
Q 828 903 1448 1529 
Q 2069 2156 2228 2338 
Q 2531 2678 2651 2914 
Q 2772 3150 2772 3378 
Q 2772 3750 2511 3984 
Q 2250 4219 1831 4219 
Q 1534 4219 1204 4116 
Q 875 4013 500 3803 
L 500 4441 
Q 881 4594 1212 4672 
Q 1544 4750 1819 4750 
Q 2544 4750 2975 4387 
Q 3406 4025 3406 3419 
Q 3406 3131 3298 2873 
Q 3191 2616 2906 2266 
Q 2828 2175 2409 1742 
Q 1991 1309 1228 531 
z
" transform="scale(0.015625)"/>
       </defs>
       <use xlink:href="#DejaVuSans-30"/>
       <use xlink:href="#DejaVuSans-2e" transform="translate(63.623047 0)"/>
       <use xlink:href="#DejaVuSans-32" transform="translate(95.410156 0)"/>
      </g>
     </g>
    </g>
    <g id="xtick_3">
     <g id="line2d_5">
      <path d="M 146.144135 228.96 
L 146.144135 7.2 
" clip-path="url(#p8c51b33426)" style="fill: none; stroke: #b0b0b0; stroke-width: 0.8; stroke-linecap: square"/>
     </g>
     <g id="line2d_6">
      <g>
       <use xlink:href="#m24ec9b4bcb" x="146.144135" y="228.96" style="stroke: #000000; stroke-width: 0.8"/>
      </g>
     </g>
     <g id="text_3">
      <!-- 0.4 -->
      <g transform="translate(138.192573 243.558437) scale(0.1 -0.1)">
       <defs>
        <path id="DejaVuSans-34" d="M 2419 4116 
L 825 1625 
L 2419 1625 
L 2419 4116 
z
M 2253 4666 
L 3047 4666 
L 3047 1625 
L 3713 1625 
L 3713 1100 
L 3047 1100 
L 3047 0 
L 2419 0 
L 2419 1100 
L 313 1100 
L 313 1709 
L 2253 4666 
z
" transform="scale(0.015625)"/>
       </defs>
       <use xlink:href="#DejaVuSans-30"/>
       <use xlink:href="#DejaVuSans-2e" transform="translate(63.623047 0)"/>
       <use xlink:href="#DejaVuSans-34" transform="translate(95.410156 0)"/>
      </g>
     </g>
    </g>
    <g id="xtick_4">
     <g id="line2d_7">
      <path d="M 192.725653 228.96 
L 192.725653 7.2 
" clip-path="url(#p8c51b33426)" style="fill: none; stroke: #b0b0b0; stroke-width: 0.8; stroke-linecap: square"/>
     </g>
     <g id="line2d_8">
      <g>
       <use xlink:href="#m24ec9b4bcb" x="192.725653" y="228.96" style="stroke: #000000; stroke-width: 0.8"/>
      </g>
     </g>
     <g id="text_4">
      <!-- 0.6 -->
      <g transform="translate(184.77409 243.558437) scale(0.1 -0.1)">
       <defs>
        <path id="DejaVuSans-36" d="M 2113 2584 
Q 1688 2584 1439 2293 
Q 1191 2003 1191 1497 
Q 1191 994 1439 701 
Q 1688 409 2113 409 
Q 2538 409 2786 701 
Q 3034 994 3034 1497 
Q 3034 2003 2786 2293 
Q 2538 2584 2113 2584 
z
M 3366 4563 
L 3366 3988 
Q 3128 4100 2886 4159 
Q 2644 4219 2406 4219 
Q 1781 4219 1451 3797 
Q 1122 3375 1075 2522 
Q 1259 2794 1537 2939 
Q 1816 3084 2150 3084 
Q 2853 3084 3261 2657 
Q 3669 2231 3669 1497 
Q 3669 778 3244 343 
Q 2819 -91 2113 -91 
Q 1303 -91 875 529 
Q 447 1150 447 2328 
Q 447 3434 972 4092 
Q 1497 4750 2381 4750 
Q 2619 4750 2861 4703 
Q 3103 4656 3366 4563 
z
" transform="scale(0.015625)"/>
       </defs>
       <use xlink:href="#DejaVuSans-30"/>
       <use xlink:href="#DejaVuSans-2e" transform="translate(63.623047 0)"/>
       <use xlink:href="#DejaVuSans-36" transform="translate(95.410156 0)"/>
      </g>
     </g>
    </g>
    <g id="xtick_5">
     <g id="line2d_9">
      <path d="M 239.30717 228.96 
L 239.30717 7.2 
" clip-path="url(#p8c51b33426)" style="fill: none; stroke: #b0b0b0; stroke-width: 0.8; stroke-linecap: square"/>
     </g>
     <g id="line2d_10">
      <g>
       <use xlink:href="#m24ec9b4bcb" x="239.30717" y="228.96" style="stroke: #000000; stroke-width: 0.8"/>
      </g>
     </g>
     <g id="text_5">
      <!-- 0.8 -->
      <g transform="translate(231.355608 243.558437) scale(0.1 -0.1)">
       <defs>
        <path id="DejaVuSans-38" d="M 2034 2216 
Q 1584 2216 1326 1975 
Q 1069 1734 1069 1313 
Q 1069 891 1326 650 
Q 1584 409 2034 409 
Q 2484 409 2743 651 
Q 3003 894 3003 1313 
Q 3003 1734 2745 1975 
Q 2488 2216 2034 2216 
z
M 1403 2484 
Q 997 2584 770 2862 
Q 544 3141 544 3541 
Q 544 4100 942 4425 
Q 1341 4750 2034 4750 
Q 2731 4750 3128 4425 
Q 3525 4100 3525 3541 
Q 3525 3141 3298 2862 
Q 3072 2584 2669 2484 
Q 3125 2378 3379 2068 
Q 3634 1759 3634 1313 
Q 3634 634 3220 271 
Q 2806 -91 2034 -91 
Q 1263 -91 848 271 
Q 434 634 434 1313 
Q 434 1759 690 2068 
Q 947 2378 1403 2484 
z
M 1172 3481 
Q 1172 3119 1398 2916 
Q 1625 2713 2034 2713 
Q 2441 2713 2670 2916 
Q 2900 3119 2900 3481 
Q 2900 3844 2670 4047 
Q 2441 4250 2034 4250 
Q 1625 4250 1398 4047 
Q 1172 3844 1172 3481 
z
" transform="scale(0.015625)"/>
       </defs>
       <use xlink:href="#DejaVuSans-30"/>
       <use xlink:href="#DejaVuSans-2e" transform="translate(63.623047 0)"/>
       <use xlink:href="#DejaVuSans-38" transform="translate(95.410156 0)"/>
      </g>
     </g>
    </g>
    <g id="xtick_6">
     <g id="line2d_11">
      <path d="M 285.888688 228.96 
L 285.888688 7.2 
" clip-path="url(#p8c51b33426)" style="fill: none; stroke: #b0b0b0; stroke-width: 0.8; stroke-linecap: square"/>
     </g>
     <g id="line2d_12">
      <g>
       <use xlink:href="#m24ec9b4bcb" x="285.888688" y="228.96" style="stroke: #000000; stroke-width: 0.8"/>
      </g>
     </g>
     <g id="text_6">
      <!-- 1.0 -->
      <g transform="translate(277.937126 243.558437) scale(0.1 -0.1)">
       <defs>
        <path id="DejaVuSans-31" d="M 794 531 
L 1825 531 
L 1825 4091 
L 703 3866 
L 703 4441 
L 1819 4666 
L 2450 4666 
L 2450 531 
L 3481 531 
L 3481 0 
L 794 0 
L 794 531 
z
" transform="scale(0.015625)"/>
       </defs>
       <use xlink:href="#DejaVuSans-31"/>
       <use xlink:href="#DejaVuSans-2e" transform="translate(63.623047 0)"/>
       <use xlink:href="#DejaVuSans-30" transform="translate(95.410156 0)"/>
      </g>
     </g>
    </g>
    <g id="text_7">
     <!-- epsilon -->
     <g transform="translate(152.737713 257.236562) scale(0.1 -0.1)">
      <defs>
       <path id="DejaVuSans-65" d="M 3597 1894 
L 3597 1613 
L 953 1613 
Q 991 1019 1311 708 
Q 1631 397 2203 397 
Q 2534 397 2845 478 
Q 3156 559 3463 722 
L 3463 178 
Q 3153 47 2828 -22 
Q 2503 -91 2169 -91 
Q 1331 -91 842 396 
Q 353 884 353 1716 
Q 353 2575 817 3079 
Q 1281 3584 2069 3584 
Q 2775 3584 3186 3129 
Q 3597 2675 3597 1894 
z
M 3022 2063 
Q 3016 2534 2758 2815 
Q 2500 3097 2075 3097 
Q 1594 3097 1305 2825 
Q 1016 2553 972 2059 
L 3022 2063 
z
" transform="scale(0.015625)"/>
       <path id="DejaVuSans-70" d="M 1159 525 
L 1159 -1331 
L 581 -1331 
L 581 3500 
L 1159 3500 
L 1159 2969 
Q 1341 3281 1617 3432 
Q 1894 3584 2278 3584 
Q 2916 3584 3314 3078 
Q 3713 2572 3713 1747 
Q 3713 922 3314 415 
Q 2916 -91 2278 -91 
Q 1894 -91 1617 61 
Q 1341 213 1159 525 
z
M 3116 1747 
Q 3116 2381 2855 2742 
Q 2594 3103 2138 3103 
Q 1681 3103 1420 2742 
Q 1159 2381 1159 1747 
Q 1159 1113 1420 752 
Q 1681 391 2138 391 
Q 2594 391 2855 752 
Q 3116 1113 3116 1747 
z
" transform="scale(0.015625)"/>
       <path id="DejaVuSans-73" d="M 2834 3397 
L 2834 2853 
Q 2591 2978 2328 3040 
Q 2066 3103 1784 3103 
Q 1356 3103 1142 2972 
Q 928 2841 928 2578 
Q 928 2378 1081 2264 
Q 1234 2150 1697 2047 
L 1894 2003 
Q 2506 1872 2764 1633 
Q 3022 1394 3022 966 
Q 3022 478 2636 193 
Q 2250 -91 1575 -91 
Q 1294 -91 989 -36 
Q 684 19 347 128 
L 347 722 
Q 666 556 975 473 
Q 1284 391 1588 391 
Q 1994 391 2212 530 
Q 2431 669 2431 922 
Q 2431 1156 2273 1281 
Q 2116 1406 1581 1522 
L 1381 1569 
Q 847 1681 609 1914 
Q 372 2147 372 2553 
Q 372 3047 722 3315 
Q 1072 3584 1716 3584 
Q 2034 3584 2315 3537 
Q 2597 3491 2834 3397 
z
" transform="scale(0.015625)"/>
       <path id="DejaVuSans-69" d="M 603 3500 
L 1178 3500 
L 1178 0 
L 603 0 
L 603 3500 
z
M 603 4863 
L 1178 4863 
L 1178 4134 
L 603 4134 
L 603 4863 
z
" transform="scale(0.015625)"/>
       <path id="DejaVuSans-6c" d="M 603 4863 
L 1178 4863 
L 1178 0 
L 603 0 
L 603 4863 
z
" transform="scale(0.015625)"/>
       <path id="DejaVuSans-6f" d="M 1959 3097 
Q 1497 3097 1228 2736 
Q 959 2375 959 1747 
Q 959 1119 1226 758 
Q 1494 397 1959 397 
Q 2419 397 2687 759 
Q 2956 1122 2956 1747 
Q 2956 2369 2687 2733 
Q 2419 3097 1959 3097 
z
M 1959 3584 
Q 2709 3584 3137 3096 
Q 3566 2609 3566 1747 
Q 3566 888 3137 398 
Q 2709 -91 1959 -91 
Q 1206 -91 779 398 
Q 353 888 353 1747 
Q 353 2609 779 3096 
Q 1206 3584 1959 3584 
z
" transform="scale(0.015625)"/>
       <path id="DejaVuSans-6e" d="M 3513 2113 
L 3513 0 
L 2938 0 
L 2938 2094 
Q 2938 2591 2744 2837 
Q 2550 3084 2163 3084 
Q 1697 3084 1428 2787 
Q 1159 2491 1159 1978 
L 1159 0 
L 581 0 
L 581 3500 
L 1159 3500 
L 1159 2956 
Q 1366 3272 1645 3428 
Q 1925 3584 2291 3584 
Q 2894 3584 3203 3211 
Q 3513 2838 3513 2113 
z
" transform="scale(0.015625)"/>
      </defs>
      <use xlink:href="#DejaVuSans-65"/>
      <use xlink:href="#DejaVuSans-70" transform="translate(61.523438 0)"/>
      <use xlink:href="#DejaVuSans-73" transform="translate(125 0)"/>
      <use xlink:href="#DejaVuSans-69" transform="translate(177.099609 0)"/>
      <use xlink:href="#DejaVuSans-6c" transform="translate(204.882812 0)"/>
      <use xlink:href="#DejaVuSans-6f" transform="translate(232.666016 0)"/>
      <use xlink:href="#DejaVuSans-6e" transform="translate(293.847656 0)"/>
     </g>
    </g>
   </g>
   <g id="matplotlib.axis_2">
    <g id="ytick_1">
     <g id="line2d_13">
      <path d="M 43.78125 218.890907 
L 297.417614 218.890907 
" clip-path="url(#p8c51b33426)" style="fill: none; stroke: #b0b0b0; stroke-width: 0.8; stroke-linecap: square"/>
     </g>
     <g id="line2d_14">
      <defs>
       <path id="mb15a9039d3" d="M 0 0 
L -3.5 0 
" style="stroke: #000000; stroke-width: 0.8"/>
      </defs>
      <g>
       <use xlink:href="#mb15a9039d3" x="43.78125" y="218.890907" style="stroke: #000000; stroke-width: 0.8"/>
      </g>
     </g>
     <g id="text_8">
      <!-- 0.0 -->
      <g transform="translate(20.878125 222.690126) scale(0.1 -0.1)">
       <use xlink:href="#DejaVuSans-30"/>
       <use xlink:href="#DejaVuSans-2e" transform="translate(63.623047 0)"/>
       <use xlink:href="#DejaVuSans-30" transform="translate(95.410156 0)"/>
      </g>
     </g>
    </g>
    <g id="ytick_2">
     <g id="line2d_15">
      <path d="M 43.78125 175.263246 
L 297.417614 175.263246 
" clip-path="url(#p8c51b33426)" style="fill: none; stroke: #b0b0b0; stroke-width: 0.8; stroke-linecap: square"/>
     </g>
     <g id="line2d_16">
      <g>
       <use xlink:href="#mb15a9039d3" x="43.78125" y="175.263246" style="stroke: #000000; stroke-width: 0.8"/>
      </g>
     </g>
     <g id="text_9">
      <!-- 0.1 -->
      <g transform="translate(20.878125 179.062465) scale(0.1 -0.1)">
       <use xlink:href="#DejaVuSans-30"/>
       <use xlink:href="#DejaVuSans-2e" transform="translate(63.623047 0)"/>
       <use xlink:href="#DejaVuSans-31" transform="translate(95.410156 0)"/>
      </g>
     </g>
    </g>
    <g id="ytick_3">
     <g id="line2d_17">
      <path d="M 43.78125 131.635585 
L 297.417614 131.635585 
" clip-path="url(#p8c51b33426)" style="fill: none; stroke: #b0b0b0; stroke-width: 0.8; stroke-linecap: square"/>
     </g>
     <g id="line2d_18">
      <g>
       <use xlink:href="#mb15a9039d3" x="43.78125" y="131.635585" style="stroke: #000000; stroke-width: 0.8"/>
      </g>
     </g>
     <g id="text_10">
      <!-- 0.2 -->
      <g transform="translate(20.878125 135.434804) scale(0.1 -0.1)">
       <use xlink:href="#DejaVuSans-30"/>
       <use xlink:href="#DejaVuSans-2e" transform="translate(63.623047 0)"/>
       <use xlink:href="#DejaVuSans-32" transform="translate(95.410156 0)"/>
      </g>
     </g>
    </g>
    <g id="ytick_4">
     <g id="line2d_19">
      <path d="M 43.78125 88.007924 
L 297.417614 88.007924 
" clip-path="url(#p8c51b33426)" style="fill: none; stroke: #b0b0b0; stroke-width: 0.8; stroke-linecap: square"/>
     </g>
     <g id="line2d_20">
      <g>
       <use xlink:href="#mb15a9039d3" x="43.78125" y="88.007924" style="stroke: #000000; stroke-width: 0.8"/>
      </g>
     </g>
     <g id="text_11">
      <!-- 0.3 -->
      <g transform="translate(20.878125 91.807143) scale(0.1 -0.1)">
       <defs>
        <path id="DejaVuSans-33" d="M 2597 2516 
Q 3050 2419 3304 2112 
Q 3559 1806 3559 1356 
Q 3559 666 3084 287 
Q 2609 -91 1734 -91 
Q 1441 -91 1130 -33 
Q 819 25 488 141 
L 488 750 
Q 750 597 1062 519 
Q 1375 441 1716 441 
Q 2309 441 2620 675 
Q 2931 909 2931 1356 
Q 2931 1769 2642 2001 
Q 2353 2234 1838 2234 
L 1294 2234 
L 1294 2753 
L 1863 2753 
Q 2328 2753 2575 2939 
Q 2822 3125 2822 3475 
Q 2822 3834 2567 4026 
Q 2313 4219 1838 4219 
Q 1578 4219 1281 4162 
Q 984 4106 628 3988 
L 628 4550 
Q 988 4650 1302 4700 
Q 1616 4750 1894 4750 
Q 2613 4750 3031 4423 
Q 3450 4097 3450 3541 
Q 3450 3153 3228 2886 
Q 3006 2619 2597 2516 
z
" transform="scale(0.015625)"/>
       </defs>
       <use xlink:href="#DejaVuSans-30"/>
       <use xlink:href="#DejaVuSans-2e" transform="translate(63.623047 0)"/>
       <use xlink:href="#DejaVuSans-33" transform="translate(95.410156 0)"/>
      </g>
     </g>
    </g>
    <g id="ytick_5">
     <g id="line2d_21">
      <path d="M 43.78125 44.380263 
L 297.417614 44.380263 
" clip-path="url(#p8c51b33426)" style="fill: none; stroke: #b0b0b0; stroke-width: 0.8; stroke-linecap: square"/>
     </g>
     <g id="line2d_22">
      <g>
       <use xlink:href="#mb15a9039d3" x="43.78125" y="44.380263" style="stroke: #000000; stroke-width: 0.8"/>
      </g>
     </g>
     <g id="text_12">
      <!-- 0.4 -->
      <g transform="translate(20.878125 48.179482) scale(0.1 -0.1)">
       <use xlink:href="#DejaVuSans-30"/>
       <use xlink:href="#DejaVuSans-2e" transform="translate(63.623047 0)"/>
       <use xlink:href="#DejaVuSans-34" transform="translate(95.410156 0)"/>
      </g>
     </g>
    </g>
    <g id="text_13">
     <!-- rho -->
     <g transform="translate(14.798438 126.276094) rotate(-90) scale(0.1 -0.1)">
      <defs>
       <path id="DejaVuSans-72" d="M 2631 2963 
Q 2534 3019 2420 3045 
Q 2306 3072 2169 3072 
Q 1681 3072 1420 2755 
Q 1159 2438 1159 1844 
L 1159 0 
L 581 0 
L 581 3500 
L 1159 3500 
L 1159 2956 
Q 1341 3275 1631 3429 
Q 1922 3584 2338 3584 
Q 2397 3584 2469 3576 
Q 2541 3569 2628 3553 
L 2631 2963 
z
" transform="scale(0.015625)"/>
       <path id="DejaVuSans-68" d="M 3513 2113 
L 3513 0 
L 2938 0 
L 2938 2094 
Q 2938 2591 2744 2837 
Q 2550 3084 2163 3084 
Q 1697 3084 1428 2787 
Q 1159 2491 1159 1978 
L 1159 0 
L 581 0 
L 581 4863 
L 1159 4863 
L 1159 2956 
Q 1366 3272 1645 3428 
Q 1925 3584 2291 3584 
Q 2894 3584 3203 3211 
Q 3513 2838 3513 2113 
z
" transform="scale(0.015625)"/>
      </defs>
      <use xlink:href="#DejaVuSans-72"/>
      <use xlink:href="#DejaVuSans-68" transform="translate(39.363281 0)"/>
      <use xlink:href="#DejaVuSans-6f" transform="translate(102.742188 0)"/>
     </g>
    </g>
   </g>
   <g id="line2d_23">
    <path d="M 55.310176 218.88 
L 57.639252 218.84728 
L 59.968327 218.792746 
L 62.297403 218.716402 
L 64.626479 218.618248 
L 66.955555 218.498287 
L 69.284631 218.356523 
L 71.613707 218.192957 
L 73.942783 218.007596 
L 76.271859 217.800443 
L 78.600934 217.571503 
L 80.93001 217.320782 
L 83.259086 217.048287 
L 85.588162 216.754024 
L 87.917238 216.438001 
L 90.246314 216.100225 
L 92.57539 215.740705 
L 94.904466 215.35945 
L 97.233542 214.956469 
L 99.562617 214.531773 
L 101.891693 214.085372 
L 104.220769 213.617276 
L 106.549845 213.127499 
L 108.878921 212.616052 
L 111.207997 212.082947 
L 113.537073 211.528198 
L 115.866149 210.951819 
L 118.195224 210.353825 
L 120.5243 209.734229 
L 122.853376 209.093047 
L 125.182452 208.430296 
L 127.511528 207.745991 
L 129.840604 207.04015 
L 132.16968 206.312791 
L 134.498756 205.56393 
L 136.827832 204.793587 
L 139.156907 204.001781 
L 141.485983 203.188531 
L 143.815059 202.353857 
L 146.144135 201.497781 
L 148.473211 200.620323 
L 150.802287 199.721504 
L 153.131363 198.801348 
L 155.460439 197.859876 
L 157.789514 196.897112 
L 160.11859 195.913079 
L 162.447666 194.907802 
L 164.776742 193.881305 
L 167.105818 192.833614 
L 169.434894 191.764754 
L 171.76397 190.674751 
L 174.093046 189.563633 
L 176.422122 188.431425 
L 178.751197 187.278157 
L 181.080273 186.103855 
L 183.409349 184.908549 
L 185.738425 183.692268 
L 188.067501 182.455041 
L 190.396577 181.196899 
L 192.725653 179.917872 
L 195.054729 178.617991 
L 197.383804 177.297288 
L 199.71288 175.955794 
L 202.041956 174.593543 
L 204.371032 173.210566 
L 206.700108 171.806898 
L 209.029184 170.382572 
L 211.35826 168.937623 
L 213.687336 167.472085 
L 216.016412 165.985994 
L 218.345487 164.479385 
L 220.674563 162.952294 
L 223.003639 161.404759 
L 225.332715 159.836816 
L 227.661791 158.248502 
L 229.990867 156.639855 
L 232.319943 155.010915 
L 234.649019 153.361719 
L 236.978094 151.692307 
L 239.30717 150.002718 
L 241.636246 148.292993 
L 243.965322 146.563172 
L 246.294398 144.813296 
L 248.623474 143.043407 
L 250.95255 141.253545 
L 253.281626 139.443754 
L 255.610702 137.614076 
L 257.939777 135.764553 
L 260.268853 133.895229 
L 262.597929 132.006149 
L 264.927005 130.097356 
L 267.256081 128.168894 
L 269.585157 126.220809 
L 271.914233 124.253147 
L 274.243309 122.265952 
L 276.572384 120.259271 
L 278.90146 118.233151 
L 281.230536 116.187638 
L 283.559612 114.122779 
L 285.888688 112.038623 
" clip-path="url(#p8c51b33426)" style="fill: none; stroke: #1f77b4; stroke-width: 1.5; stroke-linecap: square"/>
   </g>
   <g id="line2d_24">
    <path d="M 55.310176 218.869093 
L 57.639252 218.803654 
L 59.968327 218.694597 
L 62.297403 218.541932 
L 64.626479 218.345675 
L 66.955555 218.105844 
L 69.284631 217.822465 
L 71.613707 217.495566 
L 73.942783 217.125178 
L 76.271859 216.71134 
L 78.600934 216.254092 
L 80.93001 215.753479 
L 83.259086 215.209553 
L 85.588162 214.622366 
L 87.917238 213.991977 
L 90.246314 213.318449 
L 92.57539 212.601849 
L 94.904466 211.842247 
L 97.233542 211.039719 
L 99.562617 210.194344 
L 101.891693 209.306206 
L 104.220769 208.375391 
L 106.549845 207.401993 
L 108.878921 206.386106 
L 111.207997 205.32783 
L 113.537073 204.22727 
L 115.866149 203.084532 
L 118.195224 201.899728 
L 120.5243 200.672974 
L 122.853376 199.40439 
L 125.182452 198.094097 
L 127.511528 196.742225 
L 129.840604 195.348902 
L 132.16968 193.914265 
L 134.498756 192.43845 
L 136.827832 190.921601 
L 139.156907 189.363861 
L 141.485983 187.765381 
L 143.815059 186.126313 
L 146.144135 184.446813 
L 148.473211 182.72704 
L 150.802287 180.967157 
L 153.131363 179.16733 
L 155.460439 177.32773 
L 157.789514 175.448528 
L 160.11859 173.529901 
L 162.447666 171.572027 
L 164.776742 169.575089 
L 167.105818 167.539272 
L 169.434894 165.464765 
L 171.76397 163.351758 
L 174.093046 161.200447 
L 176.422122 159.011027 
L 178.751197 156.783698 
L 181.080273 154.518664 
L 183.409349 152.216129 
L 185.738425 149.876301 
L 188.067501 147.499391 
L 190.396577 145.085612 
L 192.725653 142.635179 
L 195.054729 140.148311 
L 197.383804 137.625226 
L 199.71288 135.066149 
L 202.041956 132.471303 
L 204.371032 129.840917 
L 206.700108 127.175218 
L 209.029184 124.474439 
L 211.35826 121.738812 
L 213.687336 118.968573 
L 216.016412 116.163959 
L 218.345487 113.32521 
L 220.674563 110.452565 
L 223.003639 107.546267 
L 225.332715 104.606562 
L 227.661791 101.633694 
L 229.990867 98.627911 
L 232.319943 95.589462 
L 234.649019 92.518597 
L 236.978094 89.415569 
L 239.30717 86.280631 
L 241.636246 83.114036 
L 243.965322 79.916041 
L 246.294398 76.686902 
L 248.623474 73.426878 
L 250.95255 70.136227 
L 253.281626 66.815209 
L 255.610702 63.464086 
L 257.939777 60.083119 
L 260.268853 56.672571 
L 262.597929 53.232706 
L 264.927005 49.763787 
L 267.256081 46.26608 
L 269.585157 42.739849 
L 271.914233 39.185362 
L 274.243309 35.602884 
L 276.572384 31.992683 
L 278.90146 28.355026 
L 281.230536 24.690181 
L 283.559612 20.998417 
L 285.888688 17.28 
" clip-path="url(#p8c51b33426)" style="fill: none; stroke-dasharray: 9.6,2.4,1.5,2.4; stroke-dashoffset: 0; stroke: #ff7f0e; stroke-width: 1.5"/>
   </g>
   <g id="patch_3">
    <path d="M 43.78125 228.96 
L 43.78125 7.2 
" style="fill: none; stroke: #000000; stroke-width: 0.8; stroke-linejoin: miter; stroke-linecap: square"/>
   </g>
   <g id="patch_4">
    <path d="M 297.417614 228.96 
L 297.417614 7.2 
" style="fill: none; stroke: #000000; stroke-width: 0.8; stroke-linejoin: miter; stroke-linecap: square"/>
   </g>
   <g id="patch_5">
    <path d="M 43.78125 228.96 
L 297.417614 228.96 
" style="fill: none; stroke: #000000; stroke-width: 0.8; stroke-linejoin: miter; stroke-linecap: square"/>
   </g>
   <g id="patch_6">
    <path d="M 43.78125 7.2 
L 297.417614 7.2 
" style="fill: none; stroke: #000000; stroke-width: 0.8; stroke-linejoin: miter; stroke-linecap: square"/>
   </g>
   <g id="legend_1">
    <g id="patch_7">
     <path d="M 50.78125 44.55625 
L 216.407813 44.55625 
Q 218.407813 44.55625 218.407813 42.55625 
L 218.407813 14.2 
Q 218.407813 12.2 216.407813 12.2 
L 50.78125 12.2 
Q 48.78125 12.2 48.78125 14.2 
L 48.78125 42.55625 
Q 48.78125 44.55625 50.78125 44.55625 
z
" style="fill: #ffffff; opacity: 0.8; stroke: #cccccc; stroke-linejoin: miter"/>
    </g>
    <g id="line2d_25">
     <path d="M 52.78125 20.298437 
L 62.78125 20.298437 
L 72.78125 20.298437 
" style="fill: none; stroke: #1f77b4; stroke-width: 1.5; stroke-linecap: square"/>
    </g>
    <g id="text_14">
     <!-- RAPPOR (thm 4) -->
     <g transform="translate(80.78125 23.798437) scale(0.1 -0.1)">
      <defs>
       <path id="DejaVuSans-52" d="M 2841 2188 
Q 3044 2119 3236 1894 
Q 3428 1669 3622 1275 
L 4263 0 
L 3584 0 
L 2988 1197 
Q 2756 1666 2539 1819 
Q 2322 1972 1947 1972 
L 1259 1972 
L 1259 0 
L 628 0 
L 628 4666 
L 2053 4666 
Q 2853 4666 3247 4331 
Q 3641 3997 3641 3322 
Q 3641 2881 3436 2590 
Q 3231 2300 2841 2188 
z
M 1259 4147 
L 1259 2491 
L 2053 2491 
Q 2509 2491 2742 2702 
Q 2975 2913 2975 3322 
Q 2975 3731 2742 3939 
Q 2509 4147 2053 4147 
L 1259 4147 
z
" transform="scale(0.015625)"/>
       <path id="DejaVuSans-41" d="M 2188 4044 
L 1331 1722 
L 3047 1722 
L 2188 4044 
z
M 1831 4666 
L 2547 4666 
L 4325 0 
L 3669 0 
L 3244 1197 
L 1141 1197 
L 716 0 
L 50 0 
L 1831 4666 
z
" transform="scale(0.015625)"/>
       <path id="DejaVuSans-50" d="M 1259 4147 
L 1259 2394 
L 2053 2394 
Q 2494 2394 2734 2622 
Q 2975 2850 2975 3272 
Q 2975 3691 2734 3919 
Q 2494 4147 2053 4147 
L 1259 4147 
z
M 628 4666 
L 2053 4666 
Q 2838 4666 3239 4311 
Q 3641 3956 3641 3272 
Q 3641 2581 3239 2228 
Q 2838 1875 2053 1875 
L 1259 1875 
L 1259 0 
L 628 0 
L 628 4666 
z
" transform="scale(0.015625)"/>
       <path id="DejaVuSans-4f" d="M 2522 4238 
Q 1834 4238 1429 3725 
Q 1025 3213 1025 2328 
Q 1025 1447 1429 934 
Q 1834 422 2522 422 
Q 3209 422 3611 934 
Q 4013 1447 4013 2328 
Q 4013 3213 3611 3725 
Q 3209 4238 2522 4238 
z
M 2522 4750 
Q 3503 4750 4090 4092 
Q 4678 3434 4678 2328 
Q 4678 1225 4090 567 
Q 3503 -91 2522 -91 
Q 1538 -91 948 565 
Q 359 1222 359 2328 
Q 359 3434 948 4092 
Q 1538 4750 2522 4750 
z
" transform="scale(0.015625)"/>
       <path id="DejaVuSans-20" transform="scale(0.015625)"/>
       <path id="DejaVuSans-28" d="M 1984 4856 
Q 1566 4138 1362 3434 
Q 1159 2731 1159 2009 
Q 1159 1288 1364 580 
Q 1569 -128 1984 -844 
L 1484 -844 
Q 1016 -109 783 600 
Q 550 1309 550 2009 
Q 550 2706 781 3412 
Q 1013 4119 1484 4856 
L 1984 4856 
z
" transform="scale(0.015625)"/>
       <path id="DejaVuSans-74" d="M 1172 4494 
L 1172 3500 
L 2356 3500 
L 2356 3053 
L 1172 3053 
L 1172 1153 
Q 1172 725 1289 603 
Q 1406 481 1766 481 
L 2356 481 
L 2356 0 
L 1766 0 
Q 1100 0 847 248 
Q 594 497 594 1153 
L 594 3053 
L 172 3053 
L 172 3500 
L 594 3500 
L 594 4494 
L 1172 4494 
z
" transform="scale(0.015625)"/>
       <path id="DejaVuSans-6d" d="M 3328 2828 
Q 3544 3216 3844 3400 
Q 4144 3584 4550 3584 
Q 5097 3584 5394 3201 
Q 5691 2819 5691 2113 
L 5691 0 
L 5113 0 
L 5113 2094 
Q 5113 2597 4934 2840 
Q 4756 3084 4391 3084 
Q 3944 3084 3684 2787 
Q 3425 2491 3425 1978 
L 3425 0 
L 2847 0 
L 2847 2094 
Q 2847 2600 2669 2842 
Q 2491 3084 2119 3084 
Q 1678 3084 1418 2786 
Q 1159 2488 1159 1978 
L 1159 0 
L 581 0 
L 581 3500 
L 1159 3500 
L 1159 2956 
Q 1356 3278 1631 3431 
Q 1906 3584 2284 3584 
Q 2666 3584 2933 3390 
Q 3200 3197 3328 2828 
z
" transform="scale(0.015625)"/>
       <path id="DejaVuSans-29" d="M 513 4856 
L 1013 4856 
Q 1481 4119 1714 3412 
Q 1947 2706 1947 2009 
Q 1947 1309 1714 600 
Q 1481 -109 1013 -844 
L 513 -844 
Q 928 -128 1133 580 
Q 1338 1288 1338 2009 
Q 1338 2731 1133 3434 
Q 928 4138 513 4856 
z
" transform="scale(0.015625)"/>
      </defs>
      <use xlink:href="#DejaVuSans-52"/>
      <use xlink:href="#DejaVuSans-41" transform="translate(65.482422 0)"/>
      <use xlink:href="#DejaVuSans-50" transform="translate(133.890625 0)"/>
      <use xlink:href="#DejaVuSans-50" transform="translate(194.193359 0)"/>
      <use xlink:href="#DejaVuSans-4f" transform="translate(254.496094 0)"/>
      <use xlink:href="#DejaVuSans-52" transform="translate(333.207031 0)"/>
      <use xlink:href="#DejaVuSans-20" transform="translate(402.689453 0)"/>
      <use xlink:href="#DejaVuSans-28" transform="translate(434.476562 0)"/>
      <use xlink:href="#DejaVuSans-74" transform="translate(473.490234 0)"/>
      <use xlink:href="#DejaVuSans-68" transform="translate(512.699219 0)"/>
      <use xlink:href="#DejaVuSans-6d" transform="translate(576.078125 0)"/>
      <use xlink:href="#DejaVuSans-20" transform="translate(673.490234 0)"/>
      <use xlink:href="#DejaVuSans-34" transform="translate(705.277344 0)"/>
      <use xlink:href="#DejaVuSans-29" transform="translate(768.900391 0)"/>
     </g>
    </g>
    <g id="line2d_26">
     <path d="M 52.78125 34.976562 
L 62.78125 34.976562 
L 72.78125 34.976562 
" style="fill: none; stroke-dasharray: 9.6,2.4,1.5,2.4; stroke-dashoffset: 0; stroke: #ff7f0e; stroke-width: 1.5"/>
    </g>
    <g id="text_15">
     <!-- zCDP upper bound (thm 3) -->
     <g transform="translate(80.78125 38.476562) scale(0.1 -0.1)">
      <defs>
       <path id="DejaVuSans-7a" d="M 353 3500 
L 3084 3500 
L 3084 2975 
L 922 459 
L 3084 459 
L 3084 0 
L 275 0 
L 275 525 
L 2438 3041 
L 353 3041 
L 353 3500 
z
" transform="scale(0.015625)"/>
       <path id="DejaVuSans-43" d="M 4122 4306 
L 4122 3641 
Q 3803 3938 3442 4084 
Q 3081 4231 2675 4231 
Q 1875 4231 1450 3742 
Q 1025 3253 1025 2328 
Q 1025 1406 1450 917 
Q 1875 428 2675 428 
Q 3081 428 3442 575 
Q 3803 722 4122 1019 
L 4122 359 
Q 3791 134 3420 21 
Q 3050 -91 2638 -91 
Q 1578 -91 968 557 
Q 359 1206 359 2328 
Q 359 3453 968 4101 
Q 1578 4750 2638 4750 
Q 3056 4750 3426 4639 
Q 3797 4528 4122 4306 
z
" transform="scale(0.015625)"/>
       <path id="DejaVuSans-44" d="M 1259 4147 
L 1259 519 
L 2022 519 
Q 2988 519 3436 956 
Q 3884 1394 3884 2338 
Q 3884 3275 3436 3711 
Q 2988 4147 2022 4147 
L 1259 4147 
z
M 628 4666 
L 1925 4666 
Q 3281 4666 3915 4102 
Q 4550 3538 4550 2338 
Q 4550 1131 3912 565 
Q 3275 0 1925 0 
L 628 0 
L 628 4666 
z
" transform="scale(0.015625)"/>
       <path id="DejaVuSans-75" d="M 544 1381 
L 544 3500 
L 1119 3500 
L 1119 1403 
Q 1119 906 1312 657 
Q 1506 409 1894 409 
Q 2359 409 2629 706 
Q 2900 1003 2900 1516 
L 2900 3500 
L 3475 3500 
L 3475 0 
L 2900 0 
L 2900 538 
Q 2691 219 2414 64 
Q 2138 -91 1772 -91 
Q 1169 -91 856 284 
Q 544 659 544 1381 
z
M 1991 3584 
L 1991 3584 
z
" transform="scale(0.015625)"/>
       <path id="DejaVuSans-62" d="M 3116 1747 
Q 3116 2381 2855 2742 
Q 2594 3103 2138 3103 
Q 1681 3103 1420 2742 
Q 1159 2381 1159 1747 
Q 1159 1113 1420 752 
Q 1681 391 2138 391 
Q 2594 391 2855 752 
Q 3116 1113 3116 1747 
z
M 1159 2969 
Q 1341 3281 1617 3432 
Q 1894 3584 2278 3584 
Q 2916 3584 3314 3078 
Q 3713 2572 3713 1747 
Q 3713 922 3314 415 
Q 2916 -91 2278 -91 
Q 1894 -91 1617 61 
Q 1341 213 1159 525 
L 1159 0 
L 581 0 
L 581 4863 
L 1159 4863 
L 1159 2969 
z
" transform="scale(0.015625)"/>
       <path id="DejaVuSans-64" d="M 2906 2969 
L 2906 4863 
L 3481 4863 
L 3481 0 
L 2906 0 
L 2906 525 
Q 2725 213 2448 61 
Q 2172 -91 1784 -91 
Q 1150 -91 751 415 
Q 353 922 353 1747 
Q 353 2572 751 3078 
Q 1150 3584 1784 3584 
Q 2172 3584 2448 3432 
Q 2725 3281 2906 2969 
z
M 947 1747 
Q 947 1113 1208 752 
Q 1469 391 1925 391 
Q 2381 391 2643 752 
Q 2906 1113 2906 1747 
Q 2906 2381 2643 2742 
Q 2381 3103 1925 3103 
Q 1469 3103 1208 2742 
Q 947 2381 947 1747 
z
" transform="scale(0.015625)"/>
      </defs>
      <use xlink:href="#DejaVuSans-7a"/>
      <use xlink:href="#DejaVuSans-43" transform="translate(52.490234 0)"/>
      <use xlink:href="#DejaVuSans-44" transform="translate(122.314453 0)"/>
      <use xlink:href="#DejaVuSans-50" transform="translate(199.316406 0)"/>
      <use xlink:href="#DejaVuSans-20" transform="translate(259.619141 0)"/>
      <use xlink:href="#DejaVuSans-75" transform="translate(291.40625 0)"/>
      <use xlink:href="#DejaVuSans-70" transform="translate(354.785156 0)"/>
      <use xlink:href="#DejaVuSans-70" transform="translate(418.261719 0)"/>
      <use xlink:href="#DejaVuSans-65" transform="translate(481.738281 0)"/>
      <use xlink:href="#DejaVuSans-72" transform="translate(543.261719 0)"/>
      <use xlink:href="#DejaVuSans-20" transform="translate(584.375 0)"/>
      <use xlink:href="#DejaVuSans-62" transform="translate(616.162109 0)"/>
      <use xlink:href="#DejaVuSans-6f" transform="translate(679.638672 0)"/>
      <use xlink:href="#DejaVuSans-75" transform="translate(740.820312 0)"/>
      <use xlink:href="#DejaVuSans-6e" transform="translate(804.199219 0)"/>
      <use xlink:href="#DejaVuSans-64" transform="translate(867.578125 0)"/>
      <use xlink:href="#DejaVuSans-20" transform="translate(931.054688 0)"/>
      <use xlink:href="#DejaVuSans-28" transform="translate(962.841797 0)"/>
      <use xlink:href="#DejaVuSans-74" transform="translate(1001.855469 0)"/>
      <use xlink:href="#DejaVuSans-68" transform="translate(1041.064453 0)"/>
      <use xlink:href="#DejaVuSans-6d" transform="translate(1104.443359 0)"/>
      <use xlink:href="#DejaVuSans-20" transform="translate(1201.855469 0)"/>
      <use xlink:href="#DejaVuSans-33" transform="translate(1233.642578 0)"/>
      <use xlink:href="#DejaVuSans-29" transform="translate(1297.265625 0)"/>
     </g>
    </g>
   </g>
  </g>
  <g id="axes_2">
   <g id="patch_8">
    <path d="M 348.144886 228.96 
L 601.78125 228.96 
L 601.78125 7.2 
L 348.144886 7.2 
z
" style="fill: #ffffff"/>
   </g>
   <g id="matplotlib.axis_3">
    <g id="xtick_7">
     <g id="line2d_27">
      <path d="M 359.443003 228.96 
L 359.443003 7.2 
" clip-path="url(#pc5338a05b1)" style="fill: none; stroke: #b0b0b0; stroke-width: 0.8; stroke-linecap: square"/>
     </g>
     <g id="line2d_28">
      <g>
       <use xlink:href="#m24ec9b4bcb" x="359.443003" y="228.96" style="stroke: #000000; stroke-width: 0.8"/>
      </g>
     </g>
     <g id="text_16">
      <!-- 0 -->
      <g transform="translate(356.261753 243.558437) scale(0.1 -0.1)">
       <use xlink:href="#DejaVuSans-30"/>
      </g>
     </g>
    </g>
    <g id="xtick_8">
     <g id="line2d_29">
      <path d="M 405.604867 228.96 
L 405.604867 7.2 
" clip-path="url(#pc5338a05b1)" style="fill: none; stroke: #b0b0b0; stroke-width: 0.8; stroke-linecap: square"/>
     </g>
     <g id="line2d_30">
      <g>
       <use xlink:href="#m24ec9b4bcb" x="405.604867" y="228.96" style="stroke: #000000; stroke-width: 0.8"/>
      </g>
     </g>
     <g id="text_17">
      <!-- 2 -->
      <g transform="translate(402.423617 243.558437) scale(0.1 -0.1)">
       <use xlink:href="#DejaVuSans-32"/>
      </g>
     </g>
    </g>
    <g id="xtick_9">
     <g id="line2d_31">
      <path d="M 451.766731 228.96 
L 451.766731 7.2 
" clip-path="url(#pc5338a05b1)" style="fill: none; stroke: #b0b0b0; stroke-width: 0.8; stroke-linecap: square"/>
     </g>
     <g id="line2d_32">
      <g>
       <use xlink:href="#m24ec9b4bcb" x="451.766731" y="228.96" style="stroke: #000000; stroke-width: 0.8"/>
      </g>
     </g>
     <g id="text_18">
      <!-- 4 -->
      <g transform="translate(448.585481 243.558437) scale(0.1 -0.1)">
       <use xlink:href="#DejaVuSans-34"/>
      </g>
     </g>
    </g>
    <g id="xtick_10">
     <g id="line2d_33">
      <path d="M 497.928596 228.96 
L 497.928596 7.2 
" clip-path="url(#pc5338a05b1)" style="fill: none; stroke: #b0b0b0; stroke-width: 0.8; stroke-linecap: square"/>
     </g>
     <g id="line2d_34">
      <g>
       <use xlink:href="#m24ec9b4bcb" x="497.928596" y="228.96" style="stroke: #000000; stroke-width: 0.8"/>
      </g>
     </g>
     <g id="text_19">
      <!-- 6 -->
      <g transform="translate(494.747346 243.558437) scale(0.1 -0.1)">
       <use xlink:href="#DejaVuSans-36"/>
      </g>
     </g>
    </g>
    <g id="xtick_11">
     <g id="line2d_35">
      <path d="M 544.09046 228.96 
L 544.09046 7.2 
" clip-path="url(#pc5338a05b1)" style="fill: none; stroke: #b0b0b0; stroke-width: 0.8; stroke-linecap: square"/>
     </g>
     <g id="line2d_36">
      <g>
       <use xlink:href="#m24ec9b4bcb" x="544.09046" y="228.96" style="stroke: #000000; stroke-width: 0.8"/>
      </g>
     </g>
     <g id="text_20">
      <!-- 8 -->
      <g transform="translate(540.90921 243.558437) scale(0.1 -0.1)">
       <use xlink:href="#DejaVuSans-38"/>
      </g>
     </g>
    </g>
    <g id="xtick_12">
     <g id="line2d_37">
      <path d="M 590.252324 228.96 
L 590.252324 7.2 
" clip-path="url(#pc5338a05b1)" style="fill: none; stroke: #b0b0b0; stroke-width: 0.8; stroke-linecap: square"/>
     </g>
     <g id="line2d_38">
      <g>
       <use xlink:href="#m24ec9b4bcb" x="590.252324" y="228.96" style="stroke: #000000; stroke-width: 0.8"/>
      </g>
     </g>
     <g id="text_21">
      <!-- 10 -->
      <g transform="translate(583.889824 243.558437) scale(0.1 -0.1)">
       <use xlink:href="#DejaVuSans-31"/>
       <use xlink:href="#DejaVuSans-30" transform="translate(63.623047 0)"/>
      </g>
     </g>
    </g>
    <g id="text_22">
     <!-- epsilon -->
     <g transform="translate(457.101349 257.236562) scale(0.1 -0.1)">
      <use xlink:href="#DejaVuSans-65"/>
      <use xlink:href="#DejaVuSans-70" transform="translate(61.523438 0)"/>
      <use xlink:href="#DejaVuSans-73" transform="translate(125 0)"/>
      <use xlink:href="#DejaVuSans-69" transform="translate(177.099609 0)"/>
      <use xlink:href="#DejaVuSans-6c" transform="translate(204.882812 0)"/>
      <use xlink:href="#DejaVuSans-6f" transform="translate(232.666016 0)"/>
      <use xlink:href="#DejaVuSans-6e" transform="translate(293.847656 0)"/>
     </g>
    </g>
   </g>
   <g id="matplotlib.axis_4">
    <g id="ytick_6">
     <g id="line2d_39">
      <path d="M 348.144886 218.880504 
L 601.78125 218.880504 
" clip-path="url(#pc5338a05b1)" style="fill: none; stroke: #b0b0b0; stroke-width: 0.8; stroke-linecap: square"/>
     </g>
     <g id="line2d_40">
      <g>
       <use xlink:href="#mb15a9039d3" x="348.144886" y="218.880504" style="stroke: #000000; stroke-width: 0.8"/>
      </g>
     </g>
     <g id="text_23">
      <!-- 0 -->
      <g transform="translate(334.782386 222.679723) scale(0.1 -0.1)">
       <use xlink:href="#DejaVuSans-30"/>
      </g>
     </g>
    </g>
    <g id="ytick_7">
     <g id="line2d_41">
      <path d="M 348.144886 178.556742 
L 601.78125 178.556742 
" clip-path="url(#pc5338a05b1)" style="fill: none; stroke: #b0b0b0; stroke-width: 0.8; stroke-linecap: square"/>
     </g>
     <g id="line2d_42">
      <g>
       <use xlink:href="#mb15a9039d3" x="348.144886" y="178.556742" style="stroke: #000000; stroke-width: 0.8"/>
      </g>
     </g>
     <g id="text_24">
      <!-- 2 -->
      <g transform="translate(334.782386 182.355961) scale(0.1 -0.1)">
       <use xlink:href="#DejaVuSans-32"/>
      </g>
     </g>
    </g>
    <g id="ytick_8">
     <g id="line2d_43">
      <path d="M 348.144886 138.23298 
L 601.78125 138.23298 
" clip-path="url(#pc5338a05b1)" style="fill: none; stroke: #b0b0b0; stroke-width: 0.8; stroke-linecap: square"/>
     </g>
     <g id="line2d_44">
      <g>
       <use xlink:href="#mb15a9039d3" x="348.144886" y="138.23298" style="stroke: #000000; stroke-width: 0.8"/>
      </g>
     </g>
     <g id="text_25">
      <!-- 4 -->
      <g transform="translate(334.782386 142.032199) scale(0.1 -0.1)">
       <use xlink:href="#DejaVuSans-34"/>
      </g>
     </g>
    </g>
    <g id="ytick_9">
     <g id="line2d_45">
      <path d="M 348.144886 97.909218 
L 601.78125 97.909218 
" clip-path="url(#pc5338a05b1)" style="fill: none; stroke: #b0b0b0; stroke-width: 0.8; stroke-linecap: square"/>
     </g>
     <g id="line2d_46">
      <g>
       <use xlink:href="#mb15a9039d3" x="348.144886" y="97.909218" style="stroke: #000000; stroke-width: 0.8"/>
      </g>
     </g>
     <g id="text_26">
      <!-- 6 -->
      <g transform="translate(334.782386 101.708437) scale(0.1 -0.1)">
       <use xlink:href="#DejaVuSans-36"/>
      </g>
     </g>
    </g>
    <g id="ytick_10">
     <g id="line2d_47">
      <path d="M 348.144886 57.585456 
L 601.78125 57.585456 
" clip-path="url(#pc5338a05b1)" style="fill: none; stroke: #b0b0b0; stroke-width: 0.8; stroke-linecap: square"/>
     </g>
     <g id="line2d_48">
      <g>
       <use xlink:href="#mb15a9039d3" x="348.144886" y="57.585456" style="stroke: #000000; stroke-width: 0.8"/>
      </g>
     </g>
     <g id="text_27">
      <!-- 8 -->
      <g transform="translate(334.782386 61.384675) scale(0.1 -0.1)">
       <use xlink:href="#DejaVuSans-38"/>
      </g>
     </g>
    </g>
    <g id="ytick_11">
     <g id="line2d_49">
      <path d="M 348.144886 17.261694 
L 601.78125 17.261694 
" clip-path="url(#pc5338a05b1)" style="fill: none; stroke: #b0b0b0; stroke-width: 0.8; stroke-linecap: square"/>
     </g>
     <g id="line2d_50">
      <g>
       <use xlink:href="#mb15a9039d3" x="348.144886" y="17.261694" style="stroke: #000000; stroke-width: 0.8"/>
      </g>
     </g>
     <g id="text_28">
      <!-- 10 -->
      <g transform="translate(328.419886 21.060913) scale(0.1 -0.1)">
       <use xlink:href="#DejaVuSans-31"/>
       <use xlink:href="#DejaVuSans-30" transform="translate(63.623047 0)"/>
      </g>
     </g>
    </g>
    <g id="text_29">
     <!-- rho -->
     <g transform="translate(322.340199 126.276094) rotate(-90) scale(0.1 -0.1)">
      <use xlink:href="#DejaVuSans-72"/>
      <use xlink:href="#DejaVuSans-68" transform="translate(39.363281 0)"/>
      <use xlink:href="#DejaVuSans-6f" transform="translate(102.742188 0)"/>
     </g>
    </g>
   </g>
   <g id="line2d_51">
    <path d="M 359.673812 218.88 
L 362.002888 218.818518 
L 364.331964 218.654565 
L 366.66104 218.388556 
L 368.990116 218.021165 
L 371.319191 217.553317 
L 373.648267 216.986178 
L 375.977343 216.321155 
L 378.306419 215.559878 
L 380.635495 214.704191 
L 382.964571 213.756138 
L 385.293647 212.717951 
L 387.622723 211.59203 
L 389.951798 210.380934 
L 392.280874 209.087356 
L 394.60995 207.714113 
L 396.939026 206.264124 
L 399.268102 204.740397 
L 401.597178 203.146007 
L 403.926254 201.484083 
L 406.25533 199.757789 
L 408.584406 197.97031 
L 410.913481 196.124837 
L 413.242557 194.224551 
L 415.571633 192.272611 
L 417.900709 190.272141 
L 420.229785 188.226219 
L 422.558861 186.137866 
L 424.887937 184.010037 
L 427.217013 181.845613 
L 429.546088 179.647394 
L 431.875164 177.41809 
L 434.20424 175.160321 
L 436.533316 172.876606 
L 438.862392 170.569367 
L 441.191468 168.240919 
L 443.520544 165.893475 
L 445.84962 163.529141 
L 448.178696 161.149915 
L 450.507771 158.757692 
L 452.836847 156.354259 
L 455.165923 153.9413 
L 457.494999 151.520399 
L 459.824075 149.093038 
L 462.153151 146.660601 
L 464.482227 144.22438 
L 466.811303 141.785574 
L 469.140378 139.345295 
L 471.469454 136.904569 
L 473.79853 134.46434 
L 476.127606 132.025477 
L 478.456682 129.588771 
L 480.785758 127.154946 
L 483.114834 124.724657 
L 485.44391 122.298497 
L 487.772986 119.876996 
L 490.102061 117.460631 
L 492.431137 115.049825 
L 494.760213 112.64495 
L 497.089289 110.246333 
L 499.418365 107.854256 
L 501.747441 105.468962 
L 504.076517 103.090656 
L 506.405593 100.719506 
L 508.734668 98.35565 
L 511.063744 95.999196 
L 513.39282 93.650223 
L 515.721896 91.308785 
L 518.050972 88.974915 
L 520.380048 86.648621 
L 522.709124 84.329895 
L 525.0382 82.01871 
L 527.367276 79.715023 
L 529.696351 77.418778 
L 532.025427 75.129904 
L 534.354503 72.848321 
L 536.683579 70.573936 
L 539.012655 68.30665 
L 541.341731 66.046353 
L 543.670807 63.79293 
L 545.999883 61.546259 
L 548.328958 59.306215 
L 550.658034 57.072666 
L 552.98711 54.845477 
L 555.316186 52.624512 
L 557.645262 50.40963 
L 559.974338 48.200691 
L 562.303414 45.997551 
L 564.63249 43.800068 
L 566.961566 41.608098 
L 569.290641 39.421497 
L 571.619717 37.240122 
L 573.948793 35.063832 
L 576.277869 32.892486 
L 578.606945 30.725942 
L 580.936021 28.564064 
L 583.265097 26.406715 
L 585.594173 24.253759 
L 587.923248 22.105065 
L 590.252324 19.960503 
" clip-path="url(#pc5338a05b1)" style="fill: none; stroke: #1f77b4; stroke-width: 1.5; stroke-linecap: square"/>
   </g>
   <g id="line2d_52">
    <path d="M 359.673812 218.879496 
L 362.002888 218.756627 
L 364.331964 218.429887 
L 366.66104 217.902562 
L 368.990116 217.179884 
L 371.319191 216.268872 
L 373.648267 215.178137 
L 375.977343 213.917641 
L 378.306419 212.498435 
L 380.635495 210.93239 
L 382.964571 209.231917 
L 385.293647 207.40971 
L 387.622723 205.478493 
L 389.951798 203.450807 
L 392.280874 201.338818 
L 394.60995 199.15416 
L 396.939026 196.907814 
L 399.268102 194.610017 
L 401.597178 192.270198 
L 403.926254 189.896951 
L 406.25533 187.49802 
L 408.584406 185.080309 
L 410.913481 182.649913 
L 413.242557 180.212149 
L 415.571633 177.771606 
L 417.900709 175.332198 
L 420.229785 172.897221 
L 422.558861 170.469408 
L 424.887937 168.050986 
L 427.217013 165.643734 
L 429.546088 163.249037 
L 431.875164 160.867929 
L 434.20424 158.50115 
L 436.533316 156.149178 
L 438.862392 153.812273 
L 441.191468 151.490513 
L 443.520544 149.18382 
L 445.84962 146.891991 
L 448.178696 144.61472 
L 450.507771 142.35162 
L 452.836847 140.102242 
L 455.165923 137.866088 
L 457.494999 135.642627 
L 459.824075 133.431305 
L 462.153151 131.231553 
L 464.482227 129.042799 
L 466.811303 126.86447 
L 469.140378 124.696 
L 471.469454 122.536834 
L 473.79853 120.386432 
L 476.127606 118.244267 
L 478.456682 116.109835 
L 480.785758 113.98265 
L 483.114834 111.862246 
L 485.44391 109.748181 
L 487.772986 107.640033 
L 490.102061 105.537404 
L 492.431137 103.439914 
L 494.760213 101.347207 
L 497.089289 99.258948 
L 499.418365 97.17482 
L 501.747441 95.094528 
L 504.076517 93.017793 
L 506.405593 90.944355 
L 508.734668 88.873971 
L 511.063744 86.806414 
L 513.39282 84.741473 
L 515.721896 82.678951 
L 518.050972 80.618663 
L 520.380048 78.560439 
L 522.709124 76.504121 
L 525.0382 74.449562 
L 527.367276 72.396625 
L 529.696351 70.345183 
L 532.025427 68.295119 
L 534.354503 66.246326 
L 536.683579 64.198701 
L 539.012655 62.152153 
L 541.341731 60.106596 
L 543.670807 58.06195 
L 545.999883 56.018142 
L 548.328958 53.975105 
L 550.658034 51.932777 
L 552.98711 49.891099 
L 555.316186 47.850019 
L 557.645262 45.809488 
L 559.974338 43.769462 
L 562.303414 41.729898 
L 564.63249 39.690759 
L 566.961566 37.65201 
L 569.290641 35.613618 
L 571.619717 33.575554 
L 573.948793 31.537791 
L 576.277869 29.500303 
L 578.606945 27.463068 
L 580.936021 25.426064 
L 583.265097 23.389273 
L 585.594173 21.352676 
L 587.923248 19.316256 
L 590.252324 17.28 
" clip-path="url(#pc5338a05b1)" style="fill: none; stroke-dasharray: 9.6,2.4,1.5,2.4; stroke-dashoffset: 0; stroke: #ff7f0e; stroke-width: 1.5"/>
   </g>
   <g id="patch_9">
    <path d="M 348.144886 228.96 
L 348.144886 7.2 
" style="fill: none; stroke: #000000; stroke-width: 0.8; stroke-linejoin: miter; stroke-linecap: square"/>
   </g>
   <g id="patch_10">
    <path d="M 601.78125 228.96 
L 601.78125 7.2 
" style="fill: none; stroke: #000000; stroke-width: 0.8; stroke-linejoin: miter; stroke-linecap: square"/>
   </g>
   <g id="patch_11">
    <path d="M 348.144886 228.96 
L 601.78125 228.96 
" style="fill: none; stroke: #000000; stroke-width: 0.8; stroke-linejoin: miter; stroke-linecap: square"/>
   </g>
   <g id="patch_12">
    <path d="M 348.144886 7.2 
L 601.78125 7.2 
" style="fill: none; stroke: #000000; stroke-width: 0.8; stroke-linejoin: miter; stroke-linecap: square"/>
   </g>
   <g id="legend_2">
    <g id="patch_13">
     <path d="M 355.144886 44.55625 
L 520.771449 44.55625 
Q 522.771449 44.55625 522.771449 42.55625 
L 522.771449 14.2 
Q 522.771449 12.2 520.771449 12.2 
L 355.144886 12.2 
Q 353.144886 12.2 353.144886 14.2 
L 353.144886 42.55625 
Q 353.144886 44.55625 355.144886 44.55625 
z
" style="fill: #ffffff; opacity: 0.8; stroke: #cccccc; stroke-linejoin: miter"/>
    </g>
    <g id="line2d_53">
     <path d="M 357.144886 20.298437 
L 367.144886 20.298437 
L 377.144886 20.298437 
" style="fill: none; stroke: #1f77b4; stroke-width: 1.5; stroke-linecap: square"/>
    </g>
    <g id="text_30">
     <!-- RAPPOR (thm 4) -->
     <g transform="translate(385.144886 23.798437) scale(0.1 -0.1)">
      <use xlink:href="#DejaVuSans-52"/>
      <use xlink:href="#DejaVuSans-41" transform="translate(65.482422 0)"/>
      <use xlink:href="#DejaVuSans-50" transform="translate(133.890625 0)"/>
      <use xlink:href="#DejaVuSans-50" transform="translate(194.193359 0)"/>
      <use xlink:href="#DejaVuSans-4f" transform="translate(254.496094 0)"/>
      <use xlink:href="#DejaVuSans-52" transform="translate(333.207031 0)"/>
      <use xlink:href="#DejaVuSans-20" transform="translate(402.689453 0)"/>
      <use xlink:href="#DejaVuSans-28" transform="translate(434.476562 0)"/>
      <use xlink:href="#DejaVuSans-74" transform="translate(473.490234 0)"/>
      <use xlink:href="#DejaVuSans-68" transform="translate(512.699219 0)"/>
      <use xlink:href="#DejaVuSans-6d" transform="translate(576.078125 0)"/>
      <use xlink:href="#DejaVuSans-20" transform="translate(673.490234 0)"/>
      <use xlink:href="#DejaVuSans-34" transform="translate(705.277344 0)"/>
      <use xlink:href="#DejaVuSans-29" transform="translate(768.900391 0)"/>
     </g>
    </g>
    <g id="line2d_54">
     <path d="M 357.144886 34.976562 
L 367.144886 34.976562 
L 377.144886 34.976562 
" style="fill: none; stroke-dasharray: 9.6,2.4,1.5,2.4; stroke-dashoffset: 0; stroke: #ff7f0e; stroke-width: 1.5"/>
    </g>
    <g id="text_31">
     <!-- zCDP upper bound (thm 3) -->
     <g transform="translate(385.144886 38.476562) scale(0.1 -0.1)">
      <use xlink:href="#DejaVuSans-7a"/>
      <use xlink:href="#DejaVuSans-43" transform="translate(52.490234 0)"/>
      <use xlink:href="#DejaVuSans-44" transform="translate(122.314453 0)"/>
      <use xlink:href="#DejaVuSans-50" transform="translate(199.316406 0)"/>
      <use xlink:href="#DejaVuSans-20" transform="translate(259.619141 0)"/>
      <use xlink:href="#DejaVuSans-75" transform="translate(291.40625 0)"/>
      <use xlink:href="#DejaVuSans-70" transform="translate(354.785156 0)"/>
      <use xlink:href="#DejaVuSans-70" transform="translate(418.261719 0)"/>
      <use xlink:href="#DejaVuSans-65" transform="translate(481.738281 0)"/>
      <use xlink:href="#DejaVuSans-72" transform="translate(543.261719 0)"/>
      <use xlink:href="#DejaVuSans-20" transform="translate(584.375 0)"/>
      <use xlink:href="#DejaVuSans-62" transform="translate(616.162109 0)"/>
      <use xlink:href="#DejaVuSans-6f" transform="translate(679.638672 0)"/>
      <use xlink:href="#DejaVuSans-75" transform="translate(740.820312 0)"/>
      <use xlink:href="#DejaVuSans-6e" transform="translate(804.199219 0)"/>
      <use xlink:href="#DejaVuSans-64" transform="translate(867.578125 0)"/>
      <use xlink:href="#DejaVuSans-20" transform="translate(931.054688 0)"/>
      <use xlink:href="#DejaVuSans-28" transform="translate(962.841797 0)"/>
      <use xlink:href="#DejaVuSans-74" transform="translate(1001.855469 0)"/>
      <use xlink:href="#DejaVuSans-68" transform="translate(1041.064453 0)"/>
      <use xlink:href="#DejaVuSans-6d" transform="translate(1104.443359 0)"/>
      <use xlink:href="#DejaVuSans-20" transform="translate(1201.855469 0)"/>
      <use xlink:href="#DejaVuSans-33" transform="translate(1233.642578 0)"/>
      <use xlink:href="#DejaVuSans-29" transform="translate(1297.265625 0)"/>
     </g>
    </g>
   </g>
  </g>
 </g>
 <defs>
  <clipPath id="p8c51b33426">
   <rect x="43.78125" y="7.2" width="253.636364" height="221.76"/>
  </clipPath>
  <clipPath id="pc5338a05b1">
   <rect x="348.144886" y="7.2" width="253.636364" height="221.76"/>
  </clipPath>
 </defs>
</svg>
