<?xml version="1.0" encoding="utf-8" standalone="no"?>
<!DOCTYPE svg PUBLIC "-//W3C//DTD SVG 1.1//EN"
  "http://www.w3.org/Graphics/SVG/1.1/DTD/svg11.dtd">
<svg xmlns:xlink="http://www.w3.org/1999/xlink" width="608.98125pt" height="266.51625pt" viewBox="0 0 608.98125 266.51625" xmlns="http://www.w3.org/2000/svg" version="1.1">
 <metadata>
  <rdf:RDF xmlns:dc="http://purl.org/dc/elements/1.1/" xmlns:cc="http://creativecommons.org/ns#" xmlns:rdf="http://www.w3.org/1999/02/22-rdf-syntax-ns#">
   <cc:Work>
    <dc:type rdf:resource="http://purl.org/dc/dcmitype/StillImage"/>
    <dc:date>2024-08-20T16:58:29.502153</dc:date>
    <dc:format>image/svg+xml</dc:format>
    <dc:creator>
     <cc:Agent>
      <dc:title>Matplotlib v3.7.1, https://matplotlib.org/</dc:title>
     </cc:Agent>
    </dc:creator>
   </cc:Work>
  </rdf:RDF>
 </metadata>
 <defs>
  <style type="text/css">*{stroke-linejoin: round; stroke-linecap: butt}</style>
 </defs>
 <g id="figure_1">
  <g id="patch_1">
   <path d="M 0 266.51625 
L 608.98125 266.51625 
L 608.98125 0 
L 0 0 
z
" style="fill: #ffffff"/>
  </g>
  <g id="axes_1">
   <g id="patch_2">
    <path d="M 43.78125 228.96 
L 297.417614 228.96 
L 297.417614 7.2 
L 43.78125 7.2 
z
" style="fill: #ffffff"/>
   </g>
   <g id="matplotlib.axis_1">
    <g id="xtick_1">
     <g id="line2d_1">
      <path d="M 52.9811 228.96 
L 52.9811 7.2 
" clip-path="url(#p2c17da69cc)" style="fill: none; stroke: #b0b0b0; stroke-width: 0.8; stroke-linecap: square"/>
     </g>
     <g id="line2d_2">
      <defs>
       <path id="m294b160dcf" d="M 0 0 
L 0 3.5 
" style="stroke: #000000; stroke-width: 0.8"/>
      </defs>
      <g>
       <use xlink:href="#m294b160dcf" x="52.9811" y="228.96" style="stroke: #000000; stroke-width: 0.8"/>
      </g>
     </g>
     <g id="text_1">
      <!-- 0.0 -->
      <g transform="translate(45.029537 243.558437) scale(0.1 -0.1)">
       <defs>
        <path id="DejaVuSans-30" d="M 2034 4250 
Q 1547 4250 1301 3770 
Q 1056 3291 1056 2328 
Q 1056 1369 1301 889 
Q 1547 409 2034 409 
Q 2525 409 2770 889 
Q 3016 1369 3016 2328 
Q 3016 3291 2770 3770 
Q 2525 4250 2034 4250 
z
M 2034 4750 
Q 2819 4750 3233 4129 
Q 3647 3509 3647 2328 
Q 3647 1150 3233 529 
Q 2819 -91 2034 -91 
Q 1250 -91 836 529 
Q 422 1150 422 2328 
Q 422 3509 836 4129 
Q 1250 4750 2034 4750 
z
" transform="scale(0.015625)"/>
        <path id="DejaVuSans-2e" d="M 684 794 
L 1344 794 
L 1344 0 
L 684 0 
L 684 794 
z
" transform="scale(0.015625)"/>
       </defs>
       <use xlink:href="#DejaVuSans-30"/>
       <use xlink:href="#DejaVuSans-2e" x="63.623047"/>
       <use xlink:href="#DejaVuSans-30" x="95.410156"/>
      </g>
     </g>
    </g>
    <g id="xtick_2">
     <g id="line2d_3">
      <path d="M 99.562617 228.96 
L 99.562617 7.2 
" clip-path="url(#p2c17da69cc)" style="fill: none; stroke: #b0b0b0; stroke-width: 0.8; stroke-linecap: square"/>
     </g>
     <g id="line2d_4">
      <g>
       <use xlink:href="#m294b160dcf" x="99.562617" y="228.96" style="stroke: #000000; stroke-width: 0.8"/>
      </g>
     </g>
     <g id="text_2">
      <!-- 0.2 -->
      <g transform="translate(91.611055 243.558437) scale(0.1 -0.1)">
       <defs>
        <path id="DejaVuSans-32" d="M 1228 531 
L 3431 531 
L 3431 0 
L 469 0 
L 469 531 
Q 828 903 1448 1529 
Q 2069 2156 2228 2338 
Q 2531 2678 2651 2914 
Q 2772 3150 2772 3378 
Q 2772 3750 2511 3984 
Q 2250 4219 1831 4219 
Q 1534 4219 1204 4116 
Q 875 4013 500 3803 
L 500 4441 
Q 881 4594 1212 4672 
Q 1544 4750 1819 4750 
Q 2544 4750 2975 4387 
Q 3406 4025 3406 3419 
Q 3406 3131 3298 2873 
Q 3191 2616 2906 2266 
Q 2828 2175 2409 1742 
Q 1991 1309 1228 531 
z
" transform="scale(0.015625)"/>
       </defs>
       <use xlink:href="#DejaVuSans-30"/>
       <use xlink:href="#DejaVuSans-2e" x="63.623047"/>
       <use xlink:href="#DejaVuSans-32" x="95.410156"/>
      </g>
     </g>
    </g>
    <g id="xtick_3">
     <g id="line2d_5">
      <path d="M 146.144135 228.96 
L 146.144135 7.2 
" clip-path="url(#p2c17da69cc)" style="fill: none; stroke: #b0b0b0; stroke-width: 0.8; stroke-linecap: square"/>
     </g>
     <g id="line2d_6">
      <g>
       <use xlink:href="#m294b160dcf" x="146.144135" y="228.96" style="stroke: #000000; stroke-width: 0.8"/>
      </g>
     </g>
     <g id="text_3">
      <!-- 0.4 -->
      <g transform="translate(138.192573 243.558437) scale(0.1 -0.1)">
       <defs>
        <path id="DejaVuSans-34" d="M 2419 4116 
L 825 1625 
L 2419 1625 
L 2419 4116 
z
M 2253 4666 
L 3047 4666 
L 3047 1625 
L 3713 1625 
L 3713 1100 
L 3047 1100 
L 3047 0 
L 2419 0 
L 2419 1100 
L 313 1100 
L 313 1709 
L 2253 4666 
z
" transform="scale(0.015625)"/>
       </defs>
       <use xlink:href="#DejaVuSans-30"/>
       <use xlink:href="#DejaVuSans-2e" x="63.623047"/>
       <use xlink:href="#DejaVuSans-34" x="95.410156"/>
      </g>
     </g>
    </g>
    <g id="xtick_4">
     <g id="line2d_7">
      <path d="M 192.725653 228.96 
L 192.725653 7.2 
" clip-path="url(#p2c17da69cc)" style="fill: none; stroke: #b0b0b0; stroke-width: 0.8; stroke-linecap: square"/>
     </g>
     <g id="line2d_8">
      <g>
       <use xlink:href="#m294b160dcf" x="192.725653" y="228.96" style="stroke: #000000; stroke-width: 0.8"/>
      </g>
     </g>
     <g id="text_4">
      <!-- 0.6 -->
      <g transform="translate(184.77409 243.558437) scale(0.1 -0.1)">
       <defs>
        <path id="DejaVuSans-36" d="M 2113 2584 
Q 1688 2584 1439 2293 
Q 1191 2003 1191 1497 
Q 1191 994 1439 701 
Q 1688 409 2113 409 
Q 2538 409 2786 701 
Q 3034 994 3034 1497 
Q 3034 2003 2786 2293 
Q 2538 2584 2113 2584 
z
M 3366 4563 
L 3366 3988 
Q 3128 4100 2886 4159 
Q 2644 4219 2406 4219 
Q 1781 4219 1451 3797 
Q 1122 3375 1075 2522 
Q 1259 2794 1537 2939 
Q 1816 3084 2150 3084 
Q 2853 3084 3261 2657 
Q 3669 2231 3669 1497 
Q 3669 778 3244 343 
Q 2819 -91 2113 -91 
Q 1303 -91 875 529 
Q 447 1150 447 2328 
Q 447 3434 972 4092 
Q 1497 4750 2381 4750 
Q 2619 4750 2861 4703 
Q 3103 4656 3366 4563 
z
" transform="scale(0.015625)"/>
       </defs>
       <use xlink:href="#DejaVuSans-30"/>
       <use xlink:href="#DejaVuSans-2e" x="63.623047"/>
       <use xlink:href="#DejaVuSans-36" x="95.410156"/>
      </g>
     </g>
    </g>
    <g id="xtick_5">
     <g id="line2d_9">
      <path d="M 239.30717 228.96 
L 239.30717 7.2 
" clip-path="url(#p2c17da69cc)" style="fill: none; stroke: #b0b0b0; stroke-width: 0.8; stroke-linecap: square"/>
     </g>
     <g id="line2d_10">
      <g>
       <use xlink:href="#m294b160dcf" x="239.30717" y="228.96" style="stroke: #000000; stroke-width: 0.8"/>
      </g>
     </g>
     <g id="text_5">
      <!-- 0.8 -->
      <g transform="translate(231.355608 243.558437) scale(0.1 -0.1)">
       <defs>
        <path id="DejaVuSans-38" d="M 2034 2216 
Q 1584 2216 1326 1975 
Q 1069 1734 1069 1313 
Q 1069 891 1326 650 
Q 1584 409 2034 409 
Q 2484 409 2743 651 
Q 3003 894 3003 1313 
Q 3003 1734 2745 1975 
Q 2488 2216 2034 2216 
z
M 1403 2484 
Q 997 2584 770 2862 
Q 544 3141 544 3541 
Q 544 4100 942 4425 
Q 1341 4750 2034 4750 
Q 2731 4750 3128 4425 
Q 3525 4100 3525 3541 
Q 3525 3141 3298 2862 
Q 3072 2584 2669 2484 
Q 3125 2378 3379 2068 
Q 3634 1759 3634 1313 
Q 3634 634 3220 271 
Q 2806 -91 2034 -91 
Q 1263 -91 848 271 
Q 434 634 434 1313 
Q 434 1759 690 2068 
Q 947 2378 1403 2484 
z
M 1172 3481 
Q 1172 3119 1398 2916 
Q 1625 2713 2034 2713 
Q 2441 2713 2670 2916 
Q 2900 3119 2900 3481 
Q 2900 3844 2670 4047 
Q 2441 4250 2034 4250 
Q 1625 4250 1398 4047 
Q 1172 3844 1172 3481 
z
" transform="scale(0.015625)"/>
       </defs>
       <use xlink:href="#DejaVuSans-30"/>
       <use xlink:href="#DejaVuSans-2e" x="63.623047"/>
       <use xlink:href="#DejaVuSans-38" x="95.410156"/>
      </g>
     </g>
    </g>
    <g id="xtick_6">
     <g id="line2d_11">
      <path d="M 285.888688 228.96 
L 285.888688 7.2 
" clip-path="url(#p2c17da69cc)" style="fill: none; stroke: #b0b0b0; stroke-width: 0.8; stroke-linecap: square"/>
     </g>
     <g id="line2d_12">
      <g>
       <use xlink:href="#m294b160dcf" x="285.888688" y="228.96" style="stroke: #000000; stroke-width: 0.8"/>
      </g>
     </g>
     <g id="text_6">
      <!-- 1.0 -->
      <g transform="translate(277.937126 243.558437) scale(0.1 -0.1)">
       <defs>
        <path id="DejaVuSans-31" d="M 794 531 
L 1825 531 
L 1825 4091 
L 703 3866 
L 703 4441 
L 1819 4666 
L 2450 4666 
L 2450 531 
L 3481 531 
L 3481 0 
L 794 0 
L 794 531 
z
" transform="scale(0.015625)"/>
       </defs>
       <use xlink:href="#DejaVuSans-31"/>
       <use xlink:href="#DejaVuSans-2e" x="63.623047"/>
       <use xlink:href="#DejaVuSans-30" x="95.410156"/>
      </g>
     </g>
    </g>
    <g id="text_7">
     <!-- epsilon -->
     <g transform="translate(152.737713 257.236562) scale(0.1 -0.1)">
      <defs>
       <path id="DejaVuSans-65" d="M 3597 1894 
L 3597 1613 
L 953 1613 
Q 991 1019 1311 708 
Q 1631 397 2203 397 
Q 2534 397 2845 478 
Q 3156 559 3463 722 
L 3463 178 
Q 3153 47 2828 -22 
Q 2503 -91 2169 -91 
Q 1331 -91 842 396 
Q 353 884 353 1716 
Q 353 2575 817 3079 
Q 1281 3584 2069 3584 
Q 2775 3584 3186 3129 
Q 3597 2675 3597 1894 
z
M 3022 2063 
Q 3016 2534 2758 2815 
Q 2500 3097 2075 3097 
Q 1594 3097 1305 2825 
Q 1016 2553 972 2059 
L 3022 2063 
z
" transform="scale(0.015625)"/>
       <path id="DejaVuSans-70" d="M 1159 525 
L 1159 -1331 
L 581 -1331 
L 581 3500 
L 1159 3500 
L 1159 2969 
Q 1341 3281 1617 3432 
Q 1894 3584 2278 3584 
Q 2916 3584 3314 3078 
Q 3713 2572 3713 1747 
Q 3713 922 3314 415 
Q 2916 -91 2278 -91 
Q 1894 -91 1617 61 
Q 1341 213 1159 525 
z
M 3116 1747 
Q 3116 2381 2855 2742 
Q 2594 3103 2138 3103 
Q 1681 3103 1420 2742 
Q 1159 2381 1159 1747 
Q 1159 1113 1420 752 
Q 1681 391 2138 391 
Q 2594 391 2855 752 
Q 3116 1113 3116 1747 
z
" transform="scale(0.015625)"/>
       <path id="DejaVuSans-73" d="M 2834 3397 
L 2834 2853 
Q 2591 2978 2328 3040 
Q 2066 3103 1784 3103 
Q 1356 3103 1142 2972 
Q 928 2841 928 2578 
Q 928 2378 1081 2264 
Q 1234 2150 1697 2047 
L 1894 2003 
Q 2506 1872 2764 1633 
Q 3022 1394 3022 966 
Q 3022 478 2636 193 
Q 2250 -91 1575 -91 
Q 1294 -91 989 -36 
Q 684 19 347 128 
L 347 722 
Q 666 556 975 473 
Q 1284 391 1588 391 
Q 1994 391 2212 530 
Q 2431 669 2431 922 
Q 2431 1156 2273 1281 
Q 2116 1406 1581 1522 
L 1381 1569 
Q 847 1681 609 1914 
Q 372 2147 372 2553 
Q 372 3047 722 3315 
Q 1072 3584 1716 3584 
Q 2034 3584 2315 3537 
Q 2597 3491 2834 3397 
z
" transform="scale(0.015625)"/>
       <path id="DejaVuSans-69" d="M 603 3500 
L 1178 3500 
L 1178 0 
L 603 0 
L 603 3500 
z
M 603 4863 
L 1178 4863 
L 1178 4134 
L 603 4134 
L 603 4863 
z
" transform="scale(0.015625)"/>
       <path id="DejaVuSans-6c" d="M 603 4863 
L 1178 4863 
L 1178 0 
L 603 0 
L 603 4863 
z
" transform="scale(0.015625)"/>
       <path id="DejaVuSans-6f" d="M 1959 3097 
Q 1497 3097 1228 2736 
Q 959 2375 959 1747 
Q 959 1119 1226 758 
Q 1494 397 1959 397 
Q 2419 397 2687 759 
Q 2956 1122 2956 1747 
Q 2956 2369 2687 2733 
Q 2419 3097 1959 3097 
z
M 1959 3584 
Q 2709 3584 3137 3096 
Q 3566 2609 3566 1747 
Q 3566 888 3137 398 
Q 2709 -91 1959 -91 
Q 1206 -91 779 398 
Q 353 888 353 1747 
Q 353 2609 779 3096 
Q 1206 3584 1959 3584 
z
" transform="scale(0.015625)"/>
       <path id="DejaVuSans-6e" d="M 3513 2113 
L 3513 0 
L 2938 0 
L 2938 2094 
Q 2938 2591 2744 2837 
Q 2550 3084 2163 3084 
Q 1697 3084 1428 2787 
Q 1159 2491 1159 1978 
L 1159 0 
L 581 0 
L 581 3500 
L 1159 3500 
L 1159 2956 
Q 1366 3272 1645 3428 
Q 1925 3584 2291 3584 
Q 2894 3584 3203 3211 
Q 3513 2838 3513 2113 
z
" transform="scale(0.015625)"/>
      </defs>
      <use xlink:href="#DejaVuSans-65"/>
      <use xlink:href="#DejaVuSans-70" x="61.523438"/>
      <use xlink:href="#DejaVuSans-73" x="125"/>
      <use xlink:href="#DejaVuSans-69" x="177.099609"/>
      <use xlink:href="#DejaVuSans-6c" x="204.882812"/>
      <use xlink:href="#DejaVuSans-6f" x="232.666016"/>
      <use xlink:href="#DejaVuSans-6e" x="293.847656"/>
     </g>
    </g>
   </g>
   <g id="matplotlib.axis_2">
    <g id="ytick_1">
     <g id="line2d_13">
      <path d="M 43.78125 218.885453 
L 297.417614 218.885453 
" clip-path="url(#p2c17da69cc)" style="fill: none; stroke: #b0b0b0; stroke-width: 0.8; stroke-linecap: square"/>
     </g>
     <g id="line2d_14">
      <defs>
       <path id="m9926946cab" d="M 0 0 
L -3.5 0 
" style="stroke: #000000; stroke-width: 0.8"/>
      </defs>
      <g>
       <use xlink:href="#m9926946cab" x="43.78125" y="218.885453" style="stroke: #000000; stroke-width: 0.8"/>
      </g>
     </g>
     <g id="text_8">
      <!-- 0.0 -->
      <g transform="translate(20.878125 222.684672) scale(0.1 -0.1)">
       <use xlink:href="#DejaVuSans-30"/>
       <use xlink:href="#DejaVuSans-2e" x="63.623047"/>
       <use xlink:href="#DejaVuSans-30" x="95.410156"/>
      </g>
     </g>
    </g>
    <g id="ytick_2">
     <g id="line2d_15">
      <path d="M 43.78125 175.258972 
L 297.417614 175.258972 
" clip-path="url(#p2c17da69cc)" style="fill: none; stroke: #b0b0b0; stroke-width: 0.8; stroke-linecap: square"/>
     </g>
     <g id="line2d_16">
      <g>
       <use xlink:href="#m9926946cab" x="43.78125" y="175.258972" style="stroke: #000000; stroke-width: 0.8"/>
      </g>
     </g>
     <g id="text_9">
      <!-- 0.1 -->
      <g transform="translate(20.878125 179.058191) scale(0.1 -0.1)">
       <use xlink:href="#DejaVuSans-30"/>
       <use xlink:href="#DejaVuSans-2e" x="63.623047"/>
       <use xlink:href="#DejaVuSans-31" x="95.410156"/>
      </g>
     </g>
    </g>
    <g id="ytick_3">
     <g id="line2d_17">
      <path d="M 43.78125 131.632492 
L 297.417614 131.632492 
" clip-path="url(#p2c17da69cc)" style="fill: none; stroke: #b0b0b0; stroke-width: 0.8; stroke-linecap: square"/>
     </g>
     <g id="line2d_18">
      <g>
       <use xlink:href="#m9926946cab" x="43.78125" y="131.632492" style="stroke: #000000; stroke-width: 0.8"/>
      </g>
     </g>
     <g id="text_10">
      <!-- 0.2 -->
      <g transform="translate(20.878125 135.43171) scale(0.1 -0.1)">
       <use xlink:href="#DejaVuSans-30"/>
       <use xlink:href="#DejaVuSans-2e" x="63.623047"/>
       <use xlink:href="#DejaVuSans-32" x="95.410156"/>
      </g>
     </g>
    </g>
    <g id="ytick_4">
     <g id="line2d_19">
      <path d="M 43.78125 88.006011 
L 297.417614 88.006011 
" clip-path="url(#p2c17da69cc)" style="fill: none; stroke: #b0b0b0; stroke-width: 0.8; stroke-linecap: square"/>
     </g>
     <g id="line2d_20">
      <g>
       <use xlink:href="#m9926946cab" x="43.78125" y="88.006011" style="stroke: #000000; stroke-width: 0.8"/>
      </g>
     </g>
     <g id="text_11">
      <!-- 0.3 -->
      <g transform="translate(20.878125 91.805229) scale(0.1 -0.1)">
       <defs>
        <path id="DejaVuSans-33" d="M 2597 2516 
Q 3050 2419 3304 2112 
Q 3559 1806 3559 1356 
Q 3559 666 3084 287 
Q 2609 -91 1734 -91 
Q 1441 -91 1130 -33 
Q 819 25 488 141 
L 488 750 
Q 750 597 1062 519 
Q 1375 441 1716 441 
Q 2309 441 2620 675 
Q 2931 909 2931 1356 
Q 2931 1769 2642 2001 
Q 2353 2234 1838 2234 
L 1294 2234 
L 1294 2753 
L 1863 2753 
Q 2328 2753 2575 2939 
Q 2822 3125 2822 3475 
Q 2822 3834 2567 4026 
Q 2313 4219 1838 4219 
Q 1578 4219 1281 4162 
Q 984 4106 628 3988 
L 628 4550 
Q 988 4650 1302 4700 
Q 1616 4750 1894 4750 
Q 2613 4750 3031 4423 
Q 3450 4097 3450 3541 
Q 3450 3153 3228 2886 
Q 3006 2619 2597 2516 
z
" transform="scale(0.015625)"/>
       </defs>
       <use xlink:href="#DejaVuSans-30"/>
       <use xlink:href="#DejaVuSans-2e" x="63.623047"/>
       <use xlink:href="#DejaVuSans-33" x="95.410156"/>
      </g>
     </g>
    </g>
    <g id="ytick_5">
     <g id="line2d_21">
      <path d="M 43.78125 44.37953 
L 297.417614 44.37953 
" clip-path="url(#p2c17da69cc)" style="fill: none; stroke: #b0b0b0; stroke-width: 0.8; stroke-linecap: square"/>
     </g>
     <g id="line2d_22">
      <g>
       <use xlink:href="#m9926946cab" x="43.78125" y="44.37953" style="stroke: #000000; stroke-width: 0.8"/>
      </g>
     </g>
     <g id="text_12">
      <!-- 0.4 -->
      <g transform="translate(20.878125 48.178748) scale(0.1 -0.1)">
       <use xlink:href="#DejaVuSans-30"/>
       <use xlink:href="#DejaVuSans-2e" x="63.623047"/>
       <use xlink:href="#DejaVuSans-34" x="95.410156"/>
      </g>
     </g>
    </g>
    <g id="text_13">
     <!-- rho -->
     <g transform="translate(14.798438 126.276094) rotate(-90) scale(0.1 -0.1)">
      <defs>
       <path id="DejaVuSans-72" d="M 2631 2963 
Q 2534 3019 2420 3045 
Q 2306 3072 2169 3072 
Q 1681 3072 1420 2755 
Q 1159 2438 1159 1844 
L 1159 0 
L 581 0 
L 581 3500 
L 1159 3500 
L 1159 2956 
Q 1341 3275 1631 3429 
Q 1922 3584 2338 3584 
Q 2397 3584 2469 3576 
Q 2541 3569 2628 3553 
L 2631 2963 
z
" transform="scale(0.015625)"/>
       <path id="DejaVuSans-68" d="M 3513 2113 
L 3513 0 
L 2938 0 
L 2938 2094 
Q 2938 2591 2744 2837 
Q 2550 3084 2163 3084 
Q 1697 3084 1428 2787 
Q 1159 2491 1159 1978 
L 1159 0 
L 581 0 
L 581 4863 
L 1159 4863 
L 1159 2956 
Q 1366 3272 1645 3428 
Q 1925 3584 2291 3584 
Q 2894 3584 3203 3211 
Q 3513 2838 3513 2113 
z
" transform="scale(0.015625)"/>
      </defs>
      <use xlink:href="#DejaVuSans-72"/>
      <use xlink:href="#DejaVuSans-68" x="39.363281"/>
      <use xlink:href="#DejaVuSans-6f" x="102.742188"/>
     </g>
    </g>
   </g>
   <g id="line2d_23">
    <path d="M 55.310176 218.88 
L 57.639252 218.86364 
L 59.968327 218.836374 
L 62.297403 218.798203 
L 64.626479 218.749128 
L 66.955555 218.689149 
L 69.284631 218.618268 
L 71.613707 218.536488 
L 73.942783 218.44381 
L 76.271859 218.340236 
L 78.600934 218.225769 
L 80.93001 218.100412 
L 83.259086 217.964168 
L 85.588162 217.817041 
L 87.917238 217.659033 
L 90.246314 217.49015 
L 92.57539 217.310395 
L 94.904466 217.119772 
L 97.233542 216.918288 
L 99.562617 216.705945 
L 101.891693 216.482751 
L 104.220769 216.248709 
L 106.549845 216.003827 
L 108.878921 215.748111 
L 111.207997 215.481565 
L 113.537073 215.204199 
L 115.866149 214.916017 
L 118.195224 214.617028 
L 120.5243 214.307238 
L 122.853376 213.986656 
L 125.182452 213.655289 
L 127.511528 213.313146 
L 129.840604 212.960235 
L 132.16968 212.596565 
L 134.498756 212.222145 
L 136.827832 211.836984 
L 139.156907 211.441092 
L 141.485983 211.034478 
L 143.815059 210.617152 
L 146.144135 210.189126 
L 148.473211 209.750408 
L 150.802287 209.301011 
L 153.131363 208.840945 
L 155.460439 208.370222 
L 157.789514 207.888853 
L 160.11859 207.39685 
L 162.447666 206.894225 
L 164.776742 206.380991 
L 167.105818 205.857159 
L 169.434894 205.322744 
L 171.76397 204.777757 
L 174.093046 204.222213 
L 176.422122 203.656124 
L 178.751197 203.079506 
L 181.080273 202.492371 
L 183.409349 201.894734 
L 185.738425 201.28661 
L 188.067501 200.668013 
L 190.396577 200.038959 
L 192.725653 199.399463 
L 195.054729 198.74954 
L 197.383804 198.089206 
L 199.71288 197.418478 
L 202.041956 196.73737 
L 204.371032 196.045901 
L 206.700108 195.344086 
L 209.029184 194.631942 
L 211.35826 193.909487 
L 213.687336 193.176738 
L 216.016412 192.433712 
L 218.345487 191.680428 
L 220.674563 190.916904 
L 223.003639 190.143157 
L 225.332715 189.359206 
L 227.661791 188.565071 
L 229.990867 187.76077 
L 232.319943 186.946321 
L 234.649019 186.121746 
L 236.978094 185.287062 
L 239.30717 184.442291 
L 241.636246 183.587451 
L 243.965322 182.722564 
L 246.294398 181.84765 
L 248.623474 180.962729 
L 250.95255 180.067823 
L 253.281626 179.162951 
L 255.610702 178.248137 
L 257.939777 177.323401 
L 260.268853 176.388764 
L 262.597929 175.444249 
L 264.927005 174.489879 
L 267.256081 173.525674 
L 269.585157 172.551658 
L 271.914233 171.567853 
L 274.243309 170.574283 
L 276.572384 169.570969 
L 278.90146 168.557937 
L 281.230536 167.535208 
L 283.559612 166.502806 
L 285.888688 165.460757 
" clip-path="url(#p2c17da69cc)" style="fill: none; stroke: #1f77b4; stroke-width: 1.5; stroke-linecap: square"/>
   </g>
   <g id="line2d_24">
    <path d="M 55.310176 218.86364 
L 57.639252 218.798203 
L 59.968327 218.689149 
L 62.297403 218.536488 
L 64.626479 218.340236 
L 66.955555 218.100412 
L 69.284631 217.817041 
L 71.613707 217.49015 
L 73.942783 217.119772 
L 76.271859 216.705945 
L 78.600934 216.248709 
L 80.93001 215.748111 
L 83.259086 215.204199 
L 85.588162 214.617028 
L 87.917238 213.986656 
L 90.246314 213.313146 
L 92.57539 212.596565 
L 94.904466 211.836984 
L 97.233542 211.034478 
L 99.562617 210.189126 
L 101.891693 209.301011 
L 104.220769 208.370222 
L 106.549845 207.39685 
L 108.878921 206.380991 
L 111.207997 205.322744 
L 113.537073 204.222213 
L 115.866149 203.079506 
L 118.195224 201.894734 
L 120.5243 200.668013 
L 122.853376 199.399463 
L 125.182452 198.089206 
L 127.511528 196.73737 
L 129.840604 195.344086 
L 132.16968 193.909487 
L 134.498756 192.433712 
L 136.827832 190.916904 
L 139.156907 189.359206 
L 141.485983 187.76077 
L 143.815059 186.121746 
L 146.144135 184.442291 
L 148.473211 182.722564 
L 150.802287 180.962729 
L 153.131363 179.162951 
L 155.460439 177.323401 
L 157.789514 175.444249 
L 160.11859 173.525674 
L 162.447666 171.567853 
L 164.776742 169.570969 
L 167.105818 167.535208 
L 169.434894 165.460757 
L 171.76397 163.347807 
L 174.093046 161.196553 
L 176.422122 159.007193 
L 178.751197 156.779925 
L 181.080273 154.514952 
L 183.409349 152.212479 
L 185.738425 149.872715 
L 188.067501 147.495869 
L 190.396577 145.082155 
L 192.725653 142.631789 
L 195.054729 140.144987 
L 197.383804 137.621971 
L 199.71288 135.062963 
L 202.041956 132.468187 
L 204.371032 129.837872 
L 206.700108 127.172245 
L 209.029184 124.471539 
L 211.35826 121.735986 
L 213.687336 118.965822 
L 216.016412 116.161285 
L 218.345487 113.322612 
L 220.674563 110.450044 
L 223.003639 107.543826 
L 225.332715 104.604199 
L 227.661791 101.631412 
L 229.990867 98.62571 
L 232.319943 95.587344 
L 234.649019 92.516562 
L 236.978094 89.413618 
L 239.30717 86.278764 
L 241.636246 83.112255 
L 243.965322 79.914346 
L 246.294398 76.685295 
L 248.623474 73.425359 
L 250.95255 70.134797 
L 253.281626 66.813869 
L 255.610702 63.462837 
L 257.939777 60.081961 
L 260.268853 56.671506 
L 262.597929 53.231733 
L 264.927005 49.762908 
L 267.256081 46.265296 
L 269.585157 42.739161 
L 271.914233 39.184769 
L 274.243309 35.602389 
L 276.572384 31.992285 
L 278.90146 28.354727 
L 281.230536 24.689981 
L 283.559612 20.998316 
L 285.888688 17.28 
" clip-path="url(#p2c17da69cc)" style="fill: none; stroke-dasharray: 9.6,2.4,1.5,2.4; stroke-dashoffset: 0; stroke: #ff7f0e; stroke-width: 1.5"/>
   </g>
   <g id="patch_3">
    <path d="M 43.78125 228.96 
L 43.78125 7.2 
" style="fill: none; stroke: #000000; stroke-width: 0.8; stroke-linejoin: miter; stroke-linecap: square"/>
   </g>
   <g id="patch_4">
    <path d="M 297.417614 228.96 
L 297.417614 7.2 
" style="fill: none; stroke: #000000; stroke-width: 0.8; stroke-linejoin: miter; stroke-linecap: square"/>
   </g>
   <g id="patch_5">
    <path d="M 43.78125 228.96 
L 297.417614 228.96 
" style="fill: none; stroke: #000000; stroke-width: 0.8; stroke-linejoin: miter; stroke-linecap: square"/>
   </g>
   <g id="patch_6">
    <path d="M 43.78125 7.2 
L 297.417614 7.2 
" style="fill: none; stroke: #000000; stroke-width: 0.8; stroke-linejoin: miter; stroke-linecap: square"/>
   </g>
   <g id="legend_1">
    <g id="patch_7">
     <path d="M 50.78125 44.55625 
L 216.407813 44.55625 
Q 218.407813 44.55625 218.407813 42.55625 
L 218.407813 14.2 
Q 218.407813 12.2 216.407813 12.2 
L 50.78125 12.2 
Q 48.78125 12.2 48.78125 14.2 
L 48.78125 42.55625 
Q 48.78125 44.55625 50.78125 44.55625 
z
" style="fill: #ffffff; opacity: 0.8; stroke: #cccccc; stroke-linejoin: miter"/>
    </g>
    <g id="line2d_25">
     <path d="M 52.78125 20.298437 
L 62.78125 20.298437 
L 72.78125 20.298437 
" style="fill: none; stroke: #1f77b4; stroke-width: 1.5; stroke-linecap: square"/>
    </g>
    <g id="text_14">
     <!-- RAPPOR (thm 4) -->
     <g transform="translate(80.78125 23.798437) scale(0.1 -0.1)">
      <defs>
       <path id="DejaVuSans-52" d="M 2841 2188 
Q 3044 2119 3236 1894 
Q 3428 1669 3622 1275 
L 4263 0 
L 3584 0 
L 2988 1197 
Q 2756 1666 2539 1819 
Q 2322 1972 1947 1972 
L 1259 1972 
L 1259 0 
L 628 0 
L 628 4666 
L 2053 4666 
Q 2853 4666 3247 4331 
Q 3641 3997 3641 3322 
Q 3641 2881 3436 2590 
Q 3231 2300 2841 2188 
z
M 1259 4147 
L 1259 2491 
L 2053 2491 
Q 2509 2491 2742 2702 
Q 2975 2913 2975 3322 
Q 2975 3731 2742 3939 
Q 2509 4147 2053 4147 
L 1259 4147 
z
" transform="scale(0.015625)"/>
       <path id="DejaVuSans-41" d="M 2188 4044 
L 1331 1722 
L 3047 1722 
L 2188 4044 
z
M 1831 4666 
L 2547 4666 
L 4325 0 
L 3669 0 
L 3244 1197 
L 1141 1197 
L 716 0 
L 50 0 
L 1831 4666 
z
" transform="scale(0.015625)"/>
       <path id="DejaVuSans-50" d="M 1259 4147 
L 1259 2394 
L 2053 2394 
Q 2494 2394 2734 2622 
Q 2975 2850 2975 3272 
Q 2975 3691 2734 3919 
Q 2494 4147 2053 4147 
L 1259 4147 
z
M 628 4666 
L 2053 4666 
Q 2838 4666 3239 4311 
Q 3641 3956 3641 3272 
Q 3641 2581 3239 2228 
Q 2838 1875 2053 1875 
L 1259 1875 
L 1259 0 
L 628 0 
L 628 4666 
z
" transform="scale(0.015625)"/>
       <path id="DejaVuSans-4f" d="M 2522 4238 
Q 1834 4238 1429 3725 
Q 1025 3213 1025 2328 
Q 1025 1447 1429 934 
Q 1834 422 2522 422 
Q 3209 422 3611 934 
Q 4013 1447 4013 2328 
Q 4013 3213 3611 3725 
Q 3209 4238 2522 4238 
z
M 2522 4750 
Q 3503 4750 4090 4092 
Q 4678 3434 4678 2328 
Q 4678 1225 4090 567 
Q 3503 -91 2522 -91 
Q 1538 -91 948 565 
Q 359 1222 359 2328 
Q 359 3434 948 4092 
Q 1538 4750 2522 4750 
z
" transform="scale(0.015625)"/>
       <path id="DejaVuSans-20" transform="scale(0.015625)"/>
       <path id="DejaVuSans-28" d="M 1984 4856 
Q 1566 4138 1362 3434 
Q 1159 2731 1159 2009 
Q 1159 1288 1364 580 
Q 1569 -128 1984 -844 
L 1484 -844 
Q 1016 -109 783 600 
Q 550 1309 550 2009 
Q 550 2706 781 3412 
Q 1013 4119 1484 4856 
L 1984 4856 
z
" transform="scale(0.015625)"/>
       <path id="DejaVuSans-74" d="M 1172 4494 
L 1172 3500 
L 2356 3500 
L 2356 3053 
L 1172 3053 
L 1172 1153 
Q 1172 725 1289 603 
Q 1406 481 1766 481 
L 2356 481 
L 2356 0 
L 1766 0 
Q 1100 0 847 248 
Q 594 497 594 1153 
L 594 3053 
L 172 3053 
L 172 3500 
L 594 3500 
L 594 4494 
L 1172 4494 
z
" transform="scale(0.015625)"/>
       <path id="DejaVuSans-6d" d="M 3328 2828 
Q 3544 3216 3844 3400 
Q 4144 3584 4550 3584 
Q 5097 3584 5394 3201 
Q 5691 2819 5691 2113 
L 5691 0 
L 5113 0 
L 5113 2094 
Q 5113 2597 4934 2840 
Q 4756 3084 4391 3084 
Q 3944 3084 3684 2787 
Q 3425 2491 3425 1978 
L 3425 0 
L 2847 0 
L 2847 2094 
Q 2847 2600 2669 2842 
Q 2491 3084 2119 3084 
Q 1678 3084 1418 2786 
Q 1159 2488 1159 1978 
L 1159 0 
L 581 0 
L 581 3500 
L 1159 3500 
L 1159 2956 
Q 1356 3278 1631 3431 
Q 1906 3584 2284 3584 
Q 2666 3584 2933 3390 
Q 3200 3197 3328 2828 
z
" transform="scale(0.015625)"/>
       <path id="DejaVuSans-29" d="M 513 4856 
L 1013 4856 
Q 1481 4119 1714 3412 
Q 1947 2706 1947 2009 
Q 1947 1309 1714 600 
Q 1481 -109 1013 -844 
L 513 -844 
Q 928 -128 1133 580 
Q 1338 1288 1338 2009 
Q 1338 2731 1133 3434 
Q 928 4138 513 4856 
z
" transform="scale(0.015625)"/>
      </defs>
      <use xlink:href="#DejaVuSans-52"/>
      <use xlink:href="#DejaVuSans-41" x="65.482422"/>
      <use xlink:href="#DejaVuSans-50" x="133.890625"/>
      <use xlink:href="#DejaVuSans-50" x="194.193359"/>
      <use xlink:href="#DejaVuSans-4f" x="254.496094"/>
      <use xlink:href="#DejaVuSans-52" x="333.207031"/>
      <use xlink:href="#DejaVuSans-20" x="402.689453"/>
      <use xlink:href="#DejaVuSans-28" x="434.476562"/>
      <use xlink:href="#DejaVuSans-74" x="473.490234"/>
      <use xlink:href="#DejaVuSans-68" x="512.699219"/>
      <use xlink:href="#DejaVuSans-6d" x="576.078125"/>
      <use xlink:href="#DejaVuSans-20" x="673.490234"/>
      <use xlink:href="#DejaVuSans-34" x="705.277344"/>
      <use xlink:href="#DejaVuSans-29" x="768.900391"/>
     </g>
    </g>
    <g id="line2d_26">
     <path d="M 52.78125 34.976562 
L 62.78125 34.976562 
L 72.78125 34.976562 
" style="fill: none; stroke-dasharray: 9.6,2.4,1.5,2.4; stroke-dashoffset: 0; stroke: #ff7f0e; stroke-width: 1.5"/>
    </g>
    <g id="text_15">
     <!-- zCDP upper bound (thm 3) -->
     <g transform="translate(80.78125 38.476562) scale(0.1 -0.1)">
      <defs>
       <path id="DejaVuSans-7a" d="M 353 3500 
L 3084 3500 
L 3084 2975 
L 922 459 
L 3084 459 
L 3084 0 
L 275 0 
L 275 525 
L 2438 3041 
L 353 3041 
L 353 3500 
z
" transform="scale(0.015625)"/>
       <path id="DejaVuSans-43" d="M 4122 4306 
L 4122 3641 
Q 3803 3938 3442 4084 
Q 3081 4231 2675 4231 
Q 1875 4231 1450 3742 
Q 1025 3253 1025 2328 
Q 1025 1406 1450 917 
Q 1875 428 2675 428 
Q 3081 428 3442 575 
Q 3803 722 4122 1019 
L 4122 359 
Q 3791 134 3420 21 
Q 3050 -91 2638 -91 
Q 1578 -91 968 557 
Q 359 1206 359 2328 
Q 359 3453 968 4101 
Q 1578 4750 2638 4750 
Q 3056 4750 3426 4639 
Q 3797 4528 4122 4306 
z
" transform="scale(0.015625)"/>
       <path id="DejaVuSans-44" d="M 1259 4147 
L 1259 519 
L 2022 519 
Q 2988 519 3436 956 
Q 3884 1394 3884 2338 
Q 3884 3275 3436 3711 
Q 2988 4147 2022 4147 
L 1259 4147 
z
M 628 4666 
L 1925 4666 
Q 3281 4666 3915 4102 
Q 4550 3538 4550 2338 
Q 4550 1131 3912 565 
Q 3275 0 1925 0 
L 628 0 
L 628 4666 
z
" transform="scale(0.015625)"/>
       <path id="DejaVuSans-75" d="M 544 1381 
L 544 3500 
L 1119 3500 
L 1119 1403 
Q 1119 906 1312 657 
Q 1506 409 1894 409 
Q 2359 409 2629 706 
Q 2900 1003 2900 1516 
L 2900 3500 
L 3475 3500 
L 3475 0 
L 2900 0 
L 2900 538 
Q 2691 219 2414 64 
Q 2138 -91 1772 -91 
Q 1169 -91 856 284 
Q 544 659 544 1381 
z
M 1991 3584 
L 1991 3584 
z
" transform="scale(0.015625)"/>
       <path id="DejaVuSans-62" d="M 3116 1747 
Q 3116 2381 2855 2742 
Q 2594 3103 2138 3103 
Q 1681 3103 1420 2742 
Q 1159 2381 1159 1747 
Q 1159 1113 1420 752 
Q 1681 391 2138 391 
Q 2594 391 2855 752 
Q 3116 1113 3116 1747 
z
M 1159 2969 
Q 1341 3281 1617 3432 
Q 1894 3584 2278 3584 
Q 2916 3584 3314 3078 
Q 3713 2572 3713 1747 
Q 3713 922 3314 415 
Q 2916 -91 2278 -91 
Q 1894 -91 1617 61 
Q 1341 213 1159 525 
L 1159 0 
L 581 0 
L 581 4863 
L 1159 4863 
L 1159 2969 
z
" transform="scale(0.015625)"/>
       <path id="DejaVuSans-64" d="M 2906 2969 
L 2906 4863 
L 3481 4863 
L 3481 0 
L 2906 0 
L 2906 525 
Q 2725 213 2448 61 
Q 2172 -91 1784 -91 
Q 1150 -91 751 415 
Q 353 922 353 1747 
Q 353 2572 751 3078 
Q 1150 3584 1784 3584 
Q 2172 3584 2448 3432 
Q 2725 3281 2906 2969 
z
M 947 1747 
Q 947 1113 1208 752 
Q 1469 391 1925 391 
Q 2381 391 2643 752 
Q 2906 1113 2906 1747 
Q 2906 2381 2643 2742 
Q 2381 3103 1925 3103 
Q 1469 3103 1208 2742 
Q 947 2381 947 1747 
z
" transform="scale(0.015625)"/>
      </defs>
      <use xlink:href="#DejaVuSans-7a"/>
      <use xlink:href="#DejaVuSans-43" x="52.490234"/>
      <use xlink:href="#DejaVuSans-44" x="122.314453"/>
      <use xlink:href="#DejaVuSans-50" x="199.316406"/>
      <use xlink:href="#DejaVuSans-20" x="259.619141"/>
      <use xlink:href="#DejaVuSans-75" x="291.40625"/>
      <use xlink:href="#DejaVuSans-70" x="354.785156"/>
      <use xlink:href="#DejaVuSans-70" x="418.261719"/>
      <use xlink:href="#DejaVuSans-65" x="481.738281"/>
      <use xlink:href="#DejaVuSans-72" x="543.261719"/>
      <use xlink:href="#DejaVuSans-20" x="584.375"/>
      <use xlink:href="#DejaVuSans-62" x="616.162109"/>
      <use xlink:href="#DejaVuSans-6f" x="679.638672"/>
      <use xlink:href="#DejaVuSans-75" x="740.820312"/>
      <use xlink:href="#DejaVuSans-6e" x="804.199219"/>
      <use xlink:href="#DejaVuSans-64" x="867.578125"/>
      <use xlink:href="#DejaVuSans-20" x="931.054688"/>
      <use xlink:href="#DejaVuSans-28" x="962.841797"/>
      <use xlink:href="#DejaVuSans-74" x="1001.855469"/>
      <use xlink:href="#DejaVuSans-68" x="1041.064453"/>
      <use xlink:href="#DejaVuSans-6d" x="1104.443359"/>
      <use xlink:href="#DejaVuSans-20" x="1201.855469"/>
      <use xlink:href="#DejaVuSans-33" x="1233.642578"/>
      <use xlink:href="#DejaVuSans-29" x="1297.265625"/>
     </g>
    </g>
   </g>
  </g>
  <g id="axes_2">
   <g id="patch_8">
    <path d="M 348.144886 228.96 
L 601.78125 228.96 
L 601.78125 7.2 
L 348.144886 7.2 
z
" style="fill: #ffffff"/>
   </g>
   <g id="matplotlib.axis_3">
    <g id="xtick_7">
     <g id="line2d_27">
      <path d="M 359.443003 228.96 
L 359.443003 7.2 
" clip-path="url(#pad53fb87ee)" style="fill: none; stroke: #b0b0b0; stroke-width: 0.8; stroke-linecap: square"/>
     </g>
     <g id="line2d_28">
      <g>
       <use xlink:href="#m294b160dcf" x="359.443003" y="228.96" style="stroke: #000000; stroke-width: 0.8"/>
      </g>
     </g>
     <g id="text_16">
      <!-- 0 -->
      <g transform="translate(356.261753 243.558437) scale(0.1 -0.1)">
       <use xlink:href="#DejaVuSans-30"/>
      </g>
     </g>
    </g>
    <g id="xtick_8">
     <g id="line2d_29">
      <path d="M 405.604867 228.96 
L 405.604867 7.2 
" clip-path="url(#pad53fb87ee)" style="fill: none; stroke: #b0b0b0; stroke-width: 0.8; stroke-linecap: square"/>
     </g>
     <g id="line2d_30">
      <g>
       <use xlink:href="#m294b160dcf" x="405.604867" y="228.96" style="stroke: #000000; stroke-width: 0.8"/>
      </g>
     </g>
     <g id="text_17">
      <!-- 2 -->
      <g transform="translate(402.423617 243.558437) scale(0.1 -0.1)">
       <use xlink:href="#DejaVuSans-32"/>
      </g>
     </g>
    </g>
    <g id="xtick_9">
     <g id="line2d_31">
      <path d="M 451.766731 228.96 
L 451.766731 7.2 
" clip-path="url(#pad53fb87ee)" style="fill: none; stroke: #b0b0b0; stroke-width: 0.8; stroke-linecap: square"/>
     </g>
     <g id="line2d_32">
      <g>
       <use xlink:href="#m294b160dcf" x="451.766731" y="228.96" style="stroke: #000000; stroke-width: 0.8"/>
      </g>
     </g>
     <g id="text_18">
      <!-- 4 -->
      <g transform="translate(448.585481 243.558437) scale(0.1 -0.1)">
       <use xlink:href="#DejaVuSans-34"/>
      </g>
     </g>
    </g>
    <g id="xtick_10">
     <g id="line2d_33">
      <path d="M 497.928596 228.96 
L 497.928596 7.2 
" clip-path="url(#pad53fb87ee)" style="fill: none; stroke: #b0b0b0; stroke-width: 0.8; stroke-linecap: square"/>
     </g>
     <g id="line2d_34">
      <g>
       <use xlink:href="#m294b160dcf" x="497.928596" y="228.96" style="stroke: #000000; stroke-width: 0.8"/>
      </g>
     </g>
     <g id="text_19">
      <!-- 6 -->
      <g transform="translate(494.747346 243.558437) scale(0.1 -0.1)">
       <use xlink:href="#DejaVuSans-36"/>
      </g>
     </g>
    </g>
    <g id="xtick_11">
     <g id="line2d_35">
      <path d="M 544.09046 228.96 
L 544.09046 7.2 
" clip-path="url(#pad53fb87ee)" style="fill: none; stroke: #b0b0b0; stroke-width: 0.8; stroke-linecap: square"/>
     </g>
     <g id="line2d_36">
      <g>
       <use xlink:href="#m294b160dcf" x="544.09046" y="228.96" style="stroke: #000000; stroke-width: 0.8"/>
      </g>
     </g>
     <g id="text_20">
      <!-- 8 -->
      <g transform="translate(540.90921 243.558437) scale(0.1 -0.1)">
       <use xlink:href="#DejaVuSans-38"/>
      </g>
     </g>
    </g>
    <g id="xtick_12">
     <g id="line2d_37">
      <path d="M 590.252324 228.96 
L 590.252324 7.2 
" clip-path="url(#pad53fb87ee)" style="fill: none; stroke: #b0b0b0; stroke-width: 0.8; stroke-linecap: square"/>
     </g>
     <g id="line2d_38">
      <g>
       <use xlink:href="#m294b160dcf" x="590.252324" y="228.96" style="stroke: #000000; stroke-width: 0.8"/>
      </g>
     </g>
     <g id="text_21">
      <!-- 10 -->
      <g transform="translate(583.889824 243.558437) scale(0.1 -0.1)">
       <use xlink:href="#DejaVuSans-31"/>
       <use xlink:href="#DejaVuSans-30" x="63.623047"/>
      </g>
     </g>
    </g>
    <g id="text_22">
     <!-- epsilon -->
     <g transform="translate(457.101349 257.236562) scale(0.1 -0.1)">
      <use xlink:href="#DejaVuSans-65"/>
      <use xlink:href="#DejaVuSans-70" x="61.523438"/>
      <use xlink:href="#DejaVuSans-73" x="125"/>
      <use xlink:href="#DejaVuSans-69" x="177.099609"/>
      <use xlink:href="#DejaVuSans-6c" x="204.882812"/>
      <use xlink:href="#DejaVuSans-6f" x="232.666016"/>
      <use xlink:href="#DejaVuSans-6e" x="293.847656"/>
     </g>
    </g>
   </g>
   <g id="matplotlib.axis_4">
    <g id="ytick_6">
     <g id="line2d_39">
      <path d="M 348.144886 218.880252 
L 601.78125 218.880252 
" clip-path="url(#pad53fb87ee)" style="fill: none; stroke: #b0b0b0; stroke-width: 0.8; stroke-linecap: square"/>
     </g>
     <g id="line2d_40">
      <g>
       <use xlink:href="#m9926946cab" x="348.144886" y="218.880252" style="stroke: #000000; stroke-width: 0.8"/>
      </g>
     </g>
     <g id="text_23">
      <!-- 0 -->
      <g transform="translate(334.782386 222.679471) scale(0.1 -0.1)">
       <use xlink:href="#DejaVuSans-30"/>
      </g>
     </g>
    </g>
    <g id="ytick_7">
     <g id="line2d_41">
      <path d="M 348.144886 178.55654 
L 601.78125 178.55654 
" clip-path="url(#pad53fb87ee)" style="fill: none; stroke: #b0b0b0; stroke-width: 0.8; stroke-linecap: square"/>
     </g>
     <g id="line2d_42">
      <g>
       <use xlink:href="#m9926946cab" x="348.144886" y="178.55654" style="stroke: #000000; stroke-width: 0.8"/>
      </g>
     </g>
     <g id="text_24">
      <!-- 2 -->
      <g transform="translate(334.782386 182.355759) scale(0.1 -0.1)">
       <use xlink:href="#DejaVuSans-32"/>
      </g>
     </g>
    </g>
    <g id="ytick_8">
     <g id="line2d_43">
      <path d="M 348.144886 138.232829 
L 601.78125 138.232829 
" clip-path="url(#pad53fb87ee)" style="fill: none; stroke: #b0b0b0; stroke-width: 0.8; stroke-linecap: square"/>
     </g>
     <g id="line2d_44">
      <g>
       <use xlink:href="#m9926946cab" x="348.144886" y="138.232829" style="stroke: #000000; stroke-width: 0.8"/>
      </g>
     </g>
     <g id="text_25">
      <!-- 4 -->
      <g transform="translate(334.782386 142.032048) scale(0.1 -0.1)">
       <use xlink:href="#DejaVuSans-34"/>
      </g>
     </g>
    </g>
    <g id="ytick_9">
     <g id="line2d_45">
      <path d="M 348.144886 97.909117 
L 601.78125 97.909117 
" clip-path="url(#pad53fb87ee)" style="fill: none; stroke: #b0b0b0; stroke-width: 0.8; stroke-linecap: square"/>
     </g>
     <g id="line2d_46">
      <g>
       <use xlink:href="#m9926946cab" x="348.144886" y="97.909117" style="stroke: #000000; stroke-width: 0.8"/>
      </g>
     </g>
     <g id="text_26">
      <!-- 6 -->
      <g transform="translate(334.782386 101.708336) scale(0.1 -0.1)">
       <use xlink:href="#DejaVuSans-36"/>
      </g>
     </g>
    </g>
    <g id="ytick_10">
     <g id="line2d_47">
      <path d="M 348.144886 57.585406 
L 601.78125 57.585406 
" clip-path="url(#pad53fb87ee)" style="fill: none; stroke: #b0b0b0; stroke-width: 0.8; stroke-linecap: square"/>
     </g>
     <g id="line2d_48">
      <g>
       <use xlink:href="#m9926946cab" x="348.144886" y="57.585406" style="stroke: #000000; stroke-width: 0.8"/>
      </g>
     </g>
     <g id="text_27">
      <!-- 8 -->
      <g transform="translate(334.782386 61.384624) scale(0.1 -0.1)">
       <use xlink:href="#DejaVuSans-38"/>
      </g>
     </g>
    </g>
    <g id="ytick_11">
     <g id="line2d_49">
      <path d="M 348.144886 17.261694 
L 601.78125 17.261694 
" clip-path="url(#pad53fb87ee)" style="fill: none; stroke: #b0b0b0; stroke-width: 0.8; stroke-linecap: square"/>
     </g>
     <g id="line2d_50">
      <g>
       <use xlink:href="#m9926946cab" x="348.144886" y="17.261694" style="stroke: #000000; stroke-width: 0.8"/>
      </g>
     </g>
     <g id="text_28">
      <!-- 10 -->
      <g transform="translate(328.419886 21.060913) scale(0.1 -0.1)">
       <use xlink:href="#DejaVuSans-31"/>
       <use xlink:href="#DejaVuSans-30" x="63.623047"/>
      </g>
     </g>
    </g>
    <g id="text_29">
     <!-- rho -->
     <g transform="translate(322.340199 126.276094) rotate(-90) scale(0.1 -0.1)">
      <use xlink:href="#DejaVuSans-72"/>
      <use xlink:href="#DejaVuSans-68" x="39.363281"/>
      <use xlink:href="#DejaVuSans-6f" x="102.742188"/>
     </g>
    </g>
   </g>
   <g id="line2d_51">
    <path d="M 359.673812 218.88 
L 362.002888 218.849259 
L 364.331964 218.767282 
L 366.66104 218.634278 
L 368.990116 218.450583 
L 371.319191 218.216659 
L 373.648267 217.93309 
L 375.977343 217.600579 
L 378.306419 217.219941 
L 380.635495 216.792098 
L 382.964571 216.318072 
L 385.293647 215.798979 
L 387.622723 215.23602 
L 389.951798 214.630472 
L 392.280874 213.983684 
L 394.60995 213.297063 
L 396.939026 212.57207 
L 399.268102 211.810207 
L 401.597178 211.013013 
L 403.926254 210.182052 
L 406.25533 209.318906 
L 408.584406 208.425168 
L 410.913481 207.502433 
L 413.242557 206.552291 
L 415.571633 205.576322 
L 417.900709 204.576088 
L 420.229785 203.553129 
L 422.558861 202.508953 
L 424.887937 201.44504 
L 427.217013 200.36283 
L 429.546088 199.263721 
L 431.875164 198.149071 
L 434.20424 197.020188 
L 436.533316 195.878332 
L 438.862392 194.724714 
L 441.191468 193.560491 
L 443.520544 192.386771 
L 445.84962 191.204605 
L 448.178696 190.014994 
L 450.507771 188.818884 
L 452.836847 187.617168 
L 455.165923 186.410691 
L 457.494999 185.200242 
L 459.824075 183.986562 
L 462.153151 182.770346 
L 464.482227 181.552237 
L 466.811303 180.332835 
L 469.140378 179.112697 
L 471.469454 177.892336 
L 473.79853 176.672223 
L 476.127606 175.452793 
L 478.456682 174.234441 
L 480.785758 173.017531 
L 483.114834 171.802388 
L 485.44391 170.589309 
L 487.772986 169.37856 
L 490.102061 168.170379 
L 492.431137 166.964977 
L 494.760213 165.762541 
L 497.089289 164.563234 
L 499.418365 163.367197 
L 501.747441 162.174552 
L 504.076517 160.9854 
L 506.405593 159.799827 
L 508.734668 158.6179 
L 511.063744 157.439675 
L 513.39282 156.26519 
L 515.721896 155.094472 
L 518.050972 153.927539 
L 520.380048 152.764393 
L 522.709124 151.605032 
L 525.0382 150.449441 
L 527.367276 149.297599 
L 529.696351 148.149478 
L 532.025427 147.005042 
L 534.354503 145.864252 
L 536.683579 144.727061 
L 539.012655 143.593419 
L 541.341731 142.463272 
L 543.670807 141.336562 
L 545.999883 140.213228 
L 548.328958 139.093207 
L 550.658034 137.976434 
L 552.98711 136.862841 
L 555.316186 135.75236 
L 557.645262 134.644921 
L 559.974338 133.540452 
L 562.303414 132.438884 
L 564.63249 131.340143 
L 566.961566 130.24416 
L 569.290641 129.150861 
L 571.619717 128.060175 
L 573.948793 126.972031 
L 576.277869 125.886359 
L 578.606945 124.803089 
L 580.936021 123.722151 
L 583.265097 122.643478 
L 585.594173 121.567001 
L 587.923248 120.492656 
L 590.252324 119.420376 
" clip-path="url(#pad53fb87ee)" style="fill: none; stroke: #1f77b4; stroke-width: 1.5; stroke-linecap: square"/>
   </g>
   <g id="line2d_52">
    <path d="M 359.673812 218.879244 
L 362.002888 218.756375 
L 364.331964 218.429635 
L 366.66104 217.902311 
L 368.990116 217.179634 
L 371.319191 216.268623 
L 373.648267 215.17789 
L 375.977343 213.917395 
L 378.306419 212.498191 
L 380.635495 210.932148 
L 382.964571 209.231677 
L 385.293647 207.409472 
L 387.622723 205.478258 
L 389.951798 203.450574 
L 392.280874 201.338588 
L 394.60995 199.153933 
L 396.939026 196.90759 
L 399.268102 194.609795 
L 401.597178 192.269979 
L 403.926254 189.896735 
L 406.25533 187.497807 
L 408.584406 185.0801 
L 410.913481 182.649706 
L 413.242557 180.211945 
L 415.571633 177.771405 
L 417.900709 175.332001 
L 420.229785 172.897027 
L 422.558861 170.469216 
L 424.887937 168.050797 
L 427.217013 165.643549 
L 429.546088 163.248854 
L 431.875164 160.86775 
L 434.20424 158.500973 
L 436.533316 156.149004 
L 438.862392 153.812103 
L 441.191468 151.490346 
L 443.520544 149.183655 
L 445.84962 146.891829 
L 448.178696 144.61456 
L 450.507771 142.351463 
L 452.836847 140.102088 
L 455.165923 137.865937 
L 457.494999 135.642479 
L 459.824075 133.431159 
L 462.153151 131.231411 
L 464.482227 129.042659 
L 466.811303 126.864333 
L 469.140378 124.695866 
L 471.469454 122.536703 
L 473.79853 120.386303 
L 476.127606 118.244141 
L 478.456682 116.109711 
L 480.785758 113.982529 
L 483.114834 111.862128 
L 485.44391 109.748065 
L 487.772986 107.63992 
L 490.102061 105.537293 
L 492.431137 103.439806 
L 494.760213 101.347102 
L 497.089289 99.258845 
L 499.418365 97.174721 
L 501.747441 95.094431 
L 504.076517 93.017698 
L 506.405593 90.944263 
L 508.734668 88.873882 
L 511.063744 86.806328 
L 513.39282 84.741389 
L 515.721896 82.678869 
L 518.050972 80.618584 
L 520.380048 78.560363 
L 522.709124 76.504047 
L 525.0382 74.44949 
L 527.367276 72.396556 
L 529.696351 70.345117 
L 532.025427 68.295056 
L 534.354503 66.246264 
L 536.683579 64.198643 
L 539.012655 62.152097 
L 541.341731 60.106542 
L 543.670807 58.061899 
L 545.999883 56.018094 
L 548.328958 53.975059 
L 550.658034 51.932733 
L 552.98711 49.891058 
L 555.316186 47.849981 
L 557.645262 45.809452 
L 559.974338 43.769428 
L 562.303414 41.729867 
L 564.63249 39.690731 
L 566.961566 37.651984 
L 569.290641 35.613595 
L 571.619717 33.575534 
L 573.948793 31.537773 
L 576.277869 29.500288 
L 578.606945 27.463055 
L 580.936021 25.426054 
L 583.265097 23.389265 
L 585.594173 21.352671 
L 587.923248 19.316254 
L 590.252324 17.28 
" clip-path="url(#pad53fb87ee)" style="fill: none; stroke-dasharray: 9.6,2.4,1.5,2.4; stroke-dashoffset: 0; stroke: #ff7f0e; stroke-width: 1.5"/>
   </g>
   <g id="line2d_53">
    <path d="M 359.673812 218.779443 
L 362.002888 217.762185 
L 364.331964 216.744928 
L 366.66104 215.727671 
L 368.990116 214.710414 
L 371.319191 213.693156 
L 373.648267 212.675899 
L 375.977343 211.658642 
L 378.306419 210.641385 
L 380.635495 209.624127 
L 382.964571 208.60687 
L 385.293647 207.589613 
L 387.622723 206.572355 
L 389.951798 205.555098 
L 392.280874 204.537841 
L 394.60995 203.520584 
L 396.939026 202.503326 
L 399.268102 201.486069 
L 401.597178 200.468812 
L 403.926254 199.451555 
L 406.25533 198.434297 
L 408.584406 197.41704 
L 410.913481 196.399783 
L 413.242557 195.382526 
L 415.571633 194.365268 
L 417.900709 193.348011 
L 420.229785 192.330754 
L 422.558861 191.313496 
L 424.887937 190.296239 
L 427.217013 189.278982 
L 429.546088 188.261725 
L 431.875164 187.244467 
L 434.20424 186.22721 
L 436.533316 185.209953 
L 438.862392 184.192696 
L 441.191468 183.175438 
L 443.520544 182.158181 
L 445.84962 181.140924 
L 448.178696 180.123666 
L 450.507771 179.106409 
L 452.836847 178.089152 
L 455.165923 177.071895 
L 457.494999 176.054637 
L 459.824075 175.03738 
L 462.153151 174.020123 
L 464.482227 173.002866 
L 466.811303 171.985608 
L 469.140378 170.968351 
L 471.469454 169.951094 
L 473.79853 168.933836 
L 476.127606 167.916579 
L 478.456682 166.899322 
L 480.785758 165.882065 
L 483.114834 164.864807 
L 485.44391 163.84755 
L 487.772986 162.830293 
L 490.102061 161.813036 
L 492.431137 160.795778 
L 494.760213 159.778521 
L 497.089289 158.761264 
L 499.418365 157.744007 
L 501.747441 156.726749 
L 504.076517 155.709492 
L 506.405593 154.692235 
L 508.734668 153.674977 
L 511.063744 152.65772 
L 513.39282 151.640463 
L 515.721896 150.623206 
L 518.050972 149.605948 
L 520.380048 148.588691 
L 522.709124 147.571434 
L 525.0382 146.554177 
L 527.367276 145.536919 
L 529.696351 144.519662 
L 532.025427 143.502405 
L 534.354503 142.485147 
L 536.683579 141.46789 
L 539.012655 140.450633 
L 541.341731 139.433376 
L 543.670807 138.416118 
L 545.999883 137.398861 
L 548.328958 136.381604 
L 550.658034 135.364347 
L 552.98711 134.347089 
L 555.316186 133.329832 
L 557.645262 132.312575 
L 559.974338 131.295317 
L 562.303414 130.27806 
L 564.63249 129.260803 
L 566.961566 128.243546 
L 569.290641 127.226288 
L 571.619717 126.209031 
L 573.948793 125.191774 
L 576.277869 124.174517 
L 578.606945 123.157259 
L 580.936021 122.140002 
L 583.265097 121.122745 
L 585.594173 120.105487 
L 587.923248 119.08823 
L 590.252324 118.070973 
" clip-path="url(#pad53fb87ee)" style="fill: none; stroke-dasharray: 5.55,2.4; stroke-dashoffset: 0; stroke: #2ca02c; stroke-width: 1.5"/>
   </g>
   <g id="patch_9">
    <path d="M 348.144886 228.96 
L 348.144886 7.2 
" style="fill: none; stroke: #000000; stroke-width: 0.8; stroke-linejoin: miter; stroke-linecap: square"/>
   </g>
   <g id="patch_10">
    <path d="M 601.78125 228.96 
L 601.78125 7.2 
" style="fill: none; stroke: #000000; stroke-width: 0.8; stroke-linejoin: miter; stroke-linecap: square"/>
   </g>
   <g id="patch_11">
    <path d="M 348.144886 228.96 
L 601.78125 228.96 
" style="fill: none; stroke: #000000; stroke-width: 0.8; stroke-linejoin: miter; stroke-linecap: square"/>
   </g>
   <g id="patch_12">
    <path d="M 348.144886 7.2 
L 601.78125 7.2 
" style="fill: none; stroke: #000000; stroke-width: 0.8; stroke-linejoin: miter; stroke-linecap: square"/>
   </g>
   <g id="legend_2">
    <g id="patch_13">
     <path d="M 355.144886 59.234375 
L 520.771449 59.234375 
Q 522.771449 59.234375 522.771449 57.234375 
L 522.771449 14.2 
Q 522.771449 12.2 520.771449 12.2 
L 355.144886 12.2 
Q 353.144886 12.2 353.144886 14.2 
L 353.144886 57.234375 
Q 353.144886 59.234375 355.144886 59.234375 
z
" style="fill: #ffffff; opacity: 0.8; stroke: #cccccc; stroke-linejoin: miter"/>
    </g>
    <g id="line2d_54">
     <path d="M 357.144886 20.298437 
L 367.144886 20.298437 
L 377.144886 20.298437 
" style="fill: none; stroke: #1f77b4; stroke-width: 1.5; stroke-linecap: square"/>
    </g>
    <g id="text_30">
     <!-- RAPPOR (thm 4) -->
     <g transform="translate(385.144886 23.798437) scale(0.1 -0.1)">
      <use xlink:href="#DejaVuSans-52"/>
      <use xlink:href="#DejaVuSans-41" x="65.482422"/>
      <use xlink:href="#DejaVuSans-50" x="133.890625"/>
      <use xlink:href="#DejaVuSans-50" x="194.193359"/>
      <use xlink:href="#DejaVuSans-4f" x="254.496094"/>
      <use xlink:href="#DejaVuSans-52" x="333.207031"/>
      <use xlink:href="#DejaVuSans-20" x="402.689453"/>
      <use xlink:href="#DejaVuSans-28" x="434.476562"/>
      <use xlink:href="#DejaVuSans-74" x="473.490234"/>
      <use xlink:href="#DejaVuSans-68" x="512.699219"/>
      <use xlink:href="#DejaVuSans-6d" x="576.078125"/>
      <use xlink:href="#DejaVuSans-20" x="673.490234"/>
      <use xlink:href="#DejaVuSans-34" x="705.277344"/>
      <use xlink:href="#DejaVuSans-29" x="768.900391"/>
     </g>
    </g>
    <g id="line2d_55">
     <path d="M 357.144886 34.976562 
L 367.144886 34.976562 
L 377.144886 34.976562 
" style="fill: none; stroke-dasharray: 9.6,2.4,1.5,2.4; stroke-dashoffset: 0; stroke: #ff7f0e; stroke-width: 1.5"/>
    </g>
    <g id="text_31">
     <!-- zCDP upper bound (thm 3) -->
     <g transform="translate(385.144886 38.476562) scale(0.1 -0.1)">
      <use xlink:href="#DejaVuSans-7a"/>
      <use xlink:href="#DejaVuSans-43" x="52.490234"/>
      <use xlink:href="#DejaVuSans-44" x="122.314453"/>
      <use xlink:href="#DejaVuSans-50" x="199.316406"/>
      <use xlink:href="#DejaVuSans-20" x="259.619141"/>
      <use xlink:href="#DejaVuSans-75" x="291.40625"/>
      <use xlink:href="#DejaVuSans-70" x="354.785156"/>
      <use xlink:href="#DejaVuSans-70" x="418.261719"/>
      <use xlink:href="#DejaVuSans-65" x="481.738281"/>
      <use xlink:href="#DejaVuSans-72" x="543.261719"/>
      <use xlink:href="#DejaVuSans-20" x="584.375"/>
      <use xlink:href="#DejaVuSans-62" x="616.162109"/>
      <use xlink:href="#DejaVuSans-6f" x="679.638672"/>
      <use xlink:href="#DejaVuSans-75" x="740.820312"/>
      <use xlink:href="#DejaVuSans-6e" x="804.199219"/>
      <use xlink:href="#DejaVuSans-64" x="867.578125"/>
      <use xlink:href="#DejaVuSans-20" x="931.054688"/>
      <use xlink:href="#DejaVuSans-28" x="962.841797"/>
      <use xlink:href="#DejaVuSans-74" x="1001.855469"/>
      <use xlink:href="#DejaVuSans-68" x="1041.064453"/>
      <use xlink:href="#DejaVuSans-6d" x="1104.443359"/>
      <use xlink:href="#DejaVuSans-20" x="1201.855469"/>
      <use xlink:href="#DejaVuSans-33" x="1233.642578"/>
      <use xlink:href="#DejaVuSans-29" x="1297.265625"/>
     </g>
    </g>
    <g id="line2d_56">
     <path d="M 357.144886 49.654687 
L 367.144886 49.654687 
L 377.144886 49.654687 
" style="fill: none; stroke-dasharray: 5.55,2.4; stroke-dashoffset: 0; stroke: #2ca02c; stroke-width: 1.5"/>
    </g>
    <g id="text_32">
     <!-- epsilon/2 -->
     <g transform="translate(385.144886 53.154687) scale(0.1 -0.1)">
      <defs>
       <path id="DejaVuSans-2f" d="M 1625 4666 
L 2156 4666 
L 531 -594 
L 0 -594 
L 1625 4666 
z
" transform="scale(0.015625)"/>
      </defs>
      <use xlink:href="#DejaVuSans-65"/>
      <use xlink:href="#DejaVuSans-70" x="61.523438"/>
      <use xlink:href="#DejaVuSans-73" x="125"/>
      <use xlink:href="#DejaVuSans-69" x="177.099609"/>
      <use xlink:href="#DejaVuSans-6c" x="204.882812"/>
      <use xlink:href="#DejaVuSans-6f" x="232.666016"/>
      <use xlink:href="#DejaVuSans-6e" x="293.847656"/>
      <use xlink:href="#DejaVuSans-2f" x="357.226562"/>
      <use xlink:href="#DejaVuSans-32" x="390.917969"/>
     </g>
    </g>
   </g>
  </g>
 </g>
 <defs>
  <clipPath id="p2c17da69cc">
   <rect x="43.78125" y="7.2" width="253.636364" height="221.76"/>
  </clipPath>
  <clipPath id="pad53fb87ee">
   <rect x="348.144886" y="7.2" width="253.636364" height="221.76"/>
  </clipPath>
 </defs>
</svg>
